<?xml version="1.0" encoding="utf-8"?><svg xmlns="http://www.w3.org/2000/svg" xmlns:xlink="http://www.w3.org/1999/xlink"><symbol viewBox="0 0 24 24" id="arrow-down" xmlns="http://www.w3.org/2000/svg"><path fill="currentColor" d="m13.3 20.442 5.25-5.625c.646-.693.59-1.76-.13-2.384a1.795 1.795 0 0 0-2.472.126l-2.199 2.355V4.688C13.75 3.755 12.967 3 12 3c-.967 0-1.75.755-1.75 1.688v10.228l-2.198-2.358a1.795 1.795 0 0 0-2.471-.126 1.646 1.646 0 0 0-.13 2.384l5.248 5.625c.33.355.805.559 1.3.559.496 0 .97-.204 1.301-.558Z"/></symbol><symbol viewBox="0 0 24 24" fill="none" id="arrow-left" xmlns="http://www.w3.org/2000/svg"><path stroke="currentColor" stroke-linecap="round" stroke-linejoin="round" stroke-width="2" d="m5 12 6-6m-6 6 6 6m-6-6h14"/></symbol><symbol viewBox="0 0 24 24" fill="none" id="arrow-right" xmlns="http://www.w3.org/2000/svg"><path stroke="currentColor" stroke-linecap="round" stroke-linejoin="round" stroke-width="2" d="m19 12-6-6m6 6-6 6m6-6H5"/></symbol><symbol viewBox="0 0 24 24" id="arrow-up" xmlns="http://www.w3.org/2000/svg"><path fill="currentColor" d="M10.7 3.558 5.45 9.183c-.646.693-.59 1.76.13 2.384a1.795 1.795 0 0 0 2.471-.126l2.2-2.355v10.226c0 .933.782 1.688 1.75 1.688.967 0 1.75-.755 1.75-1.688V9.085l2.198 2.358c.648.693 1.754.75 2.471.126a1.645 1.645 0 0 0 .13-2.384L13.303 3.56a1.78 1.78 0 0 0-1.3-.559c-.496 0-.97.204-1.301.558Z"/></symbol><symbol viewBox="0 0 24 24" fill="none" id="basket" xmlns="http://www.w3.org/2000/svg"><path fill="currentColor" fill-rule="evenodd" d="M9.612 6.084C9.16 6.711 9 7.494 9 8v1h6V8c0-.507-.16-1.289-.611-1.916C13.974 5.508 13.274 5 12 5c-1.274 0-1.974.508-2.388 1.084zM17 9V8c0-.827-.24-2.044-.988-3.084C15.226 3.825 13.926 3 12 3c-1.926 0-3.226.825-4.012 1.916C7.24 5.956 7 7.173 7 8v1H3a1 1 0 0 0 0 2h.095l.91 9.1A1 1 0 0 0 5 21h14a1 1 0 0 0 .995-.9l.91-9.1H21a1 1 0 1 0 0-2h-4zm-8 5a1 1 0 1 0-2 0v2a1 1 0 1 0 2 0v-2zm4 0a1 1 0 1 0-2 0v2a1 1 0 1 0 2 0v-2zm4 0a1 1 0 1 0-2 0v2a1 1 0 1 0 2 0v-2z" clip-rule="evenodd"/></symbol><symbol viewBox="0 0 24 24" fill="none" id="bath" xmlns="http://www.w3.org/2000/svg"><path fill="currentColor" d="M20 14v-2H4v2c0 1.138.583 3.248 2.745 3.841.37.102.787.159 1.255.159h8a4.71 4.71 0 0 0 1.255-.159C19.417 17.248 20 15.138 20 14z"/><path stroke="currentColor" stroke-linecap="round" stroke-linejoin="round" stroke-width="2" d="M3 12h1m16 0v0a1 1 0 0 0 1-1V7c0-1-.6-3-3-3s-3 2-3 3m5 5v2c0 1.138-.583 3.248-2.745 3.841M20 12H4m0 0v2c0 1.138.583 3.248 2.745 3.841M6 20l.745-2.159m0 0c.37.102.787.159 1.255.159h8a4.71 4.71 0 0 0 1.255-.159M18 20l-.745-2.159M15 7h-2m2 0h2"/></symbol><symbol viewBox="0 0 24 24" fill="none" id="bus" xmlns="http://www.w3.org/2000/svg"><path stroke="currentColor" stroke-linecap="round" stroke-linejoin="round" stroke-width="2" d="M6 19v0a2 2 0 0 1-2-2v-4m2 6v1.5a.5.5 0 0 0 .5.5v0a.5.5 0 0 0 .5-.5V19m-1 0h1m11 0v0a2 2 0 0 0 2-2v-4m-2 6v1.5a.5.5 0 0 1-.5.5v0a.5.5 0 0 1-.5-.5V19m1 0h-1M4 13V7m0 6h8m8 0V7m0 6h-8m-5 6h10M4 7V5a2 2 0 0 1 2-2h12a2 2 0 0 1 2 2v2M4 7h8m8 0h-8m0 0v6"/><path fill="currentColor" fill-rule="evenodd" d="M4 13h16v6H4v-6zm3 3a1 1 0 0 1 1-1h.001a1 1 0 1 1 0 2H8a1 1 0 0 1-1-1zm9-1a1 1 0 1 0 0 2h.001a1 1 0 1 0 0-2H16z" clip-rule="evenodd"/><path fill="currentColor" d="M4 5a2 2 0 0 1 2-2h12a2 2 0 0 1 2 2v2H4V5z"/></symbol><symbol viewBox="0 0 24 24" fill="none" id="cake" xmlns="http://www.w3.org/2000/svg"><path stroke="currentColor" stroke-linecap="round" stroke-linejoin="round" stroke-width="2" d="M12 3h.01M7 3h.01M17 3h.01"/><path fill="currentColor" fill-rule="evenodd" d="M7 5a1 1 0 0 1 1 1v2h3V6a1 1 0 1 1 2 0v2h3V6a1 1 0 1 1 2 0v2.1a5.005 5.005 0 0 1 3.937 4.102c-.4.155-.75.383-1.047.63-.532.44-.966.994-1.302 1.46-.265.367-.714.708-1.588.708-.874 0-1.324-.342-1.588-.71A2.355 2.355 0 0 1 16 13a1 1 0 1 0-2 0c0 .34-.11.872-.412 1.29-.264.368-.714.71-1.588.71-.874 0-1.324-.342-1.588-.71A2.355 2.355 0 0 1 10 13a1 1 0 1 0-2 0c0 .34-.11.872-.412 1.29-.264.368-.714.71-1.588.71-.874 0-1.323-.341-1.588-.709-.336-.465-.77-1.019-1.302-1.46a3.822 3.822 0 0 0-1.047-.629A5.005 5.005 0 0 1 6 8.1V6a1 1 0 0 1 1-1zm-5 9.52V19a3 3 0 0 0 3 3h14a3 3 0 0 0 3-3v-4.48c-.27.256-.532.583-.79.94-.635.883-1.685 1.54-3.21 1.54-1.367 0-2.353-.529-3-1.273-.647.744-1.633 1.273-3 1.273s-2.353-.529-3-1.273C8.353 16.47 7.367 17 6 17c-1.525 0-2.575-.657-3.21-1.54a6.756 6.756 0 0 0-.79-.94z" clip-rule="evenodd"/></symbol><symbol viewBox="0 0 24 24" fill="none" id="car" xmlns="http://www.w3.org/2000/svg"><path stroke="currentColor" stroke-linecap="round" stroke-linejoin="round" stroke-width="2" d="m3 11 2.48-5.788A2 2 0 0 1 7.32 4h9.362a2 2 0 0 1 1.838 1.212L21 11M3 11h18M3 11v7m18-7v7m-3 0v.5a1.5 1.5 0 0 0 1.5 1.5v0a1.5 1.5 0 0 0 1.5-1.5V18m-3 0H6m12 0h3M6 18v.5A1.5 1.5 0 0 1 4.5 20v0A1.5 1.5 0 0 1 3 18.5V18m3 0H3"/><path fill="currentColor" fill-rule="evenodd" d="M3 11h18v7H3v-7zm3 3a1 1 0 0 1 1-1h.001a1 1 0 1 1 0 2H7a1 1 0 0 1-1-1zm11-1a1 1 0 1 0 0 2h.001a1 1 0 1 0 0-2H17z" clip-rule="evenodd"/></symbol><symbol viewBox="0 0 24 24" fill="none" id="clothes" xmlns="http://www.w3.org/2000/svg"><path fill="currentColor" stroke="currentColor" stroke-linecap="round" stroke-linejoin="round" stroke-width="2" d="M3 10V5a1 1 0 0 1 1-1h4c0 1 .8 3 4 3s4-2 4-3h4a1 1 0 0 1 1 1v5a1 1 0 0 1-1 1h-1a1 1 0 0 0-1 1v7a1 1 0 0 1-1 1H7a1 1 0 0 1-1-1v-7a1 1 0 0 0-1-1H4a1 1 0 0 1-1-1z"/></symbol><symbol viewBox="0 0 24 24" fill="none" id="entertainment" xmlns="http://www.w3.org/2000/svg"><circle cx="12" cy="12" r="6" stroke="currentColor" stroke-linecap="round" stroke-linejoin="round" stroke-width="2"/><circle cx="12" cy="4" r="2" fill="currentColor" stroke="currentColor" stroke-linecap="round" stroke-linejoin="round" stroke-width="2"/><circle cx="19" cy="8" r="2" fill="currentColor" stroke="currentColor" stroke-linecap="round" stroke-linejoin="round" stroke-width="2"/><circle cx="5" cy="8" r="2" fill="currentColor" stroke="currentColor" stroke-linecap="round" stroke-linejoin="round" stroke-width="2"/><circle cx="5" cy="16" r="2" fill="currentColor" stroke="currentColor" stroke-linecap="round" stroke-linejoin="round" stroke-width="2"/><circle cx="19" cy="16" r="2" fill="currentColor" stroke="currentColor" stroke-linecap="round" stroke-linejoin="round" stroke-width="2"/><path stroke="currentColor" stroke-linecap="round" stroke-linejoin="round" stroke-width="2" d="m8 22 4-10 4 10"/></symbol><symbol fill="none" viewBox="0 0 512 512" id="euFlag" xmlns="http://www.w3.org/2000/svg"><g clip-path="url(#ua)"><path d="M256 512c141.385 0 256-114.615 256-256S397.385 0 256 0 0 114.615 0 256s114.615 256 256 256Z" fill="#0052B4"/><path d="m256.001 100.174 8.289 25.509h26.82l-21.699 15.765 8.289 25.509-21.699-15.766-21.7 15.766 8.289-25.509-21.699-15.765h26.821l8.289-25.509ZM145.813 145.814l23.9 12.176 18.965-18.964-4.197 26.49 23.899 12.177-26.491 4.196-4.196 26.492-12.177-23.899-26.49 4.197 18.965-18.965-12.178-23.9ZM100.175 256l25.509-8.289V220.89l15.764 21.7 25.51-8.289L151.191 256l15.767 21.699-25.51-8.288-15.764 21.699v-26.821L100.175 256ZM145.813 366.186l12.177-23.9-18.964-18.965 26.491 4.198 12.175-23.899 4.197 26.491 26.49 4.196-23.896 12.177 4.195 26.49-18.965-18.965-23.9 12.177ZM256.001 411.826l-8.29-25.509h-26.82l21.7-15.765-8.29-25.507 21.7 15.764 21.699-15.764-8.289 25.507 21.699 15.765h-26.821l-8.288 25.509ZM366.187 366.186l-23.899-12.176-18.966 18.965 4.197-26.492-23.897-12.176 26.49-4.196 4.196-26.491 12.176 23.899 26.49-4.198-18.965 18.967 12.178 23.898ZM411.826 256l-25.509 8.289v26.821l-15.765-21.7-25.507 8.289L360.81 256l-15.765-21.699 25.508 8.289 15.764-21.7v26.822L411.826 256ZM366.187 145.814l-12.177 23.9 18.965 18.965-26.492-4.198-12.175 23.899-4.196-26.491-26.49-4.197 23.897-12.176-4.197-26.489 18.967 18.964 23.898-12.177Z" fill="#FFDA44"/></g><defs><clipPath id="ua"><path fill="#fff" d="M0 0h512v512H0z"/></clipPath></defs></symbol><symbol viewBox="0 0 24 24" fill="none" id="flower" xmlns="http://www.w3.org/2000/svg"><path fill="currentColor" d="M4 14c0 2.333 1.4 7 7 7 0-2.333-1.4-7-7-7zm3-6V4l2.5 2L12 3l2.5 3L17 4v4c0 1.667-1 5-5 5S7 9.667 7 8zm13 6c0 2.333-1.4 7-7 7 0-2.333 1.4-7 7-7z"/><path stroke="currentColor" stroke-linecap="round" stroke-linejoin="round" stroke-width="2" d="M11 21c-5.6 0-7-4.667-7-7 5.6 0 7 4.667 7 7zm0 0h1m0 0v-8m0 8h1m-1-8c-4 0-5-3.333-5-5V4l2.5 2L12 3l2.5 3L17 4v4c0 1.667-1 5-5 5zm1 8c5.6 0 7-4.667 7-7-5.6 0-7 4.667-7 7z"/></symbol><symbol viewBox="0 0 24 24" fill="none" id="heart" xmlns="http://www.w3.org/2000/svg"><path fill="currentColor" stroke="currentColor" stroke-linecap="round" stroke-linejoin="round" stroke-width="2" d="M17 4c-3.2 0-5 2.667-5 4 0-1.333-1.8-4-5-4S3 6.667 3 8c0 7 9 12 9 12s9-5 9-12c0-1.333-.8-4-4-4z"/></symbol><symbol viewBox="0 0 24 24" fill="none" id="internet" xmlns="http://www.w3.org/2000/svg"><path stroke="currentColor" stroke-linecap="round" stroke-linejoin="round" stroke-width="2" d="M20.5 9.035a9.004 9.004 0 0 0-17 0m17 0c.324.928.5 1.926.5 2.965a8.988 8.988 0 0 1-.5 2.966m0-5.931h-17m0 0A8.987 8.987 0 0 0 3 12a8.99 8.99 0 0 0 .5 2.966m0 0a9.004 9.004 0 0 0 17 0m-17 0h17"/><path stroke="currentColor" stroke-linecap="round" stroke-linejoin="round" stroke-width="2" d="M12 21c4.97-4.97 4.97-13.03 0-18-4.97 4.97-4.97 13.03 0 18z"/></symbol><symbol viewBox="0 0 24 24" fill="none" id="lamp" xmlns="http://www.w3.org/2000/svg"><path fill="currentColor" d="M12 7a5 5 0 0 0-2 9.584V19h4v-2.416A5.001 5.001 0 0 0 12 7z"/><path stroke="currentColor" stroke-linecap="round" stroke-linejoin="round" stroke-width="2" d="M21 12h1m-3.5-6.5 1-1M12 3V2M5.5 5.5l-1-1M3 12H2m8 10h4m3-10a5 5 0 1 0-7 4.584V19h4v-2.416A5.001 5.001 0 0 0 17 12z"/></symbol><symbol viewBox="0 0 24 24" fill="none" id="laptop" xmlns="http://www.w3.org/2000/svg"><path fill="currentColor" fill-rule="evenodd" d="M3 6a3 3 0 0 1 3-3h12a3 3 0 0 1 3 3v7.764l1.447 2.894-.894.448.894-.448c.998 1.995-.453 4.342-2.683 4.342H4.236c-2.23 0-3.68-2.347-2.683-4.342L3 13.764V6zm3-1a1 1 0 0 0-1 1v5a1 1 0 0 0 1 1h12a1 1 0 0 0 1-1V6a1 1 0 0 0-1-1H6z" clip-rule="evenodd"/></symbol><symbol viewBox="0 0 24 24" fill="none" id="pill" xmlns="http://www.w3.org/2000/svg"><path fill="currentColor" fill-rule="evenodd" d="M4.929 19.071a5 5 0 0 1 0-7.071l2.828-2.828 7.071 7.07L12 19.073a5 5 0 0 1-7.071 0zm11.314-4.243L19.07 12A5 5 0 0 0 12 4.929L9.172 7.757l7.07 7.071z" clip-rule="evenodd"/></symbol><symbol viewBox="0 0 24 24" fill="none" id="rest" xmlns="http://www.w3.org/2000/svg"><path fill="currentColor" d="M10 5.196c1.5-2.598 5.098-2.83 7.696-1.33s4.196 4.732 2.696 7.33l-3.464-2-1.732-1-1.732-1-3.464-2z"/><path stroke="currentColor" stroke-linecap="round" stroke-linejoin="round" stroke-width="2" d="M17.696 3.866C15.098 2.366 11.5 2.598 10 5.196l3.464 2m4.232-3.33c2.598 1.5 4.196 4.732 2.696 7.33l-5.196-3m2.5-4.33.5-.866m-.5.866c-1.821.488-2.982 1.165-4.232 3.33m4.232-3.33c.488 1.821.482 3.165-.768 5.33m-1.732-1-1.732-1m1.732 1-3 5.196M3 21l.88-1.056a2.001 2.001 0 0 1 3.139.08v0a2.001 2.001 0 0 0 3.107.118l.19-.218a2.236 2.236 0 0 1 3.367 0l.191.218c.838.957 2.344.9 3.107-.117v0a2.001 2.001 0 0 1 3.14-.08L21 21M6.708 16A7.97 7.97 0 0 1 12 14a7.97 7.97 0 0 1 5.292 2"/></symbol><symbol viewBox="0 0 24 24" fill="none" id="tv" xmlns="http://www.w3.org/2000/svg"><path fill="currentColor" d="M3 17V9a2 2 0 0 1 2-2h14a2 2 0 0 1 2 2v8a2 2 0 0 1-2 2H5a2 2 0 0 1-2-2z"/><path stroke="currentColor" stroke-linecap="round" stroke-linejoin="round" stroke-width="2" d="M12 7h7a2 2 0 0 1 2 2v8a2 2 0 0 1-2 2H5a2 2 0 0 1-2-2V9a2 2 0 0 1 2-2h7zm0 0L8 3m4 4 4-4"/></symbol><symbol fill="none" viewBox="0 0 512 512" id="uaFlag" xmlns="http://www.w3.org/2000/svg"><g clip-path="url(#va)"><path d="M256 512c141.385 0 256-114.615 256-256S397.385 0 256 0 0 114.615 0 256s114.615 256 256 256Z" fill="#FFDA44"/><path d="M0 256C0 114.616 114.616 0 256 0c141.384 0 256 114.616 256 256" fill="#338AF3"/></g><defs><clipPath id="va"><path fill="#fff" d="M0 0h512v512H0z"/></clipPath></defs></symbol><symbol fill="none" viewBox="0 0 512 512" id="ukFlag" xmlns="http://www.w3.org/2000/svg"><g clip-path="url(#wa)"><path d="M256 512c141.385 0 256-114.615 256-256S397.385 0 256 0 0 114.615 0 256s114.615 256 256 256Z" fill="#F0F0F0"/><path d="M52.92 100.142c-20.109 26.163-35.272 56.318-44.101 89.077h133.178L52.92 100.142ZM503.181 189.219c-8.829-32.758-23.993-62.913-44.101-89.076l-89.075 89.076h133.176ZM8.819 322.784c8.83 32.758 23.993 62.913 44.101 89.075l89.074-89.075H8.819ZM411.858 52.921C385.695 32.812 355.541 17.65 322.782 8.82v133.177l89.076-89.075ZM100.142 459.079c26.163 20.109 56.318 35.272 89.076 44.102V370.005l-89.076 89.074ZM189.217 8.82c-32.758 8.83-62.913 23.992-89.075 44.1l89.075 89.075V8.819ZM322.783 503.181c32.758-8.83 62.913-23.993 89.075-44.101l-89.075-89.075v133.176ZM370.005 322.784l89.075 89.076c20.108-26.162 35.272-56.318 44.101-89.076H370.005Z" fill="#0052B4"/><path d="M509.833 222.609H289.392V2.167A258.556 258.556 0 0 0 256 0c-11.319 0-22.461.744-33.391 2.167v220.441H2.167A258.556 258.556 0 0 0 0 256c0 11.319.744 22.461 2.167 33.391h220.441v220.442a258.35 258.35 0 0 0 66.783 0V289.392h220.442A258.533 258.533 0 0 0 512 256c0-11.317-.744-22.461-2.167-33.391Z" fill="#D80027"/><path d="M322.783 322.784 437.019 437.02a256.636 256.636 0 0 0 15.048-16.435l-97.802-97.802h-31.482v.001ZM189.217 322.784h-.002L74.98 437.019a256.636 256.636 0 0 0 16.435 15.048l97.802-97.804v-31.479ZM189.217 189.219v-.002L74.981 74.98a256.636 256.636 0 0 0-15.048 16.435l97.803 97.803h31.481v.001ZM322.783 189.219 437.02 74.981a256.328 256.328 0 0 0-16.435-15.047l-97.802 97.803v31.482Z" fill="#D80027"/></g><defs><clipPath id="wa"><path fill="#fff" d="M0 0h512v512H0z"/></clipPath></defs></symbol><symbol fill="none" viewBox="0 0 512 512" id="usFlag" xmlns="http://www.w3.org/2000/svg"><g clip-path="url(#xa)"><path d="M256 511.999c141.385 0 256-114.615 256-256s-114.615-256-256-256-256 114.615-256 256 114.615 256 256 256Z" fill="#F0F0F0"/><path d="M244.87 255.999H512c0-23.106-3.08-45.49-8.819-66.783H244.87v66.783ZM244.87 122.434h229.556a257.349 257.349 0 0 0-59.07-66.783H244.87v66.783ZM256 511.999c60.249 0 115.626-20.824 159.356-55.652H96.644c43.73 34.828 99.107 55.652 159.356 55.652ZM37.574 389.564h436.852a254.474 254.474 0 0 0 28.755-66.783H8.819a254.472 254.472 0 0 0 28.755 66.783Z" fill="#D80027"/><path d="M118.584 39.977h23.329l-21.7 15.765 8.289 25.509-21.699-15.765-21.699 15.765 7.16-22.037a257.407 257.407 0 0 0-49.652 55.337h7.475l-13.813 10.035a255.58 255.58 0 0 0-6.194 10.938l6.596 20.301-12.306-8.941a253.567 253.567 0 0 0-8.372 19.873l7.267 22.368h26.822l-21.7 15.765 8.289 25.509-21.699-15.765-12.998 9.444A258.468 258.468 0 0 0 0 255.999h256v-256c-50.572 0-97.715 14.67-137.416 39.978Zm9.918 190.422-21.699-15.765-21.699 15.765 8.289-25.509-21.7-15.765h26.822l8.288-25.509 8.288 25.509h26.822l-21.7 15.765 8.289 25.509Zm-8.289-100.083 8.289 25.509-21.699-15.765-21.699 15.765 8.289-25.509-21.7-15.765h26.822l8.288-25.509 8.288 25.509h26.822l-21.7 15.765Zm100.115 100.083-21.699-15.765-21.699 15.765 8.289-25.509-21.7-15.765h26.822l8.288-25.509 8.288 25.509h26.822l-21.7 15.765 8.289 25.509Zm-8.289-100.083 8.289 25.509-21.699-15.765-21.699 15.765 8.289-25.509-21.7-15.765h26.822l8.288-25.509 8.288 25.509h26.822l-21.7 15.765Zm0-74.574 8.289 25.509-21.699-15.765-21.699 15.765 8.289-25.509-21.7-15.765h26.822l8.288-25.509 8.288 25.509h26.822l-21.7 15.765Z" fill="#0052B4"/></g><defs><clipPath id="xa"><path fill="#fff" transform="translate(0 -.001)" d="M0 0h512v512H0z"/></clipPath></defs></symbol><symbol viewBox="0 0 24 24" fill="none" id="work" xmlns="http://www.w3.org/2000/svg"><path fill="currentColor" fill-rule="evenodd" d="M8 6a3 3 0 0 1 3-3h2a3 3 0 0 1 3 3v1h3a3 3 0 0 1 3 3v2h-7v-1a1 1 0 0 0-1-1h-4a1 1 0 0 0-1 1v1H2v-2a3 3 0 0 1 3-3h3V6zm-6 8v4a3 3 0 0 0 3 3h14a3 3 0 0 0 3-3v-4h-7v1a1 1 0 0 1-1 1h-4a1 1 0 0 1-1-1v-1H2zm8-7h4V6a1 1 0 0 0-1-1h-2a1 1 0 0 0-1 1v1zm3 7h-2v-2h2v2z" clip-rule="evenodd"/></symbol></svg>