<?xml version="1.0" encoding="utf-8"?><!DOCTYPE svg PUBLIC "-//W3C//DTD SVG 1.1//EN" "http://www.w3.org/Graphics/SVG/1.1/DTD/svg11.dtd"><svg xmlns="http://www.w3.org/2000/svg" xmlns:xlink="http://www.w3.org/1999/xlink"><symbol fill="none" viewBox="0 0 285 154" id="app-logo" xmlns="http://www.w3.org/2000/svg"><path d="M35.968 36.848c2.517 2.987 3.776 6.336 3.776 10.048-.085 4.267-1.557 7.85-4.416 10.752-2.816 2.859-6.25 4.288-10.304 4.288H8.192c-2.987 0-4.736-.81-5.248-2.432-.256-.725-.384-1.835-.384-3.328v-35.52c0-1.024.021-1.77.064-2.24.085-.47.299-1.024.64-1.664.597-1.152 2.261-1.728 4.992-1.728h16.128c3.925 0 7.21 1.365 9.856 4.096 2.773 2.773 4.16 6.101 4.16 9.984 0 2.816-.81 5.397-2.432 7.744Zm-7.552 9.408c0-1.024-.128-1.835-.384-2.432-.213-.597-.597-1.024-1.152-1.28-.853-.341-2.048-.512-3.584-.512s-2.688-.299-3.456-.896c-.768-.597-1.152-1.813-1.152-3.648 0-1.877.384-3.115 1.152-3.712.81-.597 2.133-.896 3.968-.896 1.707 0 2.73-.448 3.072-1.344.128-.47.192-1.237.192-2.304 0-1.067-.363-1.813-1.088-2.24-.683-.427-1.728-.64-3.136-.64h-8.96v24.256h10.496c2.688 0 4.032-1.45 4.032-4.352Zm30.495 15.616c-4.31 0-7.893-1.621-10.752-4.864-2.816-3.285-4.224-7.275-4.224-11.968v-11.2c0-1.024.021-1.77.064-2.24.085-.47.277-1.024.576-1.664.597-1.152 2.261-1.728 4.992-1.728 2.987 0 4.736.81 5.248 2.432.256.683.384 1.77.384 3.264v11.2c0 1.75.49 3.115 1.472 4.096 1.024.981 2.368 1.472 4.032 1.472 1.707 0 3.072-.512 4.096-1.536 1.067-1.024 1.6-2.368 1.6-4.032V33.776c0-.981.021-1.707.064-2.176.085-.512.299-1.088.64-1.728.555-1.11 2.197-1.664 4.928-1.664 2.688 0 4.33.576 4.928 1.728.299.64.47 1.216.512 1.728.085.47.128 1.195.128 2.176v22.656c0 .939-.043 1.664-.128 2.176-.043.47-.235 1.003-.576 1.6-.64 1.11-2.283 1.664-4.928 1.664-2.603 0-4.203-.512-4.8-1.536-.427-.725-.64-1.6-.64-2.624-.17.299-.555.725-1.152 1.28a15.694 15.694 0 0 1-1.728 1.408 8.548 8.548 0 0 1-4.736 1.408Zm46.429-47.616c.341-.64.917-1.088 1.728-1.344.81-.256 1.877-.384 3.2-.384 1.365 0 2.453.128 3.264.384.81.256 1.365.704 1.664 1.344.341.64.533 1.216.576 1.728.085.47.128 1.195.128 2.176v38.208c0 .981-.043 1.728-.128 2.24-.043.47-.235 1.003-.576 1.6-.64 1.152-2.454 1.728-5.44 1.728-2.944 0-4.587-1.045-4.928-3.136-1.792 2.048-4.288 3.072-7.489 3.072-3.84 0-7.338-1.664-10.495-4.992-3.158-3.37-4.736-7.275-4.736-11.712 0-4.48 1.578-8.405 4.736-11.776 3.2-3.37 6.698-5.056 10.496-5.056 3.157 0 5.61 1.067 7.36 3.2v-13.44c0-.981.021-1.707.064-2.176.085-.512.277-1.067.576-1.664ZM94.972 49.008c1.109 1.152 2.453 1.728 4.032 1.728 1.578 0 2.88-.576 3.904-1.728 1.066-1.152 1.6-2.41 1.6-3.776 0-1.408-.512-2.71-1.536-3.904-.982-1.195-2.326-1.792-4.032-1.792-1.707 0-3.072.597-4.096 1.792-1.024 1.152-1.536 2.432-1.536 3.84s.554 2.688 1.663 3.84Zm47.402 8.768c-1.622 2.133-4.203 3.2-7.744 3.2-3.542 0-6.87-1.621-9.984-4.864-3.072-3.285-4.608-7.104-4.608-11.456 0-4.352 1.557-8.17 4.672-11.456 3.114-3.285 6.528-4.928 10.24-4.928 1.45 0 2.773.277 3.968.832 1.194.512 2.005 1.003 2.432 1.472.469.427.832.832 1.088 1.216.128-1.195.554-2.09 1.28-2.688.768-.64 1.984-.96 3.648-.96 1.664 0 2.88.128 3.648.384.768.256 1.301.704 1.6 1.344.341.597.533 1.13.576 1.6.085.47.128 1.195.128 2.176v26.496c0 4.907-1.707 8.853-5.12 11.84-3.414 3.03-7.254 4.544-11.52 4.544-3.243 0-6.336-.79-9.28-2.368-2.944-1.579-4.416-3.008-4.416-4.288 0-1.664.64-3.136 1.92-4.416.81-.896 1.429-1.515 1.856-1.856a2.65 2.65 0 0 1 1.6-.512c.597 0 1.216.256 1.856.768 2.048 1.579 4.266 2.368 6.656 2.368 1.621 0 2.944-.64 3.968-1.92 1.024-1.28 1.536-2.816 1.536-4.608v-1.92ZM130.982 44.72c0 1.365.533 2.603 1.6 3.712 1.109 1.11 2.432 1.664 3.968 1.664 1.578 0 2.88-.555 3.904-1.664 1.024-1.152 1.536-2.39 1.536-3.712 0-1.365-.491-2.624-1.472-3.776-.982-1.195-2.304-1.792-3.968-1.792-1.664 0-3.008.576-4.032 1.728-1.024 1.152-1.536 2.432-1.536 3.84Zm59.965-3.584c0 2.603-.661 4.544-1.984 5.824-1.28 1.237-2.709 1.856-4.288 1.856h-15.168c0 1.195.704 2.197 2.112 3.008 1.408.81 2.816 1.216 4.224 1.216 2.475 0 4.416-.256 5.824-.768l.704-.256c1.024-.47 1.877-.704 2.56-.704 1.365 0 2.539.96 3.52 2.88.555 1.152.832 2.133.832 2.944 0 3.797-4.544 5.696-13.632 5.696-3.157 0-5.973-.533-8.448-1.6-2.432-1.11-4.331-2.56-5.696-4.352-2.688-3.456-4.032-7.317-4.032-11.584 0-5.376 1.728-9.664 5.184-12.864 3.499-3.243 7.851-4.864 13.056-4.864 5.931 0 10.283 2.09 13.056 6.272 1.451 2.219 2.176 4.65 2.176 7.296Zm-13.504 1.856c1.621 0 2.432-.683 2.432-2.048 0-.981-.384-1.77-1.152-2.368-.725-.597-1.792-.896-3.2-.896-1.365 0-2.731.576-4.096 1.728-1.365 1.11-2.048 2.304-2.048 3.584h8.064Zm36.639-3.392-4.16-.256v8.832c0 1.152.17 1.984.512 2.496.384.512 1.066.768 2.048.768 1.024 0 1.792.043 2.304.128.554.043 1.13.235 1.728.576.981.555 1.472 1.984 1.472 4.288 0 2.688-.598 4.33-1.792 4.928-.64.299-1.216.49-1.728.576-.47.043-1.174.064-2.112.064-4.438 0-7.808-1.003-10.112-3.008-2.304-2.005-3.456-5.397-3.456-10.176v-9.472c-.811.128-1.686.192-2.625.192-.938 0-1.727-.363-2.367-1.088-.598-.725-.896-1.963-.896-3.712 0-1.75.106-3.008.32-3.776.213-.81.512-1.387.896-1.728.682-.555 1.536-.832 2.56-.832l2.112.256v-6.592c0-.981.021-1.707.064-2.176.085-.47.298-.981.64-1.536.554-1.067 2.197-1.6 4.928-1.6 2.901 0 4.629.79 5.184 2.368.213.683.32 1.77.32 3.264v6.272c1.877-.17 3.285-.256 4.224-.256.981 0 1.706.043 2.176.128.512.043 1.088.235 1.728.576 1.109.555 1.664 2.197 1.664 4.928 0 2.688-.576 4.33-1.728 4.928-.64.299-1.216.49-1.728.576-.47.043-1.195.064-2.176.064ZM54.195 92.024h35.583c1.366 0 2.368.17 3.008.512.64.299 1.067.79 1.28 1.472.214.683.32 1.579.32 2.688 0 1.11-.106 2.005-.32 2.688-.213.64-.576 1.088-1.088 1.344-.767.384-1.855.576-3.263.576H77.49v32.192c0 .981-.042 1.707-.127 2.176-.043.469-.235 1.024-.576 1.664-.3.597-.854 1.024-1.665 1.28-.81.256-1.877.384-3.2.384-1.322 0-2.389-.128-3.2-.384-.767-.256-1.322-.683-1.663-1.28-.3-.64-.491-1.195-.576-1.664-.043-.512-.065-1.259-.065-2.24v-32.128H54.13c-1.365 0-2.367-.149-3.008-.448a2.54 2.54 0 0 1-1.28-1.536c-.213-.683-.32-1.579-.32-2.688 0-1.11.107-1.984.32-2.624.214-.683.577-1.152 1.089-1.408.768-.384 1.855-.576 3.264-.576Zm58.965 13.632c.81.256 1.472.704 1.984 1.344.554.597.832 1.579.832 2.944s-.406 2.859-1.216 4.48c-.811 1.621-1.984 2.432-3.52 2.432a5.21 5.21 0 0 1-2.24-.512c-.683-.341-1.6-.512-2.752-.512-1.152 0-2.24.405-3.264 1.216-.982.811-1.472 1.792-1.472 2.944v13.44c0 .981-.043 1.728-.128 2.24-.043.469-.235 1.024-.576 1.664-.64 1.109-2.305 1.664-4.993 1.664-2.047 0-3.52-.363-4.415-1.088-.683-.597-1.067-1.515-1.153-2.752v-24.32c0-.981.022-1.707.064-2.176.086-.512.278-1.067.576-1.664.598-1.152 2.262-1.728 4.992-1.728 2.56 0 4.161.491 4.801 1.472.469.683.704 1.387.704 2.112.213-.299.512-.661.896-1.088.426-.427 1.301-1.003 2.624-1.728 1.322-.725 2.474-1.088 3.456-1.088 1.024 0 1.877.064 2.56.192.682.085 1.429.256 2.24.512Zm26.288 3.2c.256-2.389 1.941-3.584 5.056-3.584 1.664 0 2.901.128 3.712.384.811.256 1.365.704 1.664 1.344.341.64.533 1.216.576 1.728.085.469.128 1.195.128 2.176v22.4c0 .981-.043 1.728-.128 2.24-.043.469-.213 1.024-.512 1.664-.597 1.109-2.069 1.664-4.416 1.664-2.304 0-3.861-.277-4.672-.832-.768-.597-1.216-1.451-1.344-2.56-1.579 2.261-4.224 3.392-7.936 3.392-3.669 0-7.083-1.685-10.24-5.056s-4.736-7.275-4.736-11.712c0-4.48 1.579-8.384 4.736-11.712 3.2-3.371 6.699-5.056 10.496-5.056 1.451 0 2.773.256 3.968.768 1.195.512 2.027 1.003 2.496 1.472.469.427.853.853 1.152 1.28ZM127.8 122.168c0 1.408.555 2.688 1.664 3.84 1.109 1.109 2.453 1.664 4.032 1.664 1.579 0 2.88-.576 3.904-1.728 1.067-1.152 1.6-2.411 1.6-3.776 0-1.408-.512-2.709-1.536-3.904-.981-1.195-2.325-1.792-4.032-1.792-1.664 0-3.029.597-4.096 1.792-1.024 1.195-1.536 2.496-1.536 3.904Zm38.445 0c0 1.792.597 3.2 1.792 4.224 1.195.981 2.453 1.472 3.776 1.472a6.67 6.67 0 0 0 3.776-1.152c1.195-.811 2.155-1.216 2.88-1.216 1.28 0 2.837 1.131 4.672 3.392.981 1.237 1.472 2.347 1.472 3.328 0 1.621-1.173 3.136-3.52 4.544-2.432 1.707-5.419 2.56-8.96 2.56-3.968 0-7.787-1.429-11.456-4.288-1.749-1.365-3.179-3.179-4.288-5.44-1.109-2.304-1.664-4.821-1.664-7.552 0-2.773.555-5.269 1.664-7.488 1.109-2.261 2.539-4.075 4.288-5.44 3.541-2.816 7.317-4.224 11.328-4.224 1.621 0 3.2.235 4.736.704 1.536.427 2.667.853 3.392 1.28l1.024.64c.768.512 1.365.917 1.792 1.216 1.109.853 1.664 1.835 1.664 2.944 0 1.067-.448 2.283-1.344 3.648-1.536 2.347-3.008 3.52-4.416 3.52-.811 0-1.963-.469-3.456-1.408-.768-.725-1.877-1.088-3.328-1.088-1.408 0-2.731.512-3.968 1.536s-1.856 2.453-1.856 4.288Zm42.343-.064 8.512 7.04c1.066.896 1.728 1.579 1.983 2.048.299.469.449.917.449 1.344 0 1.024-.662 2.411-1.984 4.16-1.451 1.792-2.731 2.688-3.84 2.688-.939 0-2.24-.619-3.904-1.856l-.64-.448c-.982-.811-2.496-2.219-4.544-4.224-2.048-2.048-3.606-3.499-4.672-4.352v4.928c0 .981-.043 1.728-.128 2.24-.043.469-.235 1.024-.576 1.664-.555 1.109-2.198 1.664-4.928 1.664-2.688 0-4.331-.576-4.928-1.728-.299-.64-.491-1.195-.576-1.664-.043-.512-.064-1.259-.064-2.24V95.032c0-.981.021-1.707.064-2.176.085-.512.277-1.088.576-1.728.597-1.152 2.261-1.728 4.992-1.728 2.048 0 3.498.363 4.352 1.088.725.597 1.109 1.536 1.152 2.816.042.384.064.981.064 1.792v20.288c.768-.64 1.92-1.728 3.456-3.264 1.578-1.536 2.752-2.624 3.52-3.264l.768-.512c1.493-1.152 2.773-1.728 3.84-1.728 1.066 0 2.282.875 3.648 2.624 1.408 1.707 2.112 3.051 2.112 4.032 0 .981-.79 2.133-2.368 3.456l-6.336 5.376Zm45.047-3.968c0 2.603-.662 4.544-1.984 5.824-1.28 1.237-2.71 1.856-4.288 1.856h-15.168c0 1.195.704 2.197 2.112 3.008 1.408.811 2.816 1.216 4.224 1.216 2.474 0 4.416-.256 5.824-.768l.704-.256c1.024-.469 1.877-.704 2.56-.704 1.365 0 2.538.96 3.52 2.88.554 1.152.832 2.133.832 2.944 0 3.797-4.544 5.696-13.632 5.696-3.158 0-5.974-.533-8.448-1.6-2.432-1.109-4.331-2.56-5.696-4.352-2.688-3.456-4.032-7.317-4.032-11.584 0-5.376 1.728-9.664 5.184-12.864 3.498-3.243 7.85-4.864 13.056-4.864 5.93 0 10.282 2.091 13.055 6.272 1.451 2.219 2.177 4.651 2.177 7.296Zm-13.504 1.856c1.621 0 2.432-.683 2.432-2.048 0-.981-.384-1.771-1.152-2.368-.726-.597-1.792-.896-3.2-.896-1.366 0-2.731.576-4.096 1.728-1.366 1.109-2.048 2.304-2.048 3.584h8.064Zm40.591-14.336a4.032 4.032 0 0 1 1.984 1.344c.555.597.832 1.579.832 2.944s-.405 2.859-1.216 4.48c-.811 1.621-1.984 2.432-3.52 2.432a5.21 5.21 0 0 1-2.24-.512c-.683-.341-1.6-.512-2.752-.512-1.152 0-2.24.405-3.264 1.216-.981.811-1.472 1.792-1.472 2.944v13.44c0 .981-.043 1.728-.128 2.24-.043.469-.235 1.024-.576 1.664-.64 1.109-2.304 1.664-4.992 1.664-2.048 0-3.52-.363-4.416-1.088-.683-.597-1.067-1.515-1.152-2.752v-24.32c0-.981.021-1.707.064-2.176.085-.512.277-1.067.576-1.664.597-1.152 2.261-1.728 4.992-1.728 2.56 0 4.16.491 4.8 1.472.469.683.704 1.387.704 2.112.213-.299.512-.661.896-1.088.427-.427 1.301-1.003 2.624-1.728 1.323-.725 2.475-1.088 3.456-1.088 1.024 0 1.877.064 2.56.192.683.085 1.429.256 2.24.512Z" fill="#fff"/><rect x="2" y="79" width="40" height="9.984" rx="3" fill="#fff"/><path fill-rule="evenodd" clip-rule="evenodd" d="M17 85.087c-9.389 0-17 7.611-17 17V122c0 9.389 7.611 17 17 17h10c9.389 0 17-7.611 17-17v-19.913c0-9.389-7.611-17-17-17H17ZM22 97c8.285 0 15 6.814 15 15.217 0 8.404-6.715 15.218-15 15.218s-15-6.814-15-15.218C7 103.814 13.715 97 22 97Zm0 2.853c-6.731 0-12.188 5.536-12.188 12.364 0 6.829 5.457 12.365 12.188 12.365 6.731 0 12.188-5.536 12.188-12.365 0-6.828-5.457-12.364-12.188-12.364Zm0 22.826c-5.695 0-10.313-4.684-10.313-10.462S16.306 101.755 22 101.755s10.313 4.684 10.313 10.462S27.695 122.679 22 122.679Zm.682-11.436c-.818-.236-2.056-.594-2.056-1.302 0-.675.77-.87 1.232-.87.421 0 .926.135 1.192.404.169.165.238.285.294.45l.02.059c.06.176.119.346.358.346h1.374c.322 0 .407-.06.407-.42 0-1.543-1.192-2.412-2.551-2.711V106c0-.269-.085-.435-.407-.435H21.45c-.323 0-.407.165-.407.435v1.153c-1.458.284-2.677 1.213-2.677 2.891 0 1.902 1.305 2.502 2.72 2.98.312.106.629.186.926.26.834.21 1.512.38 1.512.998 0 .839-.615 1.019-1.373 1.019-.52 0-1.093-.136-1.374-.495-.182-.224-.252-.419-.265-.614-.029-.375-.182-.419-.506-.419h-1.36c-.322 0-.406.076-.406.419 0 1.707 1.346 2.742 2.803 3.071v1.169c0 .269.084.435.407.435h1.094c.322 0 .407-.166.407-.435v-1.137c1.654-.256 2.789-1.274 2.789-3.072.002-1.989-1.417-2.45-2.424-2.777l-.07-.023a5.912 5.912 0 0 0-.565-.18Z" fill="#fff"/></symbol><symbol viewBox="0 0 24 24" id="arrow-down" xmlns="http://www.w3.org/2000/svg"><path fill="currentColor" d="m13.3 20.442 5.25-5.625c.646-.693.59-1.76-.13-2.384a1.795 1.795 0 0 0-2.472.126l-2.199 2.355V4.688C13.75 3.755 12.967 3 12 3c-.967 0-1.75.755-1.75 1.688v10.228l-2.198-2.358a1.795 1.795 0 0 0-2.471-.126 1.646 1.646 0 0 0-.13 2.384l5.248 5.625c.33.355.805.559 1.3.559.496 0 .97-.204 1.301-.558Z"/></symbol><symbol viewBox="0 0 24 24" fill="none" id="arrow-left" xmlns="http://www.w3.org/2000/svg"><path stroke="currentColor" stroke-linecap="round" stroke-linejoin="round" stroke-width="2" d="m5 12 6-6m-6 6 6 6m-6-6h14"/></symbol><symbol viewBox="0 0 24 24" fill="none" id="arrow-right" xmlns="http://www.w3.org/2000/svg"><path stroke="currentColor" stroke-linecap="round" stroke-linejoin="round" stroke-width="2" d="m19 12-6-6m6 6-6 6m6-6H5"/></symbol><symbol viewBox="0 0 24 24" id="arrow-up" xmlns="http://www.w3.org/2000/svg"><path fill="currentColor" d="M10.7 3.558 5.45 9.183c-.646.693-.59 1.76.13 2.384a1.795 1.795 0 0 0 2.471-.126l2.2-2.355v10.226c0 .933.782 1.688 1.75 1.688.967 0 1.75-.755 1.75-1.688V9.085l2.198 2.358c.648.693 1.754.75 2.471.126a1.645 1.645 0 0 0 .13-2.384L13.303 3.56a1.78 1.78 0 0 0-1.3-.559c-.496 0-.97.204-1.301.558Z"/></symbol><symbol viewBox="0 0 24 24" fill="none" id="basket" xmlns="http://www.w3.org/2000/svg"><path fill="currentColor" fill-rule="evenodd" d="M9.612 6.084C9.16 6.711 9 7.494 9 8v1h6V8c0-.507-.16-1.289-.611-1.916C13.974 5.508 13.274 5 12 5c-1.274 0-1.974.508-2.388 1.084zM17 9V8c0-.827-.24-2.044-.988-3.084C15.226 3.825 13.926 3 12 3c-1.926 0-3.226.825-4.012 1.916C7.24 5.956 7 7.173 7 8v1H3a1 1 0 0 0 0 2h.095l.91 9.1A1 1 0 0 0 5 21h14a1 1 0 0 0 .995-.9l.91-9.1H21a1 1 0 1 0 0-2h-4zm-8 5a1 1 0 1 0-2 0v2a1 1 0 1 0 2 0v-2zm4 0a1 1 0 1 0-2 0v2a1 1 0 1 0 2 0v-2zm4 0a1 1 0 1 0-2 0v2a1 1 0 1 0 2 0v-2z" clip-rule="evenodd"/></symbol><symbol viewBox="0 0 24 24" fill="none" id="bath" xmlns="http://www.w3.org/2000/svg"><path fill="currentColor" d="M20 14v-2H4v2c0 1.138.583 3.248 2.745 3.841.37.102.787.159 1.255.159h8a4.71 4.71 0 0 0 1.255-.159C19.417 17.248 20 15.138 20 14z"/><path stroke="currentColor" stroke-linecap="round" stroke-linejoin="round" stroke-width="2" d="M3 12h1m16 0v0a1 1 0 0 0 1-1V7c0-1-.6-3-3-3s-3 2-3 3m5 5v2c0 1.138-.583 3.248-2.745 3.841M20 12H4m0 0v2c0 1.138.583 3.248 2.745 3.841M6 20l.745-2.159m0 0c.37.102.787.159 1.255.159h8a4.71 4.71 0 0 0 1.255-.159M18 20l-.745-2.159M15 7h-2m2 0h2"/></symbol><symbol viewBox="0 0 24 24" fill="none" id="bus" xmlns="http://www.w3.org/2000/svg"><path stroke="currentColor" stroke-linecap="round" stroke-linejoin="round" stroke-width="2" d="M6 19v0a2 2 0 0 1-2-2v-4m2 6v1.5a.5.5 0 0 0 .5.5v0a.5.5 0 0 0 .5-.5V19m-1 0h1m11 0v0a2 2 0 0 0 2-2v-4m-2 6v1.5a.5.5 0 0 1-.5.5v0a.5.5 0 0 1-.5-.5V19m1 0h-1M4 13V7m0 6h8m8 0V7m0 6h-8m-5 6h10M4 7V5a2 2 0 0 1 2-2h12a2 2 0 0 1 2 2v2M4 7h8m8 0h-8m0 0v6"/><path fill="currentColor" fill-rule="evenodd" d="M4 13h16v6H4v-6zm3 3a1 1 0 0 1 1-1h.001a1 1 0 1 1 0 2H8a1 1 0 0 1-1-1zm9-1a1 1 0 1 0 0 2h.001a1 1 0 1 0 0-2H16z" clip-rule="evenodd"/><path fill="currentColor" d="M4 5a2 2 0 0 1 2-2h12a2 2 0 0 1 2 2v2H4V5z"/></symbol><symbol viewBox="0 0 24 24" fill="none" id="cake" xmlns="http://www.w3.org/2000/svg"><path stroke="currentColor" stroke-linecap="round" stroke-linejoin="round" stroke-width="2" d="M12 3h.01M7 3h.01M17 3h.01"/><path fill="currentColor" fill-rule="evenodd" d="M7 5a1 1 0 0 1 1 1v2h3V6a1 1 0 1 1 2 0v2h3V6a1 1 0 1 1 2 0v2.1a5.005 5.005 0 0 1 3.937 4.102c-.4.155-.75.383-1.047.63-.532.44-.966.994-1.302 1.46-.265.367-.714.708-1.588.708-.874 0-1.324-.342-1.588-.71A2.355 2.355 0 0 1 16 13a1 1 0 1 0-2 0c0 .34-.11.872-.412 1.29-.264.368-.714.71-1.588.71-.874 0-1.324-.342-1.588-.71A2.355 2.355 0 0 1 10 13a1 1 0 1 0-2 0c0 .34-.11.872-.412 1.29-.264.368-.714.71-1.588.71-.874 0-1.323-.341-1.588-.709-.336-.465-.77-1.019-1.302-1.46a3.822 3.822 0 0 0-1.047-.629A5.005 5.005 0 0 1 6 8.1V6a1 1 0 0 1 1-1zm-5 9.52V19a3 3 0 0 0 3 3h14a3 3 0 0 0 3-3v-4.48c-.27.256-.532.583-.79.94-.635.883-1.685 1.54-3.21 1.54-1.367 0-2.353-.529-3-1.273-.647.744-1.633 1.273-3 1.273s-2.353-.529-3-1.273C8.353 16.47 7.367 17 6 17c-1.525 0-2.575-.657-3.21-1.54a6.756 6.756 0 0 0-.79-.94z" clip-rule="evenodd"/></symbol><symbol viewBox="0 0 24 24" fill="none" id="car" xmlns="http://www.w3.org/2000/svg"><path stroke="currentColor" stroke-linecap="round" stroke-linejoin="round" stroke-width="2" d="m3 11 2.48-5.788A2 2 0 0 1 7.32 4h9.362a2 2 0 0 1 1.838 1.212L21 11M3 11h18M3 11v7m18-7v7m-3 0v.5a1.5 1.5 0 0 0 1.5 1.5v0a1.5 1.5 0 0 0 1.5-1.5V18m-3 0H6m12 0h3M6 18v.5A1.5 1.5 0 0 1 4.5 20v0A1.5 1.5 0 0 1 3 18.5V18m3 0H3"/><path fill="currentColor" fill-rule="evenodd" d="M3 11h18v7H3v-7zm3 3a1 1 0 0 1 1-1h.001a1 1 0 1 1 0 2H7a1 1 0 0 1-1-1zm11-1a1 1 0 1 0 0 2h.001a1 1 0 1 0 0-2H17z" clip-rule="evenodd"/></symbol><symbol viewBox="0 0 24 24" fill="none" id="close" xmlns="http://www.w3.org/2000/svg"><path stroke="currentColor" stroke-linecap="round" stroke-linejoin="round" stroke-width="2" d="M12 12 7 7m5 5 5 5m-5-5 5-5m-5 5-5 5"/></symbol><symbol viewBox="0 0 24 24" fill="none" id="clothes" xmlns="http://www.w3.org/2000/svg"><path fill="currentColor" stroke="currentColor" stroke-linecap="round" stroke-linejoin="round" stroke-width="2" d="M3 10V5a1 1 0 0 1 1-1h4c0 1 .8 3 4 3s4-2 4-3h4a1 1 0 0 1 1 1v5a1 1 0 0 1-1 1h-1a1 1 0 0 0-1 1v7a1 1 0 0 1-1 1H7a1 1 0 0 1-1-1v-7a1 1 0 0 0-1-1H4a1 1 0 0 1-1-1z"/></symbol><symbol viewBox="0 0 24 24" fill="none" id="coins" xmlns="http://www.w3.org/2000/svg"><path fill="currentColor" d="M21 8c0 1.02-1.186 1.92-3 2.462-1.134.34-2.513.538-4 .538s-2.866-.199-4-.538C8.187 9.92 7 9.02 7 8c0-1.657 3.134-3 7-3s7 1.343 7 3z"/><path stroke="currentColor" stroke-linecap="round" stroke-linejoin="round" stroke-width="2" d="M21 8c0-1.657-3.134-3-7-3S7 6.343 7 8m14 0v4c0 1.02-1.186 1.92-3 2.462-1.134.34-2.513.538-4 .538s-2.866-.199-4-.538C8.187 13.92 7 13.02 7 12V8m14 0c0 1.02-1.186 1.92-3 2.462-1.134.34-2.513.538-4 .538s-2.866-.199-4-.538C8.187 9.92 7 9.02 7 8"/><path stroke="currentColor" stroke-linecap="round" stroke-linejoin="round" stroke-width="2" d="M3 12v4c0 1.02 1.187 1.92 3 2.462 1.134.34 2.513.538 4 .538s2.866-.199 4-.538c1.813-.542 3-1.442 3-2.462v-1M3 12c0-1.197 1.635-2.23 4-2.711M3 12c0 1.02 1.187 1.92 3 2.462 1.134.34 2.513.538 4 .538.695 0 1.366-.043 2-.124"/></symbol><symbol viewBox="0 0 24 24" fill="none" id="edit" xmlns="http://www.w3.org/2000/svg"><path fill="currentColor" fill-rule="evenodd" d="M15.586 3a2 2 0 0 1 2.828 0L21 5.586a2 2 0 0 1 0 2.828L19.414 10 14 4.586 15.586 3zm-3 3-9 9A2 2 0 0 0 3 16.414V19a2 2 0 0 0 2 2h2.586A2 2 0 0 0 9 20.414l9-9L12.586 6z" clip-rule="evenodd"/></symbol><symbol viewBox="0 0 24 24" fill="none" id="entertainment" xmlns="http://www.w3.org/2000/svg"><circle cx="12" cy="12" r="6" stroke="currentColor" stroke-linecap="round" stroke-linejoin="round" stroke-width="2"/><circle cx="12" cy="4" r="2" fill="currentColor" stroke="currentColor" stroke-linecap="round" stroke-linejoin="round" stroke-width="2"/><circle cx="19" cy="8" r="2" fill="currentColor" stroke="currentColor" stroke-linecap="round" stroke-linejoin="round" stroke-width="2"/><circle cx="5" cy="8" r="2" fill="currentColor" stroke="currentColor" stroke-linecap="round" stroke-linejoin="round" stroke-width="2"/><circle cx="5" cy="16" r="2" fill="currentColor" stroke="currentColor" stroke-linecap="round" stroke-linejoin="round" stroke-width="2"/><circle cx="19" cy="16" r="2" fill="currentColor" stroke="currentColor" stroke-linecap="round" stroke-linejoin="round" stroke-width="2"/><path stroke="currentColor" stroke-linecap="round" stroke-linejoin="round" stroke-width="2" d="m8 22 4-10 4 10"/></symbol><symbol fill="currentColor" viewBox="0 0 24 24" id="equal-sign" xmlns="http://www.w3.org/2000/svg"><rect x="21" y="18" width="18" height="4" rx="2" transform="rotate(180 21 18)"/><rect x="21" y="10" width="18" height="4" rx="2" transform="rotate(180 21 10)"/></symbol><symbol viewBox="0 0 24 24" fill="none" id="eraser" xmlns="http://www.w3.org/2000/svg"><path fill="currentColor" fill-rule="evenodd" d="M3.121 17.85a3 3 0 0 1 0-4.243l7.071-7.072 8.486 8.486-3.243 3.242H20a1 1 0 1 1 0 2H6.778a3 3 0 0 1-2.121-.878L3.12 17.849zm16.97-4.243 1.415-1.415a3 3 0 0 0 0-4.242l-4.243-4.243a3 3 0 0 0-4.242 0l-1.414 1.414 8.485 8.486z" clip-rule="evenodd"/></symbol><symbol fill="none" viewBox="0 0 512 512" id="euFlag" xmlns="http://www.w3.org/2000/svg"><g clip-path="url(#baa)"><path d="M256 512c141.385 0 256-114.615 256-256S397.385 0 256 0 0 114.615 0 256s114.615 256 256 256Z" fill="#0052B4"/><path d="m256.001 100.174 8.289 25.509h26.82l-21.699 15.765 8.289 25.509-21.699-15.766-21.7 15.766 8.289-25.509-21.699-15.765h26.821l8.289-25.509ZM145.813 145.814l23.9 12.176 18.965-18.964-4.197 26.49 23.899 12.177-26.491 4.196-4.196 26.492-12.177-23.899-26.49 4.197 18.965-18.965-12.178-23.9ZM100.175 256l25.509-8.289V220.89l15.764 21.7 25.51-8.289L151.191 256l15.767 21.699-25.51-8.288-15.764 21.699v-26.821L100.175 256ZM145.813 366.186l12.177-23.9-18.964-18.965 26.491 4.198 12.175-23.899 4.197 26.491 26.49 4.196-23.896 12.177 4.195 26.49-18.965-18.965-23.9 12.177ZM256.001 411.826l-8.29-25.509h-26.82l21.7-15.765-8.29-25.507 21.7 15.764 21.699-15.764-8.289 25.507 21.699 15.765h-26.821l-8.288 25.509ZM366.187 366.186l-23.899-12.176-18.966 18.965 4.197-26.492-23.897-12.176 26.49-4.196 4.196-26.491 12.176 23.899 26.49-4.198-18.965 18.967 12.178 23.898ZM411.826 256l-25.509 8.289v26.821l-15.765-21.7-25.507 8.289L360.81 256l-15.765-21.699 25.508 8.289 15.764-21.7v26.822L411.826 256ZM366.187 145.814l-12.177 23.9 18.965 18.965-26.492-4.198-12.175 23.899-4.196-26.491-26.49-4.197 23.897-12.176-4.197-26.489 18.967 18.964 23.898-12.177Z" fill="#FFDA44"/></g><defs><clipPath id="baa"><path fill="#fff" d="M0 0h512v512H0z"/></clipPath></defs></symbol><symbol viewBox="0 0 24 24" fill="none" id="flower" xmlns="http://www.w3.org/2000/svg"><path fill="currentColor" d="M4 14c0 2.333 1.4 7 7 7 0-2.333-1.4-7-7-7zm3-6V4l2.5 2L12 3l2.5 3L17 4v4c0 1.667-1 5-5 5S7 9.667 7 8zm13 6c0 2.333-1.4 7-7 7 0-2.333 1.4-7 7-7z"/><path stroke="currentColor" stroke-linecap="round" stroke-linejoin="round" stroke-width="2" d="M11 21c-5.6 0-7-4.667-7-7 5.6 0 7 4.667 7 7zm0 0h1m0 0v-8m0 8h1m-1-8c-4 0-5-3.333-5-5V4l2.5 2L12 3l2.5 3L17 4v4c0 1.667-1 5-5 5zm1 8c5.6 0 7-4.667 7-7-5.6 0-7 4.667-7 7z"/></symbol><symbol viewBox="-26.2 -26.2 314.4 314.4" preserveAspectRatio="xMidYMid" id="google" xmlns="http://www.w3.org/2000/svg"><rect x="-26.2" y="-26.2" width="314.4" height="314.4" rx="157.2" fill="#fff" stroke-width="0"/><path d="M255.878 133.451c0-10.734-.871-18.567-2.756-26.69H130.55v48.448h71.947c-1.45 12.04-9.283 30.172-26.69 42.356l-.244 1.622 38.755 30.023 2.685.268c24.659-22.774 38.875-56.282 38.875-96.027" fill="#4285F4"/><path d="M130.55 261.1c35.248 0 64.839-11.605 86.453-31.622l-41.196-31.913c-11.024 7.688-25.82 13.055-45.257 13.055-34.523 0-63.824-22.773-74.269-54.25l-1.531.13-40.298 31.187-.527 1.465C35.393 231.798 79.49 261.1 130.55 261.1" fill="#34A853"/><path d="M56.281 156.37c-2.756-8.123-4.351-16.827-4.351-25.82 0-8.994 1.595-17.697 4.206-25.82l-.073-1.73L15.26 71.312l-1.335.635C5.077 89.644 0 109.517 0 130.55s5.077 40.905 13.925 58.602l42.356-32.782" fill="#FBBC05"/><path d="M130.55 50.479c24.514 0 41.05 10.589 50.479 19.438l36.844-35.974C195.245 12.91 165.798 0 130.55 0 79.49 0 35.393 29.301 13.925 71.947l42.211 32.783c10.59-31.477 39.891-54.251 74.414-54.251" fill="#EB4335"/></symbol><symbol viewBox="0 0 24 24" fill="none" id="heart" xmlns="http://www.w3.org/2000/svg"><path fill="currentColor" stroke="currentColor" stroke-linecap="round" stroke-linejoin="round" stroke-width="2" d="M17 4c-3.2 0-5 2.667-5 4 0-1.333-1.8-4-5-4S3 6.667 3 8c0 7 9 12 9 12s9-5 9-12c0-1.333-.8-4-4-4z"/></symbol><symbol viewBox="0 0 24 24" fill="none" id="home" xmlns="http://www.w3.org/2000/svg"><path fill="currentColor" stroke="currentColor" stroke-linecap="round" stroke-linejoin="round" stroke-width="2" d="M20 19v-8.5a1 1 0 0 0-.4-.8l-7-5.25a1 1 0 0 0-1.2 0l-7 5.25a1 1 0 0 0-.4.8V19a1 1 0 0 0 1 1h4a1 1 0 0 0 1-1v-3a1 1 0 0 1 1-1h2a1 1 0 0 1 1 1v3a1 1 0 0 0 1 1h4a1 1 0 0 0 1-1z"/></symbol><symbol viewBox="0 0 24 24" fill="none" id="info" xmlns="http://www.w3.org/2000/svg"><path fill="currentColor" fill-rule="evenodd" d="M12 2C6.477 2 2 6.477 2 12s4.477 10 10 10 10-4.477 10-10S17.523 2 12 2zm0 14a1 1 0 0 0 1-1v-3a1 1 0 1 0-2 0v3a1 1 0 0 0 1 1zm1-7a1 1 0 1 1-2 0 1 1 0 1 1 2 0z" clip-rule="evenodd"/></symbol><symbol viewBox="0 0 24 24" fill="none" id="internet" xmlns="http://www.w3.org/2000/svg"><path stroke="currentColor" stroke-linecap="round" stroke-linejoin="round" stroke-width="2" d="M20.5 9.035a9.004 9.004 0 0 0-17 0m17 0c.324.928.5 1.926.5 2.965a8.988 8.988 0 0 1-.5 2.966m0-5.931h-17m0 0A8.987 8.987 0 0 0 3 12a8.99 8.99 0 0 0 .5 2.966m0 0a9.004 9.004 0 0 0 17 0m-17 0h17"/><path stroke="currentColor" stroke-linecap="round" stroke-linejoin="round" stroke-width="2" d="M12 21c4.97-4.97 4.97-13.03 0-18-4.97 4.97-4.97 13.03 0 18z"/></symbol><symbol fill="none" viewBox="0 0 24 24" id="jar" xmlns="http://www.w3.org/2000/svg"><rect x="5" y="1" width="14" height="4" rx="2" fill="currentColor"/><path fill-rule="evenodd" clip-rule="evenodd" d="M11 3a7 7 0 0 0-7 7v6a7 7 0 0 0 7 7h2a7 7 0 0 0 7-7v-6a7 7 0 0 0-7-7h-2Zm1 4.167a6 6 0 1 1 0 12 6 6 0 0 1 0-12Zm0 1.125a4.875 4.875 0 1 0 0 9.75 4.875 4.875 0 0 0 0-9.75Zm0 9a4.125 4.125 0 1 1 0-8.25 4.125 4.125 0 0 1 0 8.25Zm.499-4.439a2.346 2.346 0 0 0-.226-.07c-.328-.094-.823-.235-.823-.514 0-.266.309-.343.493-.343.169 0 .37.053.477.16a.4.4 0 0 1 .117.177l.009.023c.024.07.047.136.143.136h.55c.128 0 .162-.023.162-.165 0-.608-.477-.951-1.02-1.07v-.472c0-.106-.034-.171-.163-.171h-.438c-.129 0-.162.065-.162.171v.455c-.584.112-1.071.478-1.071 1.14 0 .75.522.986 1.087 1.175.126.042.252.073.371.102.334.083.605.15.605.394 0 .33-.246.401-.55.401-.207 0-.436-.053-.549-.195a.414.414 0 0 1-.106-.242c-.011-.148-.073-.165-.202-.165h-.544c-.129 0-.163.03-.163.165 0 .673.539 1.081 1.122 1.211v.46c0 .107.033.172.162.172h.438c.129 0 .163-.065.163-.171v-.449c.661-.1 1.115-.502 1.115-1.21.001-.785-.566-.967-.97-1.095l-.027-.01Z" fill="currentColor"/></symbol><symbol viewBox="0 0 24 24" fill="none" id="lamp" xmlns="http://www.w3.org/2000/svg"><path fill="currentColor" d="M12 7a5 5 0 0 0-2 9.584V19h4v-2.416A5.001 5.001 0 0 0 12 7z"/><path stroke="currentColor" stroke-linecap="round" stroke-linejoin="round" stroke-width="2" d="M21 12h1m-3.5-6.5 1-1M12 3V2M5.5 5.5l-1-1M3 12H2m8 10h4m3-10a5 5 0 1 0-7 4.584V19h4v-2.416A5.001 5.001 0 0 0 17 12z"/></symbol><symbol viewBox="0 0 24 24" fill="none" id="laptop" xmlns="http://www.w3.org/2000/svg"><path fill="currentColor" fill-rule="evenodd" d="M3 6a3 3 0 0 1 3-3h12a3 3 0 0 1 3 3v7.764l1.447 2.894-.894.448.894-.448c.998 1.995-.453 4.342-2.683 4.342H4.236c-2.23 0-3.68-2.347-2.683-4.342L3 13.764V6zm3-1a1 1 0 0 0-1 1v5a1 1 0 0 0 1 1h12a1 1 0 0 0 1-1V6a1 1 0 0 0-1-1H6z" clip-rule="evenodd"/></symbol><symbol viewBox="0 0 24 24" fill="none" id="logout" xmlns="http://www.w3.org/2000/svg"><path fill="currentColor" fill-rule="evenodd" d="M6 2a3 3 0 0 0-3 3v14a3 3 0 0 0 3 3h6a3 3 0 0 0 3-3V5a3 3 0 0 0-3-3H6zm10.293 5.293a1 1 0 0 1 1.414 0l4 4a1 1 0 0 1 0 1.414l-4 4a1 1 0 0 1-1.414-1.414L18.586 13H10a1 1 0 1 1 0-2h8.586l-2.293-2.293a1 1 0 0 1 0-1.414z" clip-rule="evenodd"/></symbol><symbol clip-rule="evenodd" fill-rule="evenodd" stroke-linejoin="round" stroke-miterlimit="2" viewBox="0 0 24 24" id="menu" xmlns="http://www.w3.org/2000/svg"><path fill="currentColor" d="M12 16.495a2.25 2.25 0 1 1-.002 4.502A2.25 2.25 0 0 1 12 16.495zm0-6.75a2.25 2.25 0 1 1-.002 4.502A2.25 2.25 0 0 1 12 9.745zm0-6.75a2.25 2.25 0 1 1-.002 4.502A2.25 2.25 0 0 1 12 2.995z"/></symbol><symbol viewBox="0 0 24 24" fill="none" id="minus" xmlns="http://www.w3.org/2000/svg"><path stroke="currentColor" stroke-linecap="round" stroke-linejoin="round" stroke-width="2" d="M5 12h14"/></symbol><symbol viewBox="0 0 24 24" fill="none" id="pill" xmlns="http://www.w3.org/2000/svg"><path fill="currentColor" fill-rule="evenodd" d="M4.929 19.071a5 5 0 0 1 0-7.071l2.828-2.828 7.071 7.07L12 19.073a5 5 0 0 1-7.071 0zm11.314-4.243L19.07 12A5 5 0 0 0 12 4.929L9.172 7.757l7.07 7.071z" clip-rule="evenodd"/></symbol><symbol viewBox="0 0 24 24" fill="none" id="plus" xmlns="http://www.w3.org/2000/svg"><path stroke="currentColor" stroke-linecap="round" stroke-linejoin="round" stroke-width="2" d="M5 12h7m7 0h-7m0 0V5m0 7v7"/></symbol><symbol viewBox="0 0 24 24" fill="none" id="rest" xmlns="http://www.w3.org/2000/svg"><path fill="currentColor" d="M10 5.196c1.5-2.598 5.098-2.83 7.696-1.33s4.196 4.732 2.696 7.33l-3.464-2-1.732-1-1.732-1-3.464-2z"/><path stroke="currentColor" stroke-linecap="round" stroke-linejoin="round" stroke-width="2" d="M17.696 3.866C15.098 2.366 11.5 2.598 10 5.196l3.464 2m4.232-3.33c2.598 1.5 4.196 4.732 2.696 7.33l-5.196-3m2.5-4.33.5-.866m-.5.866c-1.821.488-2.982 1.165-4.232 3.33m4.232-3.33c.488 1.821.482 3.165-.768 5.33m-1.732-1-1.732-1m1.732 1-3 5.196M3 21l.88-1.056a2.001 2.001 0 0 1 3.139.08v0a2.001 2.001 0 0 0 3.107.118l.19-.218a2.236 2.236 0 0 1 3.367 0l.191.218c.838.957 2.344.9 3.107-.117v0a2.001 2.001 0 0 1 3.14-.08L21 21M6.708 16A7.97 7.97 0 0 1 12 14a7.97 7.97 0 0 1 5.292 2"/></symbol><symbol viewBox="0 0 24 24" fill="none" id="search-minus" xmlns="http://www.w3.org/2000/svg"><path fill="currentColor" fill-rule="evenodd" d="M3 11a8 8 0 1 1 14.32 4.906l3.387 3.387a1 1 0 0 1-1.414 1.414l-3.387-3.387A8 8 0 0 1 3 11zm5-1a1 1 0 1 0 0 2h6a1 1 0 1 0 0-2H8z" clip-rule="evenodd"/></symbol><symbol viewBox="0 0 24 24" fill="none" id="search-plus" xmlns="http://www.w3.org/2000/svg"><path fill="currentColor" fill-rule="evenodd" d="M3 11a8 8 0 1 1 14.32 4.906l3.387 3.387a1 1 0 0 1-1.414 1.414l-3.387-3.387A8 8 0 0 1 3 11zm9-3a1 1 0 1 0-2 0v2H8a1 1 0 1 0 0 2h2v2a1 1 0 1 0 2 0v-2h2a1 1 0 1 0 0-2h-2V8z" clip-rule="evenodd"/></symbol><symbol fill="none" viewBox="0 0 24 24" id="small-logo" xmlns="http://www.w3.org/2000/svg"><rect x="5" y="1" width="14" height="4" rx="2" fill="#fff"/><path fill-rule="evenodd" clip-rule="evenodd" d="M11 3a7 7 0 0 0-7 7v6a7 7 0 0 0 7 7h2a7 7 0 0 0 7-7v-6a7 7 0 0 0-7-7h-2Zm1 4.167a6 6 0 1 1 0 12 6 6 0 0 1 0-12Zm0 1.125a4.875 4.875 0 1 0 0 9.75 4.875 4.875 0 0 0 0-9.75Zm0 9a4.125 4.125 0 1 1 0-8.25 4.125 4.125 0 0 1 0 8.25Zm.499-4.439a2.346 2.346 0 0 0-.226-.07c-.328-.094-.823-.235-.823-.514 0-.266.309-.343.493-.343.169 0 .37.053.477.16a.4.4 0 0 1 .117.177l.009.023c.024.07.047.136.143.136h.55c.128 0 .162-.023.162-.165 0-.608-.477-.951-1.02-1.07v-.472c0-.106-.034-.171-.163-.171h-.438c-.129 0-.162.065-.162.171v.455c-.584.112-1.071.478-1.071 1.14 0 .75.522.986 1.087 1.175.126.042.252.073.371.102.334.083.605.15.605.394 0 .33-.246.401-.55.401-.207 0-.436-.053-.549-.195a.414.414 0 0 1-.106-.242c-.011-.148-.073-.165-.202-.165h-.544c-.129 0-.163.03-.163.165 0 .673.539 1.081 1.122 1.211v.46c0 .107.033.172.162.172h.438c.129 0 .163-.065.163-.171v-.449c.661-.1 1.115-.502 1.115-1.21.001-.785-.566-.967-.97-1.095l-.027-.01Z" fill="#fff"/></symbol><symbol viewBox="0 0 24 24" fill="none" id="statistics" xmlns="http://www.w3.org/2000/svg"><path fill="currentColor" fill-rule="evenodd" d="M3 6a3 3 0 0 1 3-3h12a3 3 0 0 1 3 3v12a3 3 0 0 1-3 3H6a3 3 0 0 1-3-3V6zm10 2a1 1 0 1 0-2 0v8a1 1 0 1 0 2 0V8zm-4 3a1 1 0 1 0-2 0v5a1 1 0 1 0 2 0v-5zm8 3a1 1 0 1 0-2 0v2a1 1 0 1 0 2 0v-2z" clip-rule="evenodd"/></symbol><symbol viewBox="0 0 24 24" fill="none" id="tv" xmlns="http://www.w3.org/2000/svg"><path fill="currentColor" d="M3 17V9a2 2 0 0 1 2-2h14a2 2 0 0 1 2 2v8a2 2 0 0 1-2 2H5a2 2 0 0 1-2-2z"/><path stroke="currentColor" stroke-linecap="round" stroke-linejoin="round" stroke-width="2" d="M12 7h7a2 2 0 0 1 2 2v8a2 2 0 0 1-2 2H5a2 2 0 0 1-2-2V9a2 2 0 0 1 2-2h7zm0 0L8 3m4 4 4-4"/></symbol><symbol fill="none" viewBox="0 0 512 512" id="uaFlag" xmlns="http://www.w3.org/2000/svg"><g clip-path="url(#bba)"><path d="M256 512c141.385 0 256-114.615 256-256S397.385 0 256 0 0 114.615 0 256s114.615 256 256 256Z" fill="#FFDA44"/><path d="M0 256C0 114.616 114.616 0 256 0c141.384 0 256 114.616 256 256" fill="#338AF3"/></g><defs><clipPath id="bba"><path fill="#fff" d="M0 0h512v512H0z"/></clipPath></defs></symbol><symbol fill="none" viewBox="0 0 512 512" id="ukFlag" xmlns="http://www.w3.org/2000/svg"><g clip-path="url(#bca)"><path d="M256 512c141.385 0 256-114.615 256-256S397.385 0 256 0 0 114.615 0 256s114.615 256 256 256Z" fill="#F0F0F0"/><path d="M52.92 100.142c-20.109 26.163-35.272 56.318-44.101 89.077h133.178L52.92 100.142ZM503.181 189.219c-8.829-32.758-23.993-62.913-44.101-89.076l-89.075 89.076h133.176ZM8.819 322.784c8.83 32.758 23.993 62.913 44.101 89.075l89.074-89.075H8.819ZM411.858 52.921C385.695 32.812 355.541 17.65 322.782 8.82v133.177l89.076-89.075ZM100.142 459.079c26.163 20.109 56.318 35.272 89.076 44.102V370.005l-89.076 89.074ZM189.217 8.82c-32.758 8.83-62.913 23.992-89.075 44.1l89.075 89.075V8.819ZM322.783 503.181c32.758-8.83 62.913-23.993 89.075-44.101l-89.075-89.075v133.176ZM370.005 322.784l89.075 89.076c20.108-26.162 35.272-56.318 44.101-89.076H370.005Z" fill="#0052B4"/><path d="M509.833 222.609H289.392V2.167A258.556 258.556 0 0 0 256 0c-11.319 0-22.461.744-33.391 2.167v220.441H2.167A258.556 258.556 0 0 0 0 256c0 11.319.744 22.461 2.167 33.391h220.441v220.442a258.35 258.35 0 0 0 66.783 0V289.392h220.442A258.533 258.533 0 0 0 512 256c0-11.317-.744-22.461-2.167-33.391Z" fill="#D80027"/><path d="M322.783 322.784 437.019 437.02a256.636 256.636 0 0 0 15.048-16.435l-97.802-97.802h-31.482v.001ZM189.217 322.784h-.002L74.98 437.019a256.636 256.636 0 0 0 16.435 15.048l97.802-97.804v-31.479ZM189.217 189.219v-.002L74.981 74.98a256.636 256.636 0 0 0-15.048 16.435l97.803 97.803h31.481v.001ZM322.783 189.219 437.02 74.981a256.328 256.328 0 0 0-16.435-15.047l-97.802 97.803v31.482Z" fill="#D80027"/></g><defs><clipPath id="bca"><path fill="#fff" d="M0 0h512v512H0z"/></clipPath></defs></symbol><symbol fill="none" viewBox="0 0 512 512" id="usFlag" xmlns="http://www.w3.org/2000/svg"><g clip-path="url(#bda)"><path d="M256 511.999c141.385 0 256-114.615 256-256s-114.615-256-256-256-256 114.615-256 256 114.615 256 256 256Z" fill="#F0F0F0"/><path d="M244.87 255.999H512c0-23.106-3.08-45.49-8.819-66.783H244.87v66.783ZM244.87 122.434h229.556a257.349 257.349 0 0 0-59.07-66.783H244.87v66.783ZM256 511.999c60.249 0 115.626-20.824 159.356-55.652H96.644c43.73 34.828 99.107 55.652 159.356 55.652ZM37.574 389.564h436.852a254.474 254.474 0 0 0 28.755-66.783H8.819a254.472 254.472 0 0 0 28.755 66.783Z" fill="#D80027"/><path d="M118.584 39.977h23.329l-21.7 15.765 8.289 25.509-21.699-15.765-21.699 15.765 7.16-22.037a257.407 257.407 0 0 0-49.652 55.337h7.475l-13.813 10.035a255.58 255.58 0 0 0-6.194 10.938l6.596 20.301-12.306-8.941a253.567 253.567 0 0 0-8.372 19.873l7.267 22.368h26.822l-21.7 15.765 8.289 25.509-21.699-15.765-12.998 9.444A258.468 258.468 0 0 0 0 255.999h256v-256c-50.572 0-97.715 14.67-137.416 39.978Zm9.918 190.422-21.699-15.765-21.699 15.765 8.289-25.509-21.7-15.765h26.822l8.288-25.509 8.288 25.509h26.822l-21.7 15.765 8.289 25.509Zm-8.289-100.083 8.289 25.509-21.699-15.765-21.699 15.765 8.289-25.509-21.7-15.765h26.822l8.288-25.509 8.288 25.509h26.822l-21.7 15.765Zm100.115 100.083-21.699-15.765-21.699 15.765 8.289-25.509-21.7-15.765h26.822l8.288-25.509 8.288 25.509h26.822l-21.7 15.765 8.289 25.509Zm-8.289-100.083 8.289 25.509-21.699-15.765-21.699 15.765 8.289-25.509-21.7-15.765h26.822l8.288-25.509 8.288 25.509h26.822l-21.7 15.765Zm0-74.574 8.289 25.509-21.699-15.765-21.699 15.765 8.289-25.509-21.7-15.765h26.822l8.288-25.509 8.288 25.509h26.822l-21.7 15.765Z" fill="#0052B4"/></g><defs><clipPath id="bda"><path fill="#fff" transform="translate(0 -.001)" d="M0 0h512v512H0z"/></clipPath></defs></symbol><symbol viewBox="0 0 24 24" fill="none" id="work" xmlns="http://www.w3.org/2000/svg"><path fill="currentColor" fill-rule="evenodd" d="M8 6a3 3 0 0 1 3-3h2a3 3 0 0 1 3 3v1h3a3 3 0 0 1 3 3v2h-7v-1a1 1 0 0 0-1-1h-4a1 1 0 0 0-1 1v1H2v-2a3 3 0 0 1 3-3h3V6zm-6 8v4a3 3 0 0 0 3 3h14a3 3 0 0 0 3-3v-4h-7v1a1 1 0 0 1-1 1h-4a1 1 0 0 1-1-1v-1H2zm8-7h4V6a1 1 0 0 0-1-1h-2a1 1 0 0 0-1 1v1zm3 7h-2v-2h2v2z" clip-rule="evenodd"/></symbol></svg>