<?xml version="1.0" encoding="utf-8"?><!DOCTYPE svg PUBLIC "-//W3C//DTD SVG 1.1//EN" "http://www.w3.org/Graphics/SVG/1.1/DTD/svg11.dtd"><svg xmlns="http://www.w3.org/2000/svg" xmlns:xlink="http://www.w3.org/1999/xlink"><defs><svg fill="none" viewBox="0 0 24 24" id="alert-triangle" xmlns="http://www.w3.org/2000/svg"><path fill="currentColor" fill-rule="evenodd" clip-rule="evenodd" d="M10.252 3.088c.762-1.372 2.735-1.372 3.497 0l8.3 14.94C22.79 19.363 21.826 21 20.301 21h-16.6c-1.526 0-2.49-1.638-1.75-2.971l8.301-14.941ZM12.001 8a1 1 0 0 1 1 1v5a1 1 0 1 1-2 0V9a1 1 0 0 1 1-1Zm0 8a1 1 0 0 1 1 1v.01a1 1 0 1 1-2 0V17a1 1 0 0 1 1-1Z"/></svg><svg fill="none" viewBox="0 0 622 80" id="app-logo" xmlns="http://www.w3.org/2000/svg"><path d="M104.288 65a8.615 8.615 0 0 1-4.48-1.216 9.564 9.564 0 0 1-3.2-3.2 8.615 8.615 0 0 1-1.216-4.48v-3.52h8.448v3.136c0 .213.064.405.192.576a.937.937 0 0 0 .576.192h27.584a.692.692 0 0 0 .512-.192.795.795 0 0 0 .256-.576v-8.768a.607.607 0 0 0-.256-.512.692.692 0 0 0-.512-.192h-27.904a8.615 8.615 0 0 1-4.48-1.216 9.564 9.564 0 0 1-3.2-3.2c-.81-1.365-1.216-2.88-1.216-4.544v-9.472c0-1.621.405-3.093 1.216-4.416a9.38 9.38 0 0 1 3.2-3.264 8.615 8.615 0 0 1 4.48-1.216h28.288c1.621 0 3.093.405 4.416 1.216a9.207 9.207 0 0 1 3.264 3.264c.811 1.323 1.216 2.795 1.216 4.416v3.52h-8.512V28.2a.607.607 0 0 0-.256-.512.609.609 0 0 0-.512-.256h-27.584a.797.797 0 0 0-.576.256.692.692 0 0 0-.192.512v8.768c0 .213.064.384.192.512a.937.937 0 0 0 .576.192h27.968c1.621 0 3.093.405 4.416 1.216a9.207 9.207 0 0 1 3.264 3.264c.811 1.323 1.216 2.816 1.216 4.48v9.472a8.612 8.612 0 0 1-1.216 4.48 9.385 9.385 0 0 1-3.264 3.2c-1.323.81-2.795 1.216-4.416 1.216h-28.288Zm44.043 0V27.88h46.016c1.664 0 3.157.405 4.48 1.216a9.007 9.007 0 0 1 3.136 3.2c.811 1.323 1.216 2.795 1.216 4.416V65h-8.32V37.032a.607.607 0 0 0-.256-.512.797.797 0 0 0-.576-.256h-13.248a.797.797 0 0 0-.576.256.692.692 0 0 0-.192.512V65h-8.448V37.032a.607.607 0 0 0-.256-.512.609.609 0 0 0-.512-.256h-13.312a.797.797 0 0 0-.576.256.692.692 0 0 0-.192.512V65h-8.384Zm69.892 0a8.613 8.613 0 0 1-4.48-1.216 9.555 9.555 0 0 1-3.2-3.2c-.768-1.323-1.152-2.795-1.152-4.416V42.216h29.312v-5.184a.61.61 0 0 0-.256-.512.609.609 0 0 0-.512-.256h-28.544V27.88h28.864c1.621 0 3.093.405 4.416 1.216 1.365.81 2.432 1.877 3.2 3.2.81 1.323 1.216 2.795 1.216 4.416V65h-28.864Zm.32-8.384h20.16v-6.848h-20.928v6.08c0 .213.064.405.192.576.17.128.362.192.576.192ZM252.516 65V36.712c0-1.621.405-3.093 1.216-4.416a9.555 9.555 0 0 1 3.2-3.2 8.498 8.498 0 0 1 4.416-1.216h20.608v8.384h-20.288a.794.794 0 0 0-.576.256.692.692 0 0 0-.192.512V65h-8.384Zm42.333 0c-1.621 0-3.093-.405-4.416-1.216a9.564 9.564 0 0 1-3.2-3.2c-.811-1.323-1.216-2.795-1.216-4.416v-39.68h8.384V27.88h14.464v8.384h-14.464v19.584c0 .213.064.405.192.576a.937.937 0 0 0 .576.192h13.696V65h-14.016Zm19.551 0V18.92h42.432v8.512h-33.92v10.24h27.264v8.576h-27.264v10.24h33.92V65H314.4Zm48.232 0v-2.24l13.632-16.64-13.632-16v-2.24h9.088l9.984 11.776 9.984-11.776h9.088v2.24l-13.632 16 13.632 16.64V65h-9.024l-10.048-12.288L371.72 65h-9.088Zm44.824 14.72V27.88h28.864c1.621 0 3.093.405 4.416 1.216 1.365.81 2.432 1.877 3.2 3.2.811 1.323 1.216 2.795 1.216 4.416v19.456c0 1.621-.405 3.093-1.216 4.416-.768 1.323-1.835 2.39-3.2 3.2-1.323.81-2.795 1.216-4.416 1.216h-20.48v14.72h-8.384Zm9.152-23.104H436a.692.692 0 0 0 .512-.192.795.795 0 0 0 .256-.576V37.032a.607.607 0 0 0-.256-.512.609.609 0 0 0-.512-.256h-19.392a.797.797 0 0 0-.576.256.692.692 0 0 0-.192.512v18.816c0 .213.064.405.192.576a.937.937 0 0 0 .576.192ZM458.596 65c-1.621 0-3.093-.405-4.416-1.216a9.564 9.564 0 0 1-3.2-3.2c-.811-1.323-1.216-2.795-1.216-4.416V36.712c0-1.621.405-3.093 1.216-4.416a9.564 9.564 0 0 1 3.2-3.2c1.323-.81 2.795-1.216 4.416-1.216h20.032c1.621 0 3.093.405 4.416 1.216 1.365.81 2.432 1.877 3.2 3.2.811 1.323 1.216 2.795 1.216 4.416v13.952h-29.312v5.184c0 .213.064.405.192.576a.937.937 0 0 0 .576.192h28.544V65h-28.864Zm-.448-21.888h20.928v-6.08a.607.607 0 0 0-.256-.512.609.609 0 0 0-.512-.256h-19.392a.797.797 0 0 0-.576.256.692.692 0 0 0-.192.512v6.08ZM494.269 65V27.88h28.863c1.622 0 3.094.405 4.417 1.216 1.365.81 2.432 1.877 3.2 3.2.81 1.323 1.216 2.795 1.216 4.416V65h-8.384V37.032a.61.61 0 0 0-.256-.512.61.61 0 0 0-.513-.256h-19.391a.794.794 0 0 0-.576.256.692.692 0 0 0-.192.512V65h-8.384Zm52.135 0c-1.621 0-3.093-.405-4.416-1.216a9.564 9.564 0 0 1-3.2-3.2c-.811-1.323-1.216-2.795-1.216-4.416V54.76h8.384v1.088c0 .213.064.405.192.576a.937.937 0 0 0 .576.192h19.392a.692.692 0 0 0 .512-.192.795.795 0 0 0 .256-.576v-4.416a.607.607 0 0 0-.256-.512.609.609 0 0 0-.512-.256h-19.712c-1.621 0-3.093-.405-4.416-1.216a9.564 9.564 0 0 1-3.2-3.2c-.811-1.323-1.216-2.795-1.216-4.416v-5.12c0-1.621.405-3.093 1.216-4.416a9.564 9.564 0 0 1 3.2-3.2c1.323-.81 2.795-1.216 4.416-1.216h20.032c1.664 0 3.157.405 4.48 1.216a9.564 9.564 0 0 1 3.2 3.2c.811 1.323 1.216 2.795 1.216 4.416v1.408h-8.448v-1.088a.607.607 0 0 0-.256-.512.609.609 0 0 0-.512-.256h-19.392a.797.797 0 0 0-.576.256.692.692 0 0 0-.192.512v4.416c0 .213.064.405.192.576a.937.937 0 0 0 .576.192h19.712c1.664 0 3.157.405 4.48 1.216a9.564 9.564 0 0 1 3.2 3.2c.811 1.323 1.216 2.795 1.216 4.416v5.12c0 1.621-.405 3.093-1.216 4.416a9.564 9.564 0 0 1-3.2 3.2c-1.323.81-2.816 1.216-4.48 1.216h-20.032Zm42.88 0c-1.622 0-3.094-.405-4.416-1.216a9.555 9.555 0 0 1-3.2-3.2c-.811-1.323-1.216-2.795-1.216-4.416V36.712c0-1.621.405-3.093 1.216-4.416a9.555 9.555 0 0 1 3.2-3.2c1.322-.81 2.794-1.216 4.416-1.216h20.032c1.621 0 3.093.405 4.416 1.216 1.365.81 2.432 1.877 3.2 3.2.81 1.323 1.216 2.795 1.216 4.416v13.952h-29.312v5.184c0 .213.064.405.192.576.17.128.362.192.576.192h28.544V65h-28.864Zm-.448-21.888h20.928v-6.08a.608.608 0 0 0-.257-.512.606.606 0 0 0-.511-.256h-19.392a.794.794 0 0 0-.576.256.692.692 0 0 0-.192.512v6.08Z" fill="#E4FCF7"/><g clip-path="url(#aba)"><path fill-rule="evenodd" clip-rule="evenodd" d="M40.755 27.17c.833 0 1.51.676 1.51 1.51v3.018h6.037a1.51 1.51 0 0 1 0 3.019h-11.32a2.264 2.264 0 1 0 0 4.528h7.546a5.283 5.283 0 0 1 0 10.566h-2.264v3.02a1.51 1.51 0 0 1-3.019 0v-3.02h-6.037a1.51 1.51 0 0 1 0-3.019h11.32a2.264 2.264 0 0 0 0-4.528h-7.547a5.283 5.283 0 1 1 0-10.566h2.264V28.68c0-.833.676-1.51 1.51-1.51Z" fill="#24B563"/><path d="M35.948 65.07v12.328c0 1.627-1.455 2.825-2.996 2.568C14.208 76.542 0 60.103 0 40.326c0-8.39 2.568-16.096 6.933-22.602.941-1.37 2.824-1.542 3.937-.429l8.73 8.733c.856.856.942 2.055.428 3.082-1.797 3.34-2.824 7.107-2.824 11.13 0 10.617 7.104 19.52 16.861 22.26a2.672 2.672 0 0 1 1.883 2.57Z" fill="#E4FCF7"/><path d="M65.049 35.788c-1.113 0-2.14-.77-2.482-1.883-2.74-9.675-11.64-16.695-22.254-16.695-4.108 0-7.96 1.027-11.298 2.91-1.027.6-2.31.429-3.081-.427l-8.73-8.733c-1.113-1.113-.942-2.997.428-3.939C24.05 2.57 31.925.001 40.399.001c19.685 0 36.033 14.041 39.543 32.705.342 1.627-.856 3.082-2.483 3.082H65.05Z" fill="#FEC" fill-opacity=".925"/><path d="M79.941 47.689c-2.995 16.267-15.834 29.11-32.01 32.192-1.54.256-2.996-.942-2.996-2.569V64.983c0-1.113.77-2.14 1.883-2.483 7.617-2.225 13.695-8.304 15.834-15.924.343-1.113 1.284-1.884 2.482-1.884H77.46c1.541 0 2.74 1.456 2.482 2.997Z" fill="#E2F5FD"/></g><defs><clipPath id="aba"><path fill="#fff" d="M0 0h80v80H0z"/></clipPath></defs></svg><svg viewBox="0 0 24 24" id="arrow-down" xmlns="http://www.w3.org/2000/svg"><path fill="currentColor" d="m13.3 20.442 5.25-5.625c.646-.693.59-1.76-.13-2.384a1.795 1.795 0 0 0-2.472.126l-2.199 2.355V4.688C13.75 3.755 12.967 3 12 3c-.967 0-1.75.755-1.75 1.688v10.228l-2.198-2.358a1.795 1.795 0 0 0-2.471-.126 1.646 1.646 0 0 0-.13 2.384l5.248 5.625c.33.355.805.559 1.3.559.496 0 .97-.204 1.301-.558Z"/></svg><svg viewBox="0 0 24 24" fill="none" id="arrow-left" xmlns="http://www.w3.org/2000/svg"><path stroke="currentColor" stroke-linecap="round" stroke-linejoin="round" stroke-width="2" d="m5 12 6-6m-6 6 6 6m-6-6h14"/></svg><svg viewBox="0 0 24 24" fill="none" id="arrow-right" xmlns="http://www.w3.org/2000/svg"><path stroke="currentColor" stroke-linecap="round" stroke-linejoin="round" stroke-width="2" d="m19 12-6-6m6 6-6 6m6-6H5"/></svg><svg viewBox="0 0 24 24" id="arrow-up" xmlns="http://www.w3.org/2000/svg"><path fill="currentColor" d="M10.7 3.558 5.45 9.183c-.646.693-.59 1.76.13 2.384a1.795 1.795 0 0 0 2.471-.126l2.2-2.355v10.226c0 .933.782 1.688 1.75 1.688.967 0 1.75-.755 1.75-1.688V9.085l2.198 2.358c.648.693 1.754.75 2.471.126a1.645 1.645 0 0 0 .13-2.384L13.303 3.56a1.78 1.78 0 0 0-1.3-.559c-.496 0-.97.204-1.301.558Z"/></svg><svg viewBox="0 0 24 24" fill="none" id="basket" xmlns="http://www.w3.org/2000/svg"><path fill="currentColor" fill-rule="evenodd" d="M9.612 6.084C9.16 6.711 9 7.494 9 8v1h6V8c0-.507-.16-1.289-.611-1.916C13.974 5.508 13.274 5 12 5c-1.274 0-1.974.508-2.388 1.084zM17 9V8c0-.827-.24-2.044-.988-3.084C15.226 3.825 13.926 3 12 3c-1.926 0-3.226.825-4.012 1.916C7.24 5.956 7 7.173 7 8v1H3a1 1 0 0 0 0 2h.095l.91 9.1A1 1 0 0 0 5 21h14a1 1 0 0 0 .995-.9l.91-9.1H21a1 1 0 1 0 0-2h-4zm-8 5a1 1 0 1 0-2 0v2a1 1 0 1 0 2 0v-2zm4 0a1 1 0 1 0-2 0v2a1 1 0 1 0 2 0v-2zm4 0a1 1 0 1 0-2 0v2a1 1 0 1 0 2 0v-2z" clip-rule="evenodd"/></svg><svg viewBox="0 0 24 24" fill="none" id="bath" xmlns="http://www.w3.org/2000/svg"><path fill="currentColor" d="M20 14v-2H4v2c0 1.138.583 3.248 2.745 3.841.37.102.787.159 1.255.159h8a4.71 4.71 0 0 0 1.255-.159C19.417 17.248 20 15.138 20 14z"/><path stroke="currentColor" stroke-linecap="round" stroke-linejoin="round" stroke-width="2" d="M3 12h1m16 0v0a1 1 0 0 0 1-1V7c0-1-.6-3-3-3s-3 2-3 3m5 5v2c0 1.138-.583 3.248-2.745 3.841M20 12H4m0 0v2c0 1.138.583 3.248 2.745 3.841M6 20l.745-2.159m0 0c.37.102.787.159 1.255.159h8a4.71 4.71 0 0 0 1.255-.159M18 20l-.745-2.159M15 7h-2m2 0h2"/></svg><svg viewBox="0 0 24 24" fill="none" id="bus" xmlns="http://www.w3.org/2000/svg"><path stroke="currentColor" stroke-linecap="round" stroke-linejoin="round" stroke-width="2" d="M6 19v0a2 2 0 0 1-2-2v-4m2 6v1.5a.5.5 0 0 0 .5.5v0a.5.5 0 0 0 .5-.5V19m-1 0h1m11 0v0a2 2 0 0 0 2-2v-4m-2 6v1.5a.5.5 0 0 1-.5.5v0a.5.5 0 0 1-.5-.5V19m1 0h-1M4 13V7m0 6h8m8 0V7m0 6h-8m-5 6h10M4 7V5a2 2 0 0 1 2-2h12a2 2 0 0 1 2 2v2M4 7h8m8 0h-8m0 0v6"/><path fill="currentColor" fill-rule="evenodd" d="M4 13h16v6H4v-6zm3 3a1 1 0 0 1 1-1h.001a1 1 0 1 1 0 2H8a1 1 0 0 1-1-1zm9-1a1 1 0 1 0 0 2h.001a1 1 0 1 0 0-2H16z" clip-rule="evenodd"/><path fill="currentColor" d="M4 5a2 2 0 0 1 2-2h12a2 2 0 0 1 2 2v2H4V5z"/></svg><svg viewBox="0 0 24 24" fill="none" id="cake" xmlns="http://www.w3.org/2000/svg"><path stroke="currentColor" stroke-linecap="round" stroke-linejoin="round" stroke-width="2" d="M12 3h.01M7 3h.01M17 3h.01"/><path fill="currentColor" fill-rule="evenodd" d="M7 5a1 1 0 0 1 1 1v2h3V6a1 1 0 1 1 2 0v2h3V6a1 1 0 1 1 2 0v2.1a5.005 5.005 0 0 1 3.937 4.102c-.4.155-.75.383-1.047.63-.532.44-.966.994-1.302 1.46-.265.367-.714.708-1.588.708-.874 0-1.324-.342-1.588-.71A2.355 2.355 0 0 1 16 13a1 1 0 1 0-2 0c0 .34-.11.872-.412 1.29-.264.368-.714.71-1.588.71-.874 0-1.324-.342-1.588-.71A2.355 2.355 0 0 1 10 13a1 1 0 1 0-2 0c0 .34-.11.872-.412 1.29-.264.368-.714.71-1.588.71-.874 0-1.323-.341-1.588-.709-.336-.465-.77-1.019-1.302-1.46a3.822 3.822 0 0 0-1.047-.629A5.005 5.005 0 0 1 6 8.1V6a1 1 0 0 1 1-1zm-5 9.52V19a3 3 0 0 0 3 3h14a3 3 0 0 0 3-3v-4.48c-.27.256-.532.583-.79.94-.635.883-1.685 1.54-3.21 1.54-1.367 0-2.353-.529-3-1.273-.647.744-1.633 1.273-3 1.273s-2.353-.529-3-1.273C8.353 16.47 7.367 17 6 17c-1.525 0-2.575-.657-3.21-1.54a6.756 6.756 0 0 0-.79-.94z" clip-rule="evenodd"/></svg><svg fill="none" viewBox="0 0 24 24" id="calendar-dot-grid" xmlns="http://www.w3.org/2000/svg"><path d="M9 3a1 1 0 0 0-2 0v1H6a3 3 0 0 0-3 3v1h18V7a3 3 0 0 0-3-3h-1V3a1 1 0 1 0-2 0v1H9V3Z" fill="currentColor"/><path fill-rule="evenodd" clip-rule="evenodd" d="M3 19v-9h18v9a3 3 0 0 1-3 3H6a3 3 0 0 1-3-3Zm5-7a1 1 0 1 0 0 2h.01a1 1 0 1 0 0-2H8Zm4 0a1 1 0 1 0 0 2h.01a1 1 0 1 0 0-2H12Zm4 0a1 1 0 1 0 0 2h.01a1 1 0 1 0 0-2H16Zm-8 4a1 1 0 1 0 0 2h.01a1 1 0 1 0 0-2H8Zm4 0a1 1 0 1 0 0 2h.01a1 1 0 1 0 0-2H12Zm4 0a1 1 0 1 0 0 2h.01a1 1 0 1 0 0-2H16Z" fill="currentColor"/></svg><svg viewBox="0 0 24 24" fill="none" id="car" xmlns="http://www.w3.org/2000/svg"><path stroke="currentColor" stroke-linecap="round" stroke-linejoin="round" stroke-width="2" d="m3 11 2.48-5.788A2 2 0 0 1 7.32 4h9.362a2 2 0 0 1 1.838 1.212L21 11M3 11h18M3 11v7m18-7v7m-3 0v.5a1.5 1.5 0 0 0 1.5 1.5v0a1.5 1.5 0 0 0 1.5-1.5V18m-3 0H6m12 0h3M6 18v.5A1.5 1.5 0 0 1 4.5 20v0A1.5 1.5 0 0 1 3 18.5V18m3 0H3"/><path fill="currentColor" fill-rule="evenodd" d="M3 11h18v7H3v-7zm3 3a1 1 0 0 1 1-1h.001a1 1 0 1 1 0 2H7a1 1 0 0 1-1-1zm11-1a1 1 0 1 0 0 2h.001a1 1 0 1 0 0-2H17z" clip-rule="evenodd"/></svg><svg fill="none" viewBox="0 0 24 24" id="card-dollar" xmlns="http://www.w3.org/2000/svg"><path d="M2 7a3 3 0 0 1 3-3h14a3 3 0 0 1 3 3v1H2V7ZM18 10h4v1.17c-.313-.11-.65-.17-1-.17h-.764c-.55-.614-1.348-1-2.236-1ZM12.96 12.72a4.498 4.498 0 0 1 2.743-1.65A2.994 2.994 0 0 1 18 10H2v7a3 3 0 0 0 3 3h7c0-.767.287-1.466.76-1.996A4.48 4.48 0 0 1 12 15.5c0-.54.095-1.057.27-1.537A1 1 0 0 1 12 14H7a1 1 0 1 1 0-2h5a1 1 0 0 1 .96.72Z" fill="currentColor"/><path fill-rule="evenodd" clip-rule="evenodd" d="M18 12a1 1 0 0 1 1 1h2a1 1 0 1 1 0 2h-4.5a.5.5 0 0 0 0 1h3a2.5 2.5 0 0 1 0 5H19a1 1 0 1 1-2 0h-2a1 1 0 1 1 0-2h4.5a.5.5 0 0 0 0-1h-3a2.5 2.5 0 0 1 0-5h.5a1 1 0 0 1 1-1Z" fill="currentColor"/></svg><svg fill="none" viewBox="0 0 24 24" id="card-euro" xmlns="http://www.w3.org/2000/svg"><path d="M2 7a3 3 0 0 1 3-3h14a3 3 0 0 1 3 3v1H2V7ZM15.733 10H2v7a3 3 0 0 0 3 3h6.421A2.987 2.987 0 0 1 11 18.466c0-.547.146-1.059.401-1.5a2.986 2.986 0 0 1-.401-1.5c0-.532.139-1.032.382-1.466H7a1 1 0 1 1 0-2h5a1 1 0 0 1 .94.658c.06-.022.12-.043.182-.062A7.246 7.246 0 0 1 15.733 10Z" fill="currentColor"/><path fill-rule="evenodd" clip-rule="evenodd" d="M14.434 14.466H14a1 1 0 1 0 0 2h.015a8.19 8.19 0 0 0 0 1H14a1 1 0 1 0 0 2h.434c.675 1.76 2.053 2.84 3.545 3.261 1.646.464 3.53.144 4.728-1.054a1 1 0 0 0-1.414-1.414c-.583.583-1.67.854-2.771.543a3.27 3.27 0 0 1-1.851-1.336H19a1 1 0 1 0 0-2h-2.98a6.063 6.063 0 0 1 0-1H19a1 1 0 1 0 0-2h-2.33a3.269 3.269 0 0 1 1.852-1.337c1.101-.31 2.188-.04 2.77.544a1 1 0 0 0 1.415-1.414c-1.198-1.198-3.082-1.519-4.728-1.055-1.492.421-2.87 1.501-3.545 3.262Z" fill="currentColor"/></svg><svg fill="none" viewBox="0 0 24 24" id="check" xmlns="http://www.w3.org/2000/svg"><path fill-rule="evenodd" clip-rule="evenodd" d="M20.707 5.293a1 1 0 0 1 0 1.414l-11 11a1 1 0 0 1-1.414 0l-4-4a1 1 0 1 1 1.414-1.414L9 15.586 19.293 5.293a1 1 0 0 1 1.414 0Z" fill="currentColor"/></svg><svg fill="none" viewBox="0 0 24 24" id="checkbox-list" xmlns="http://www.w3.org/2000/svg"><path fill-rule="evenodd" clip-rule="evenodd" d="M2 4a2 2 0 0 1 2-2h2a2 2 0 0 1 2 2v2a2 2 0 0 1-2 2H4a2 2 0 0 1-2-2V4Zm8 1a1 1 0 0 1 1-1h10a1 1 0 1 1 0 2H11a1 1 0 0 1-1-1Zm-8 6a2 2 0 0 1 2-2h2a2 2 0 0 1 2 2v2a2 2 0 0 1-2 2H4a2 2 0 0 1-2-2v-2Zm8 1a1 1 0 0 1 1-1h10a1 1 0 1 1 0 2H11a1 1 0 0 1-1-1Zm-8 6a2 2 0 0 1 2-2h2a2 2 0 0 1 2 2v2a2 2 0 0 1-2 2H4a2 2 0 0 1-2-2v-2Zm8 1a1 1 0 0 1 1-1h10a1 1 0 1 1 0 2H11a1 1 0 0 1-1-1Z" fill="currentColor"/></svg><svg fill="none" viewBox="0 0 24 24" id="chevron" xmlns="http://www.w3.org/2000/svg"><path fill-rule="evenodd" clip-rule="evenodd" d="M6.076 9.617A1 1 0 0 1 7 9h10a1 1 0 0 1 .707 1.707l-5 5a1 1 0 0 1-1.414 0l-5-5a1 1 0 0 1-.217-1.09Z" fill="currentColor"/></svg><svg viewBox="0 0 24 24" fill="none" id="close" xmlns="http://www.w3.org/2000/svg"><path stroke="currentColor" stroke-linecap="round" stroke-linejoin="round" stroke-width="2" d="M12 12 7 7m5 5 5 5m-5-5 5-5m-5 5-5 5"/></svg><svg viewBox="0 0 24 24" fill="none" id="clothes" xmlns="http://www.w3.org/2000/svg"><path fill="currentColor" stroke="currentColor" stroke-linecap="round" stroke-linejoin="round" stroke-width="2" d="M3 10V5a1 1 0 0 1 1-1h4c0 1 .8 3 4 3s4-2 4-3h4a1 1 0 0 1 1 1v5a1 1 0 0 1-1 1h-1a1 1 0 0 0-1 1v7a1 1 0 0 1-1 1H7a1 1 0 0 1-1-1v-7a1 1 0 0 0-1-1H4a1 1 0 0 1-1-1z"/></svg><svg fill="none" viewBox="0 0 24 24" id="creditcard" xmlns="http://www.w3.org/2000/svg"><path d="M5 4a3 3 0 0 0-3 3v1h20V7a3 3 0 0 0-3-3H5Z" fill="currentColor"/><path fill-rule="evenodd" clip-rule="evenodd" d="M22 10H2v7a3 3 0 0 0 3 3h14a3 3 0 0 0 3-3v-7ZM7 12a1 1 0 1 0 0 2h5a1 1 0 1 0 0-2H7Z" fill="currentColor"/></svg><svg fill="none" viewBox="0 0 24 24" id="creditcard-folder" xmlns="http://www.w3.org/2000/svg"><path d="M2 7a3 3 0 0 1 3-3h14a3 3 0 0 1 3 3v1H2V7ZM2 10h20v3.416A4.983 4.983 0 0 0 20 13h-1.215a4.81 4.81 0 0 0-3.903-2H14a4.978 4.978 0 0 0-3 1H7a1 1 0 1 0 0 2h2.416A4.983 4.983 0 0 0 9 16v4H5a3 3 0 0 1-3-3v-7Z" fill="currentColor"/><path fill-rule="evenodd" clip-rule="evenodd" d="M11 16a3 3 0 0 1 3-3h.882c1.064 0 2.037.601 2.512 1.553a.81.81 0 0 0 .724.447H20a3 3 0 0 1 3 3v2a3 3 0 0 1-3 3h-6a3 3 0 0 1-3-3v-4Z" fill="currentColor"/></svg><svg fill="currentColor" viewBox="0 0 24 24" id="currency-change" xmlns="http://www.w3.org/2000/svg"><g clip-path="url(#ama)"><path fill-rule="evenodd" clip-rule="evenodd" d="M12 4a8 8 0 0 0-7.169 4.445 1 1 0 1 1-1.791-.89A10 10 0 0 1 12 2c4.478 0 8.268 2.943 9.542 7H23a1 1 0 0 1 .707 1.707l-2 2a1 1 0 0 1-1.414 0l-2-2A1 1 0 0 1 19 9h.419A8.003 8.003 0 0 0 12 4Zm-.834 2.588A3.233 3.233 0 0 1 13 6c.493 0 1.211.14 1.834.588C15.51 7.074 16 7.874 16 9a1 1 0 1 1-2 0c0-.474-.175-.674-.334-.788A1.238 1.238 0 0 0 13 8c-.173 0-.456.06-.666.212-.159.114-.334.314-.334.788v2h1a1 1 0 1 1 0 2h-1v1c0 .28-.045.633-.166 1H15a1 1 0 1 1 0 2H9a1 1 0 1 1 0-2c.474 0 .674-.175.789-.334.15-.21.211-.493.211-.666v-1H9a1 1 0 1 1 0-2h1V9c0-1.126.492-1.926 1.166-2.412Zm-8.873 4.705a1 1 0 0 1 1.414 0l2 2A1 1 0 0 1 5 15h-.418a8.003 8.003 0 0 0 14.587.555 1 1 0 1 1 1.791.89A10 10 0 0 1 12 22c-4.478 0-8.268-2.943-9.542-7H1a1 1 0 0 1-.707-1.707l2-2Z"/></g><defs><clipPath id="ama"><path fill="#fff" d="M0 0h24v24H0z"/></clipPath></defs></svg><svg viewBox="0 0 24 24" fill="none" id="delete-bin" xmlns="http://www.w3.org/2000/svg"><path fill="currentColor" d="M9 7h9v11a2 2 0 0 1-2 2H8a2 2 0 0 1-2-2V7h3z"/><path stroke="currentColor" stroke-linecap="round" stroke-linejoin="round" stroke-width="2" d="M20 7h-2M4 7h2m0 0h12M6 7v11a2 2 0 0 0 2 2h8a2 2 0 0 0 2-2V7m-9-.5v0A2.5 2.5 0 0 1 11.5 4h1A2.5 2.5 0 0 1 15 6.5v0"/></svg><svg fill="none" viewBox="0 0 24 24" id="drag-handle" xmlns="http://www.w3.org/2000/svg"><path d="M5 10h14M5 14h14" stroke="currentColor" stroke-width="2" stroke-linecap="round" stroke-linejoin="round"/></svg><svg viewBox="0 0 24 24" fill="none" id="edit" xmlns="http://www.w3.org/2000/svg"><path fill="currentColor" fill-rule="evenodd" d="M15.586 3a2 2 0 0 1 2.828 0L21 5.586a2 2 0 0 1 0 2.828L19.414 10 14 4.586 15.586 3zm-3 3-9 9A2 2 0 0 0 3 16.414V19a2 2 0 0 0 2 2h2.586A2 2 0 0 0 9 20.414l9-9L12.586 6z" clip-rule="evenodd"/></svg><svg viewBox="0 0 24 24" fill="none" id="entertainment" xmlns="http://www.w3.org/2000/svg"><circle cx="12" cy="12" r="6" stroke="currentColor" stroke-linecap="round" stroke-linejoin="round" stroke-width="2"/><circle cx="12" cy="4" r="2" fill="currentColor" stroke="currentColor" stroke-linecap="round" stroke-linejoin="round" stroke-width="2"/><circle cx="19" cy="8" r="2" fill="currentColor" stroke="currentColor" stroke-linecap="round" stroke-linejoin="round" stroke-width="2"/><circle cx="5" cy="8" r="2" fill="currentColor" stroke="currentColor" stroke-linecap="round" stroke-linejoin="round" stroke-width="2"/><circle cx="5" cy="16" r="2" fill="currentColor" stroke="currentColor" stroke-linecap="round" stroke-linejoin="round" stroke-width="2"/><circle cx="19" cy="16" r="2" fill="currentColor" stroke="currentColor" stroke-linecap="round" stroke-linejoin="round" stroke-width="2"/><path stroke="currentColor" stroke-linecap="round" stroke-linejoin="round" stroke-width="2" d="m8 22 4-10 4 10"/></svg><svg fill="currentColor" viewBox="0 0 24 24" id="equal-sign" xmlns="http://www.w3.org/2000/svg"><rect x="21" y="18" width="18" height="4" rx="2" transform="rotate(180 21 18)"/><rect x="21" y="10" width="18" height="4" rx="2" transform="rotate(180 21 10)"/></svg><svg viewBox="0 0 24 24" fill="none" id="eraser" xmlns="http://www.w3.org/2000/svg"><path fill="currentColor" fill-rule="evenodd" d="M3.121 17.85a3 3 0 0 1 0-4.243l7.071-7.072 8.486 8.486-3.243 3.242H20a1 1 0 1 1 0 2H6.778a3 3 0 0 1-2.121-.878L3.12 17.849zm16.97-4.243 1.415-1.415a3 3 0 0 0 0-4.242l-4.243-4.243a3 3 0 0 0-4.242 0l-1.414 1.414 8.485 8.486z" clip-rule="evenodd"/></svg><svg fill="none" viewBox="0 0 512 512" id="euFlag" xmlns="http://www.w3.org/2000/svg"><g clip-path="url(#asa)"><path d="M256 512c141.385 0 256-114.615 256-256S397.385 0 256 0 0 114.615 0 256s114.615 256 256 256Z" fill="#0052B4"/><path d="m256.001 100.174 8.289 25.509h26.82l-21.699 15.765 8.289 25.509-21.699-15.766-21.7 15.766 8.289-25.509-21.699-15.765h26.821l8.289-25.509ZM145.813 145.814l23.9 12.176 18.965-18.964-4.197 26.49 23.899 12.177-26.491 4.196-4.196 26.492-12.177-23.899-26.49 4.197 18.965-18.965-12.178-23.9ZM100.175 256l25.509-8.289V220.89l15.764 21.7 25.51-8.289L151.191 256l15.767 21.699-25.51-8.288-15.764 21.699v-26.821L100.175 256ZM145.813 366.186l12.177-23.9-18.964-18.965 26.491 4.198 12.175-23.899 4.197 26.491 26.49 4.196-23.896 12.177 4.195 26.49-18.965-18.965-23.9 12.177ZM256.001 411.826l-8.29-25.509h-26.82l21.7-15.765-8.29-25.507 21.7 15.764 21.699-15.764-8.289 25.507 21.699 15.765h-26.821l-8.288 25.509ZM366.187 366.186l-23.899-12.176-18.966 18.965 4.197-26.492-23.897-12.176 26.49-4.196 4.196-26.491 12.176 23.899 26.49-4.198-18.965 18.967 12.178 23.898ZM411.826 256l-25.509 8.289v26.821l-15.765-21.7-25.507 8.289L360.81 256l-15.765-21.699 25.508 8.289 15.764-21.7v26.822L411.826 256ZM366.187 145.814l-12.177 23.9 18.965 18.965-26.492-4.198-12.175 23.899-4.196-26.491-26.49-4.197 23.897-12.176-4.197-26.489 18.967 18.964 23.898-12.177Z" fill="#FFDA44"/></g><defs><clipPath id="asa"><path fill="#fff" d="M0 0h512v512H0z"/></clipPath></defs></svg><svg viewBox="0 0 24 24" fill="none" id="flower" xmlns="http://www.w3.org/2000/svg"><path fill="currentColor" d="M4 14c0 2.333 1.4 7 7 7 0-2.333-1.4-7-7-7zm3-6V4l2.5 2L12 3l2.5 3L17 4v4c0 1.667-1 5-5 5S7 9.667 7 8zm13 6c0 2.333-1.4 7-7 7 0-2.333 1.4-7 7-7z"/><path stroke="currentColor" stroke-linecap="round" stroke-linejoin="round" stroke-width="2" d="M11 21c-5.6 0-7-4.667-7-7 5.6 0 7 4.667 7 7zm0 0h1m0 0v-8m0 8h1m-1-8c-4 0-5-3.333-5-5V4l2.5 2L12 3l2.5 3L17 4v4c0 1.667-1 5-5 5zm1 8c5.6 0 7-4.667 7-7-5.6 0-7 4.667-7 7z"/></svg><svg viewBox="-26.2 -26.2 314.4 314.4" preserveAspectRatio="xMidYMid" id="google" xmlns="http://www.w3.org/2000/svg"><rect x="-26.2" y="-26.2" width="314.4" height="314.4" rx="157.2" fill="#fff" stroke-width="0"/><path d="M255.878 133.451c0-10.734-.871-18.567-2.756-26.69H130.55v48.448h71.947c-1.45 12.04-9.283 30.172-26.69 42.356l-.244 1.622 38.755 30.023 2.685.268c24.659-22.774 38.875-56.282 38.875-96.027" fill="#4285F4"/><path d="M130.55 261.1c35.248 0 64.839-11.605 86.453-31.622l-41.196-31.913c-11.024 7.688-25.82 13.055-45.257 13.055-34.523 0-63.824-22.773-74.269-54.25l-1.531.13-40.298 31.187-.527 1.465C35.393 231.798 79.49 261.1 130.55 261.1" fill="#34A853"/><path d="M56.281 156.37c-2.756-8.123-4.351-16.827-4.351-25.82 0-8.994 1.595-17.697 4.206-25.82l-.073-1.73L15.26 71.312l-1.335.635C5.077 89.644 0 109.517 0 130.55s5.077 40.905 13.925 58.602l42.356-32.782" fill="#FBBC05"/><path d="M130.55 50.479c24.514 0 41.05 10.589 50.479 19.438l36.844-35.974C195.245 12.91 165.798 0 130.55 0 79.49 0 35.393 29.301 13.925 71.947l42.211 32.783c10.59-31.477 39.891-54.251 74.414-54.251" fill="#EB4335"/></svg><svg viewBox="0 0 24 24" fill="none" id="heart" xmlns="http://www.w3.org/2000/svg"><path fill="currentColor" stroke="currentColor" stroke-linecap="round" stroke-linejoin="round" stroke-width="2" d="M17 4c-3.2 0-5 2.667-5 4 0-1.333-1.8-4-5-4S3 6.667 3 8c0 7 9 12 9 12s9-5 9-12c0-1.333-.8-4-4-4z"/></svg><svg viewBox="0 0 24 24" fill="none" id="home" xmlns="http://www.w3.org/2000/svg"><path fill="currentColor" stroke="currentColor" stroke-linecap="round" stroke-linejoin="round" stroke-width="2" d="M20 19v-8.5a1 1 0 0 0-.4-.8l-7-5.25a1 1 0 0 0-1.2 0l-7 5.25a1 1 0 0 0-.4.8V19a1 1 0 0 0 1 1h4a1 1 0 0 0 1-1v-3a1 1 0 0 1 1-1h2a1 1 0 0 1 1 1v3a1 1 0 0 0 1 1h4a1 1 0 0 0 1-1z"/></svg><svg viewBox="0 0 24 24" fill="none" id="info" xmlns="http://www.w3.org/2000/svg"><path fill="currentColor" fill-rule="evenodd" d="M12 2C6.477 2 2 6.477 2 12s4.477 10 10 10 10-4.477 10-10S17.523 2 12 2zm0 14a1 1 0 0 0 1-1v-3a1 1 0 1 0-2 0v3a1 1 0 0 0 1 1zm1-7a1 1 0 1 1-2 0 1 1 0 1 1 2 0z" clip-rule="evenodd"/></svg><svg viewBox="0 0 24 24" fill="none" id="internet" xmlns="http://www.w3.org/2000/svg"><path stroke="currentColor" stroke-linecap="round" stroke-linejoin="round" stroke-width="2" d="M20.5 9.035a9.004 9.004 0 0 0-17 0m17 0c.324.928.5 1.926.5 2.965a8.988 8.988 0 0 1-.5 2.966m0-5.931h-17m0 0A8.987 8.987 0 0 0 3 12a8.99 8.99 0 0 0 .5 2.966m0 0a9.004 9.004 0 0 0 17 0m-17 0h17"/><path stroke="currentColor" stroke-linecap="round" stroke-linejoin="round" stroke-width="2" d="M12 21c4.97-4.97 4.97-13.03 0-18-4.97 4.97-4.97 13.03 0 18z"/></svg><svg viewBox="0 0 24 24" fill="none" id="lamp" xmlns="http://www.w3.org/2000/svg"><path fill="currentColor" d="M12 7a5 5 0 0 0-2 9.584V19h4v-2.416A5.001 5.001 0 0 0 12 7z"/><path stroke="currentColor" stroke-linecap="round" stroke-linejoin="round" stroke-width="2" d="M21 12h1m-3.5-6.5 1-1M12 3V2M5.5 5.5l-1-1M3 12H2m8 10h4m3-10a5 5 0 1 0-7 4.584V19h4v-2.416A5.001 5.001 0 0 0 17 12z"/></svg><svg viewBox="0 0 24 24" fill="none" id="laptop" xmlns="http://www.w3.org/2000/svg"><path fill="currentColor" fill-rule="evenodd" d="M3 6a3 3 0 0 1 3-3h12a3 3 0 0 1 3 3v7.764l1.447 2.894-.894.448.894-.448c.998 1.995-.453 4.342-2.683 4.342H4.236c-2.23 0-3.68-2.347-2.683-4.342L3 13.764V6zm3-1a1 1 0 0 0-1 1v5a1 1 0 0 0 1 1h12a1 1 0 0 0 1-1V6a1 1 0 0 0-1-1H6z" clip-rule="evenodd"/></svg><svg viewBox="0 0 24 24" fill="none" id="logout" xmlns="http://www.w3.org/2000/svg"><path fill="currentColor" fill-rule="evenodd" d="M6 2a3 3 0 0 0-3 3v14a3 3 0 0 0 3 3h6a3 3 0 0 0 3-3V5a3 3 0 0 0-3-3H6zm10.293 5.293a1 1 0 0 1 1.414 0l4 4a1 1 0 0 1 0 1.414l-4 4a1 1 0 0 1-1.414-1.414L18.586 13H10a1 1 0 1 1 0-2h8.586l-2.293-2.293a1 1 0 0 1 0-1.414z" clip-rule="evenodd"/></svg><svg clip-rule="evenodd" fill-rule="evenodd" stroke-linejoin="round" stroke-miterlimit="2" viewBox="0 0 24 24" id="menu" xmlns="http://www.w3.org/2000/svg"><path fill="currentColor" d="M12 16.495a2.25 2.25 0 1 1-.002 4.502A2.25 2.25 0 0 1 12 16.495zm0-6.75a2.25 2.25 0 1 1-.002 4.502A2.25 2.25 0 0 1 12 9.745zm0-6.75a2.25 2.25 0 1 1-.002 4.502A2.25 2.25 0 0 1 12 2.995z"/></svg><svg viewBox="0 0 24 24" fill="none" id="minus" xmlns="http://www.w3.org/2000/svg"><path stroke="currentColor" stroke-linecap="round" stroke-linejoin="round" stroke-width="2" d="M5 12h14"/></svg><svg fill="none" viewBox="0 0 24 24" id="money-change" xmlns="http://www.w3.org/2000/svg"><path d="M8 5h8v1c0 1.926.825 3.226 1.916 4.011 1.04.75 2.257.989 3.084.989h1v1.746c-.332-.33-.668-.657-1.007-.98-.5-.478-1.118-.726-1.816-.761a2.96 2.96 0 0 0-1.5.299c-.726.363-1.235.924-1.507 1.691-.026.074-.06.136-.14.162a2.826 2.826 0 0 0-1.236.813c-.07.079-.137.098-.245.075a2.563 2.563 0 0 0-.314-.043 3 3 0 1 0-2.472.989 238.5 238.5 0 0 0-.889.883c-.28.28-.562.56-.845.84-.287.284-.547.583-.723.953C9.101 18.097 9 18.54 9 19H8v-1c0-1.926-.825-3.226-1.916-4.011C5.044 13.239 3.827 13 3 13H2v-2h1c.827 0 2.044-.24 3.084-.989C7.175 9.226 8 7.926 8 6V5Z" fill="currentColor"/><path d="M12 11a1 1 0 1 0 0 2 1 1 0 0 0 0-2ZM22 9V8a3 3 0 0 0-3-3h-1v1c0 1.274.509 1.974 1.084 2.388C19.711 8.84 20.494 9 21 9h1ZM6 19v-1c0-1.274-.508-1.974-1.084-2.389C4.289 15.162 3.506 15 3 15H2v1a3 3 0 0 0 3 3h1ZM3 9H2V8a3 3 0 0 1 3-3h1v1c0 1.274-.508 1.974-1.084 2.388C4.289 8.84 3.506 9 3 9Z" fill="currentColor"/><path fill-rule="evenodd" clip-rule="evenodd" d="M18.293 13.293a1 1 0 0 1 1.414 0l2 2a1 1 0 0 1 0 1.414l-2 2a1 1 0 0 1-1.414-1.414l.293-.293H17a1 1 0 1 1 0-2h1.586l-.293-.293a1 1 0 0 1 0-1.414Zm-3.586 3a1 1 0 0 1 0 1.414l-.293.293H16a1 1 0 1 1 0 2h-1.586l.293.293a1 1 0 0 1-1.414 1.414l-2-2a1 1 0 0 1 0-1.414l2-2a1 1 0 0 1 1.414 0Z" fill="currentColor"/></svg><svg fill="none" viewBox="0 0 24 24" id="money-multiple" xmlns="http://www.w3.org/2000/svg"><path d="M12.5 10a1.5 1.5 0 1 1 3 0 1.5 1.5 0 0 1-3 0Z" fill="currentColor"/><path fill-rule="evenodd" clip-rule="evenodd" d="M17.5 4h-7v1c0 1.763-.746 2.913-1.708 3.606C7.856 9.28 6.747 9.5 6 9.5H5v1h1c.747 0 1.856.22 2.792.894.962.693 1.708 1.843 1.708 3.606v1h7v-1c0-1.763.746-2.913 1.708-3.606.936-.674 2.045-.894 2.792-.894h1v-1h-1c-.747 0-1.856-.22-2.792-.894C18.246 7.913 17.5 6.763 17.5 5V4ZM14 7.5a2.5 2.5 0 1 0 0 5 2.5 2.5 0 0 0 0-5Z" fill="currentColor"/><path d="M23 8.5V7a3 3 0 0 0-3-3h-1.5v1c0 1.437.588 2.287 1.292 2.794.73.526 1.621.706 2.208.706h1ZM23 11.5h-1c-.587 0-1.478.18-2.208.706-.704.507-1.292 1.357-1.292 2.794v1H20a3 3 0 0 0 3-3v-1.5ZM9.5 16v-1c0-1.437-.588-2.287-1.292-2.794C7.478 11.68 6.587 11.5 6 11.5H5V13a3 3 0 0 0 3 3h1.5ZM5 8.5h1c.587 0 1.478-.18 2.208-.706C8.912 7.287 9.5 6.437 9.5 5V4H8a3 3 0 0 0-3 3v1.5ZM3 8.17A3.001 3.001 0 0 0 1 11v1.5h1c.28 0 .631-.041 1-.142V8.171ZM3.015 13.384A4.79 4.79 0 0 1 2 13.5H1v1h1c.365 0 .816.052 1.29.185a4.976 4.976 0 0 1-.275-1.3ZM4.104 16.134c.246.305.527.581.837.821.336.497.559 1.16.559 2.045v1H4a3 3 0 0 1-3-3v-1.5h1c.559 0 1.395.164 2.104.634ZM6.352 17.722c.516.18 1.07.278 1.648.278h5.588a5.494 5.494 0 0 0-.088 1v1h-7v-1c0-.468-.053-.893-.148-1.278ZM14.61 18c-.07.297-.11.629-.11 1v1H16a3.001 3.001 0 0 0 2.83-2h-4.22Z" fill="currentColor"/></svg><svg fill="none" viewBox="0 0 24 24" id="new-tab" xmlns="http://www.w3.org/2000/svg"><path d="M17.534 10.709 14.12 14.12A3 3 0 1 1 9.88 9.88l3.412-3.413A2.997 2.997 0 0 1 12.171 3H6a3 3 0 0 0-3 3v12a3 3 0 0 0 3 3h12a3 3 0 0 0 3-3v-6.17a2.997 2.997 0 0 1-3.466-1.12Z" fill="currentColor"/><path d="M15 3a1 1 0 1 0 0 2h2.586l-6.293 6.293a1 1 0 0 0 1.414 1.414L19 6.414V9a1 1 0 1 0 2 0V4a1 1 0 0 0-1-1h-5Z" fill="currentColor"/></svg><svg viewBox="0 0 24 24" fill="none" id="pill" xmlns="http://www.w3.org/2000/svg"><path fill="currentColor" fill-rule="evenodd" d="M4.929 19.071a5 5 0 0 1 0-7.071l2.828-2.828 7.071 7.07L12 19.073a5 5 0 0 1-7.071 0zm11.314-4.243L19.07 12A5 5 0 0 0 12 4.929L9.172 7.757l7.07 7.071z" clip-rule="evenodd"/></svg><svg viewBox="0 0 24 24" fill="none" id="plus" xmlns="http://www.w3.org/2000/svg"><path stroke="currentColor" stroke-linecap="round" stroke-linejoin="round" stroke-width="2" d="M5 12h7m7 0h-7m0 0V5m0 7v7"/></svg><svg viewBox="0 0 24 24" fill="none" id="reload" xmlns="http://www.w3.org/2000/svg"><path stroke="currentColor" stroke-linecap="round" stroke-linejoin="round" stroke-width="2" d="M19 13.5A7.5 7.5 0 1 1 11.5 6H20m0 0-3-3m3 3-3 3"/></svg><svg viewBox="0 0 24 24" fill="none" id="rest" xmlns="http://www.w3.org/2000/svg"><path fill="currentColor" d="M10 5.196c1.5-2.598 5.098-2.83 7.696-1.33s4.196 4.732 2.696 7.33l-3.464-2-1.732-1-1.732-1-3.464-2z"/><path stroke="currentColor" stroke-linecap="round" stroke-linejoin="round" stroke-width="2" d="M17.696 3.866C15.098 2.366 11.5 2.598 10 5.196l3.464 2m4.232-3.33c2.598 1.5 4.196 4.732 2.696 7.33l-5.196-3m2.5-4.33.5-.866m-.5.866c-1.821.488-2.982 1.165-4.232 3.33m4.232-3.33c.488 1.821.482 3.165-.768 5.33m-1.732-1-1.732-1m1.732 1-3 5.196M3 21l.88-1.056a2.001 2.001 0 0 1 3.139.08v0a2.001 2.001 0 0 0 3.107.118l.19-.218a2.236 2.236 0 0 1 3.367 0l.191.218c.838.957 2.344.9 3.107-.117v0a2.001 2.001 0 0 1 3.14-.08L21 21M6.708 16A7.97 7.97 0 0 1 12 14a7.97 7.97 0 0 1 5.292 2"/></svg><svg fill="none" viewBox="0 0 24 24" id="safe" xmlns="http://www.w3.org/2000/svg"><path fill-rule="evenodd" clip-rule="evenodd" d="M2 7a3 3 0 0 1 3-3h14a3 3 0 0 1 3 3 1 1 0 1 1 0 2v6a1 1 0 1 1 0 2 3.001 3.001 0 0 1-2 2.83V21a1 1 0 1 1-2 0v-1H6v1a1 1 0 1 1-2 0v-1.17A3.001 3.001 0 0 1 2 17V7Zm10 3a2 2 0 1 0 0 4 2 2 0 0 0 0-4Zm-4 2a4 4 0 1 1 8 0 4 4 0 0 1-8 0Z" fill="currentColor"/></svg><svg viewBox="0 0 24 24" fill="none" id="search-minus" xmlns="http://www.w3.org/2000/svg"><path fill="currentColor" fill-rule="evenodd" d="M3 11a8 8 0 1 1 14.32 4.906l3.387 3.387a1 1 0 0 1-1.414 1.414l-3.387-3.387A8 8 0 0 1 3 11zm5-1a1 1 0 1 0 0 2h6a1 1 0 1 0 0-2H8z" clip-rule="evenodd"/></svg><svg viewBox="0 0 24 24" fill="none" id="search-plus" xmlns="http://www.w3.org/2000/svg"><path fill="currentColor" fill-rule="evenodd" d="M3 11a8 8 0 1 1 14.32 4.906l3.387 3.387a1 1 0 0 1-1.414 1.414l-3.387-3.387A8 8 0 0 1 3 11zm9-3a1 1 0 1 0-2 0v2H8a1 1 0 1 0 0 2h2v2a1 1 0 1 0 2 0v-2h2a1 1 0 1 0 0-2h-2V8z" clip-rule="evenodd"/></svg><svg fill="none" viewBox="0 0 24 24" id="small-logo" xmlns="http://www.w3.org/2000/svg"><g clip-path="url(#cea)"><path fill-rule="evenodd" clip-rule="evenodd" d="M12.226 8.15c.25 0 .453.204.453.454v.905h1.812a.453.453 0 1 1 0 .906h-3.397a.68.68 0 0 0 0 1.359h2.264a1.585 1.585 0 0 1 0 3.17h-.679v.905a.453.453 0 1 1-.905 0v-.906H9.962a.453.453 0 1 1 0-.905h3.396a.68.68 0 0 0 0-1.359h-2.264a1.585 1.585 0 0 1 0-3.17h.68v-.905c0-.25.202-.453.452-.453Z" fill="#24B563"/><path d="M10.784 19.52v3.7a.777.777 0 0 1-.898.77A12.084 12.084 0 0 1 0 12.098C0 9.58.77 7.269 2.08 5.317a.77.77 0 0 1 1.181-.128l2.62 2.62c.256.256.282.616.127.924a7.007 7.007 0 0 0-.847 3.34 6.926 6.926 0 0 0 5.059 6.677.802.802 0 0 1 .564.77Z" fill="#E4FCF7"/><path d="M19.515 10.736a.794.794 0 0 1-.745-.565 6.91 6.91 0 0 0-6.676-5.008 6.863 6.863 0 0 0-3.39.873.738.738 0 0 1-.924-.128l-2.619-2.62a.771.771 0 0 1 .129-1.182C7.215.771 9.578 0 12.12 0c5.905 0 10.81 4.213 11.862 9.812a.757.757 0 0 1-.744.925h-3.723Z" fill="#FEC" fill-opacity=".925"/><path d="M23.982 14.307c-.898 4.88-4.75 8.732-9.603 9.657a.777.777 0 0 1-.899-.77v-3.699c0-.334.232-.642.565-.745 2.286-.668 4.109-2.491 4.75-4.777a.77.77 0 0 1 .745-.565h3.698c.462 0 .822.436.744.899Z" fill="#E2F5FD"/></g><defs><clipPath id="cea"><path fill="#fff" d="M0 0h24v24H0z"/></clipPath></defs></svg><svg viewBox="0 0 24 24" fill="none" id="statistics" xmlns="http://www.w3.org/2000/svg"><path fill="currentColor" fill-rule="evenodd" d="M3 6a3 3 0 0 1 3-3h12a3 3 0 0 1 3 3v12a3 3 0 0 1-3 3H6a3 3 0 0 1-3-3V6zm10 2a1 1 0 1 0-2 0v8a1 1 0 1 0 2 0V8zm-4 3a1 1 0 1 0-2 0v5a1 1 0 1 0 2 0v-5zm8 3a1 1 0 1 0-2 0v2a1 1 0 1 0 2 0v-2z" clip-rule="evenodd"/></svg><svg viewBox="0 0 24 24" fill="none" id="tv" xmlns="http://www.w3.org/2000/svg"><path fill="currentColor" d="M3 17V9a2 2 0 0 1 2-2h14a2 2 0 0 1 2 2v8a2 2 0 0 1-2 2H5a2 2 0 0 1-2-2z"/><path stroke="currentColor" stroke-linecap="round" stroke-linejoin="round" stroke-width="2" d="M12 7h7a2 2 0 0 1 2 2v8a2 2 0 0 1-2 2H5a2 2 0 0 1-2-2V9a2 2 0 0 1 2-2h7zm0 0L8 3m4 4 4-4"/></svg><svg fill="none" viewBox="0 0 512 512" id="uaFlag" xmlns="http://www.w3.org/2000/svg"><g clip-path="url(#ata)"><path d="M256 512c141.385 0 256-114.615 256-256S397.385 0 256 0 0 114.615 0 256s114.615 256 256 256Z" fill="#FFDA44"/><path d="M0 256C0 114.616 114.616 0 256 0c141.384 0 256 114.616 256 256" fill="#338AF3"/></g><defs><clipPath id="ata"><path fill="#fff" d="M0 0h512v512H0z"/></clipPath></defs></svg><svg fill="none" viewBox="0 0 512 512" id="ukFlag" xmlns="http://www.w3.org/2000/svg"><g clip-path="url(#aua)"><path d="M256 512c141.385 0 256-114.615 256-256S397.385 0 256 0 0 114.615 0 256s114.615 256 256 256Z" fill="#F0F0F0"/><path d="M52.92 100.142c-20.109 26.163-35.272 56.318-44.101 89.077h133.178L52.92 100.142ZM503.181 189.219c-8.829-32.758-23.993-62.913-44.101-89.076l-89.075 89.076h133.176ZM8.819 322.784c8.83 32.758 23.993 62.913 44.101 89.075l89.074-89.075H8.819ZM411.858 52.921C385.695 32.812 355.541 17.65 322.782 8.82v133.177l89.076-89.075ZM100.142 459.079c26.163 20.109 56.318 35.272 89.076 44.102V370.005l-89.076 89.074ZM189.217 8.82c-32.758 8.83-62.913 23.992-89.075 44.1l89.075 89.075V8.819ZM322.783 503.181c32.758-8.83 62.913-23.993 89.075-44.101l-89.075-89.075v133.176ZM370.005 322.784l89.075 89.076c20.108-26.162 35.272-56.318 44.101-89.076H370.005Z" fill="#0052B4"/><path d="M509.833 222.609H289.392V2.167A258.556 258.556 0 0 0 256 0c-11.319 0-22.461.744-33.391 2.167v220.441H2.167A258.556 258.556 0 0 0 0 256c0 11.319.744 22.461 2.167 33.391h220.441v220.442a258.35 258.35 0 0 0 66.783 0V289.392h220.442A258.533 258.533 0 0 0 512 256c0-11.317-.744-22.461-2.167-33.391Z" fill="#D80027"/><path d="M322.783 322.784 437.019 437.02a256.636 256.636 0 0 0 15.048-16.435l-97.802-97.802h-31.482v.001ZM189.217 322.784h-.002L74.98 437.019a256.636 256.636 0 0 0 16.435 15.048l97.802-97.804v-31.479ZM189.217 189.219v-.002L74.981 74.98a256.636 256.636 0 0 0-15.048 16.435l97.803 97.803h31.481v.001ZM322.783 189.219 437.02 74.981a256.328 256.328 0 0 0-16.435-15.047l-97.802 97.803v31.482Z" fill="#D80027"/></g><defs><clipPath id="aua"><path fill="#fff" d="M0 0h512v512H0z"/></clipPath></defs></svg><svg fill="none" viewBox="0 0 512 512" id="usFlag" xmlns="http://www.w3.org/2000/svg"><g clip-path="url(#ava)"><path d="M256 511.999c141.385 0 256-114.615 256-256s-114.615-256-256-256-256 114.615-256 256 114.615 256 256 256Z" fill="#F0F0F0"/><path d="M244.87 255.999H512c0-23.106-3.08-45.49-8.819-66.783H244.87v66.783ZM244.87 122.434h229.556a257.349 257.349 0 0 0-59.07-66.783H244.87v66.783ZM256 511.999c60.249 0 115.626-20.824 159.356-55.652H96.644c43.73 34.828 99.107 55.652 159.356 55.652ZM37.574 389.564h436.852a254.474 254.474 0 0 0 28.755-66.783H8.819a254.472 254.472 0 0 0 28.755 66.783Z" fill="#D80027"/><path d="M118.584 39.977h23.329l-21.7 15.765 8.289 25.509-21.699-15.765-21.699 15.765 7.16-22.037a257.407 257.407 0 0 0-49.652 55.337h7.475l-13.813 10.035a255.58 255.58 0 0 0-6.194 10.938l6.596 20.301-12.306-8.941a253.567 253.567 0 0 0-8.372 19.873l7.267 22.368h26.822l-21.7 15.765 8.289 25.509-21.699-15.765-12.998 9.444A258.468 258.468 0 0 0 0 255.999h256v-256c-50.572 0-97.715 14.67-137.416 39.978Zm9.918 190.422-21.699-15.765-21.699 15.765 8.289-25.509-21.7-15.765h26.822l8.288-25.509 8.288 25.509h26.822l-21.7 15.765 8.289 25.509Zm-8.289-100.083 8.289 25.509-21.699-15.765-21.699 15.765 8.289-25.509-21.7-15.765h26.822l8.288-25.509 8.288 25.509h26.822l-21.7 15.765Zm100.115 100.083-21.699-15.765-21.699 15.765 8.289-25.509-21.7-15.765h26.822l8.288-25.509 8.288 25.509h26.822l-21.7 15.765 8.289 25.509Zm-8.289-100.083 8.289 25.509-21.699-15.765-21.699 15.765 8.289-25.509-21.7-15.765h26.822l8.288-25.509 8.288 25.509h26.822l-21.7 15.765Zm0-74.574 8.289 25.509-21.699-15.765-21.699 15.765 8.289-25.509-21.7-15.765h26.822l8.288-25.509 8.288 25.509h26.822l-21.7 15.765Z" fill="#0052B4"/></g><defs><clipPath id="ava"><path fill="#fff" transform="translate(0 -.001)" d="M0 0h512v512H0z"/></clipPath></defs></svg><svg fill="none" viewBox="0 0 24 24" id="wallet" xmlns="http://www.w3.org/2000/svg"><path d="m7 5 12-4c.333 0 1 .2 1 1v3H7Z" fill="currentColor"/><path fill-rule="evenodd" clip-rule="evenodd" d="M5 6c-1 0-3 .6-3 3v10c0 1 .6 3 3 3h14c1 0 3-.6 3-3V9c0-1-.6-3-3-3H5Zm11 9a1 1 0 1 0 0-2 1 1 0 0 0 0 2Z" fill="currentColor"/></svg><svg viewBox="0 0 24 24" fill="none" id="work" xmlns="http://www.w3.org/2000/svg"><path fill="currentColor" fill-rule="evenodd" d="M8 6a3 3 0 0 1 3-3h2a3 3 0 0 1 3 3v1h3a3 3 0 0 1 3 3v2h-7v-1a1 1 0 0 0-1-1h-4a1 1 0 0 0-1 1v1H2v-2a3 3 0 0 1 3-3h3V6zm-6 8v4a3 3 0 0 0 3 3h14a3 3 0 0 0 3-3v-4h-7v1a1 1 0 0 1-1 1h-4a1 1 0 0 1-1-1v-1H2zm8-7h4V6a1 1 0 0 0-1-1h-2a1 1 0 0 0-1 1v1zm3 7h-2v-2h2v2z" clip-rule="evenodd"/></svg><svg fill="none" viewBox="0 0 24 24" id="wrench" xmlns="http://www.w3.org/2000/svg"><path fill-rule="evenodd" clip-rule="evenodd" d="M18.26 2.926a7.002 7.002 0 0 0-9.649 8.568L3.81 15.116a3.97 3.97 0 1 0 5.559 5.56l3.622-4.802a7.002 7.002 0 0 0 8.568-9.648 1 1 0 0 0-1.61-.276l-2.828 2.828a1 1 0 1 1-1.414-1.414l2.828-2.828a1 1 0 0 0-.276-1.61ZM6.5 17a1 1 0 1 0 0 2h.01a1 1 0 1 0 0-2H6.5Z" fill="currentColor"/></svg></defs></svg>