<svg width="24" height="24" viewBox="0 0 24 24" fill="none" xmlns="http://www.w3.org/2000/svg">
<path fill="currentColor" fill-rule="evenodd" clip-rule="evenodd" d="M10.2523 3.0878C11.0143 1.71618 12.9869 1.71618 13.7489 3.0878L22.0494 18.0287C22.79 19.3617 21.8261 21 20.3011 21H3.70014C2.17517 21 1.21124 19.3617 1.95183 18.0287L10.2523 3.0878ZM12.0007 8C12.553 8 13.0007 8.44772 13.0007 9V14C13.0007 14.5523 12.553 15 12.0007 15C11.4484 15 11.0007 14.5523 11.0007 14V9C11.0007 8.44772 11.4484 8 12.0007 8ZM12.0007 16C12.553 16 13.0007 16.4477 13.0007 17V17.01C13.0007 17.5623 12.553 18.01 12.0007 18.01C11.4484 18.01 11.0007 17.5623 11.0007 17.01V17C11.0007 16.4477 11.4484 16 12.0007 16Z"/>
</svg>
