<svg width="622" height="80" viewBox="0 0 622 80" fill="none" xmlns="http://www.w3.org/2000/svg">
<path d="M104.288 65C102.667 65 101.173 64.5947 99.808 63.784C98.4853 62.9733 97.4187 61.9067 96.608 60.584C95.7973 59.2187 95.392 57.7253 95.392 56.104V52.584H103.84V55.72C103.84 55.9333 103.904 56.1253 104.032 56.296C104.203 56.424 104.395 56.488 104.608 56.488H132.192C132.405 56.488 132.576 56.424 132.704 56.296C132.875 56.1253 132.96 55.9333 132.96 55.72V46.952C132.96 46.7387 132.875 46.568 132.704 46.44C132.576 46.312 132.405 46.248 132.192 46.248H104.288C102.667 46.248 101.173 45.8427 99.808 45.032C98.4853 44.2213 97.4187 43.1547 96.608 41.832C95.7973 40.4667 95.392 38.952 95.392 37.288V27.816C95.392 26.1947 95.7973 24.7227 96.608 23.4C97.4187 22.0347 98.4853 20.9467 99.808 20.136C101.173 19.3253 102.667 18.92 104.288 18.92H132.576C134.197 18.92 135.669 19.3253 136.992 20.136C138.357 20.9467 139.445 22.0347 140.256 23.4C141.067 24.7227 141.472 26.1947 141.472 27.816V31.336H132.96V28.2C132.96 27.9867 132.875 27.816 132.704 27.688C132.576 27.5173 132.405 27.432 132.192 27.432H104.608C104.395 27.432 104.203 27.5173 104.032 27.688C103.904 27.816 103.84 27.9867 103.84 28.2V36.968C103.84 37.1813 103.904 37.352 104.032 37.48C104.203 37.608 104.395 37.672 104.608 37.672H132.576C134.197 37.672 135.669 38.0773 136.992 38.888C138.357 39.6987 139.445 40.7867 140.256 42.152C141.067 43.4747 141.472 44.968 141.472 46.632V56.104C141.472 57.7253 141.067 59.2187 140.256 60.584C139.445 61.9067 138.357 62.9733 136.992 63.784C135.669 64.5947 134.197 65 132.576 65H104.288ZM148.331 65V27.88H194.347C196.011 27.88 197.504 28.2853 198.827 29.096C200.15 29.9067 201.195 30.9733 201.963 32.296C202.774 33.6187 203.179 35.0907 203.179 36.712V65H194.859V37.032C194.859 36.8187 194.774 36.648 194.603 36.52C194.432 36.3493 194.24 36.264 194.027 36.264H180.779C180.566 36.264 180.374 36.3493 180.203 36.52C180.075 36.648 180.011 36.8187 180.011 37.032V65H171.563V37.032C171.563 36.8187 171.478 36.648 171.307 36.52C171.179 36.3493 171.008 36.264 170.795 36.264H157.483C157.27 36.264 157.078 36.3493 156.907 36.52C156.779 36.648 156.715 36.8187 156.715 37.032V65H148.331ZM218.223 65C216.601 65 215.108 64.5947 213.743 63.784C212.42 62.9733 211.353 61.9067 210.543 60.584C209.775 59.2613 209.391 57.7893 209.391 56.168V42.216H238.703V37.032C238.703 36.8187 238.617 36.648 238.447 36.52C238.319 36.3493 238.148 36.264 237.935 36.264H209.391V27.88H238.255C239.876 27.88 241.348 28.2853 242.671 29.096C244.036 29.9067 245.103 30.9733 245.871 32.296C246.681 33.6187 247.087 35.0907 247.087 36.712V65H218.223ZM218.543 56.616H238.703V49.768H217.775V55.848C217.775 56.0613 217.839 56.2533 217.967 56.424C218.137 56.552 218.329 56.616 218.543 56.616ZM252.516 65V36.712C252.516 35.0907 252.921 33.6187 253.732 32.296C254.542 30.9733 255.609 29.9067 256.932 29.096C258.297 28.2853 259.769 27.88 261.348 27.88H281.956V36.264H261.668C261.454 36.264 261.262 36.3493 261.092 36.52C260.964 36.648 260.9 36.8187 260.9 37.032V65H252.516ZM294.849 65C293.228 65 291.756 64.5947 290.433 63.784C289.11 62.9733 288.044 61.9067 287.233 60.584C286.422 59.2613 286.017 57.7893 286.017 56.168V16.488H294.401V27.88H308.865V36.264H294.401V55.848C294.401 56.0613 294.465 56.2533 294.593 56.424C294.764 56.552 294.956 56.616 295.169 56.616H308.865V65H294.849ZM314.4 65V18.92H356.832V27.432H322.912V37.672H350.176V46.248H322.912V56.488H356.832V65H314.4ZM362.632 65V62.76L376.264 46.12L362.632 30.12V27.88H371.72L381.704 39.656L391.688 27.88H400.776V30.12L387.144 46.12L400.776 62.76V65H391.752L381.704 52.712L371.72 65H362.632ZM407.456 79.72V27.88H436.32C437.941 27.88 439.413 28.2853 440.736 29.096C442.101 29.9067 443.168 30.9733 443.936 32.296C444.747 33.6187 445.152 35.0907 445.152 36.712V56.168C445.152 57.7893 444.747 59.2613 443.936 60.584C443.168 61.9067 442.101 62.9733 440.736 63.784C439.413 64.5947 437.941 65 436.32 65H415.84V79.72H407.456ZM416.608 56.616H436C436.213 56.616 436.384 56.552 436.512 56.424C436.683 56.2533 436.768 56.0613 436.768 55.848V37.032C436.768 36.8187 436.683 36.648 436.512 36.52C436.384 36.3493 436.213 36.264 436 36.264H416.608C416.395 36.264 416.203 36.3493 416.032 36.52C415.904 36.648 415.84 36.8187 415.84 37.032V55.848C415.84 56.0613 415.904 56.2533 416.032 56.424C416.203 56.552 416.395 56.616 416.608 56.616ZM458.596 65C456.975 65 455.503 64.5947 454.18 63.784C452.857 62.9733 451.791 61.9067 450.98 60.584C450.169 59.2613 449.764 57.7893 449.764 56.168V36.712C449.764 35.0907 450.169 33.6187 450.98 32.296C451.791 30.9733 452.857 29.9067 454.18 29.096C455.503 28.2853 456.975 27.88 458.596 27.88H478.628C480.249 27.88 481.721 28.2853 483.044 29.096C484.409 29.9067 485.476 30.9733 486.244 32.296C487.055 33.6187 487.46 35.0907 487.46 36.712V50.664H458.148V55.848C458.148 56.0613 458.212 56.2533 458.34 56.424C458.511 56.552 458.703 56.616 458.916 56.616H487.46V65H458.596ZM458.148 43.112H479.076V37.032C479.076 36.8187 478.991 36.648 478.82 36.52C478.692 36.3493 478.521 36.264 478.308 36.264H458.916C458.703 36.264 458.511 36.3493 458.34 36.52C458.212 36.648 458.148 36.8187 458.148 37.032V43.112ZM494.269 65V27.88H523.132C524.754 27.88 526.226 28.2853 527.549 29.096C528.914 29.9067 529.981 30.9733 530.749 32.296C531.559 33.6187 531.965 35.0907 531.965 36.712V65H523.581V37.032C523.581 36.8187 523.495 36.648 523.325 36.52C523.197 36.3493 523.026 36.264 522.812 36.264H503.421C503.207 36.264 503.015 36.3493 502.845 36.52C502.717 36.648 502.653 36.8187 502.653 37.032V65H494.269ZM546.404 65C544.783 65 543.311 64.5947 541.988 63.784C540.665 62.9733 539.599 61.9067 538.788 60.584C537.977 59.2613 537.572 57.7893 537.572 56.168V54.76H545.956V55.848C545.956 56.0613 546.02 56.2533 546.148 56.424C546.319 56.552 546.511 56.616 546.724 56.616H566.116C566.329 56.616 566.5 56.552 566.628 56.424C566.799 56.2533 566.884 56.0613 566.884 55.848V51.432C566.884 51.2187 566.799 51.048 566.628 50.92C566.5 50.7493 566.329 50.664 566.116 50.664H546.404C544.783 50.664 543.311 50.2587 541.988 49.448C540.665 48.6373 539.599 47.5707 538.788 46.248C537.977 44.9253 537.572 43.4533 537.572 41.832V36.712C537.572 35.0907 537.977 33.6187 538.788 32.296C539.599 30.9733 540.665 29.9067 541.988 29.096C543.311 28.2853 544.783 27.88 546.404 27.88H566.436C568.1 27.88 569.593 28.2853 570.916 29.096C572.239 29.9067 573.305 30.9733 574.116 32.296C574.927 33.6187 575.332 35.0907 575.332 36.712V38.12H566.884V37.032C566.884 36.8187 566.799 36.648 566.628 36.52C566.5 36.3493 566.329 36.264 566.116 36.264H546.724C546.511 36.264 546.319 36.3493 546.148 36.52C546.02 36.648 545.956 36.8187 545.956 37.032V41.448C545.956 41.6613 546.02 41.8533 546.148 42.024C546.319 42.152 546.511 42.216 546.724 42.216H566.436C568.1 42.216 569.593 42.6213 570.916 43.432C572.239 44.2427 573.305 45.3093 574.116 46.632C574.927 47.9547 575.332 49.4267 575.332 51.048V56.168C575.332 57.7893 574.927 59.2613 574.116 60.584C573.305 61.9067 572.239 62.9733 570.916 63.784C569.593 64.5947 568.1 65 566.436 65H546.404ZM589.284 65C587.662 65 586.19 64.5947 584.868 63.784C583.545 62.9733 582.478 61.9067 581.668 60.584C580.857 59.2613 580.452 57.7893 580.452 56.168V36.712C580.452 35.0907 580.857 33.6187 581.668 32.296C582.478 30.9733 583.545 29.9067 584.868 29.096C586.19 28.2853 587.662 27.88 589.284 27.88H609.316C610.937 27.88 612.409 28.2853 613.732 29.096C615.097 29.9067 616.164 30.9733 616.932 32.296C617.742 33.6187 618.148 35.0907 618.148 36.712V50.664H588.836V55.848C588.836 56.0613 588.9 56.2533 589.028 56.424C589.198 56.552 589.39 56.616 589.604 56.616H618.148V65H589.284ZM588.836 43.112H609.764V37.032C609.764 36.8187 609.678 36.648 609.507 36.52C609.38 36.3493 609.209 36.264 608.996 36.264H589.604C589.39 36.264 589.198 36.3493 589.028 36.52C588.9 36.648 588.836 36.8187 588.836 37.032V43.112Z" fill="#E4FCF7"/>
<g clip-path="url(#clip0_502_105)">
<path fill-rule="evenodd" clip-rule="evenodd" d="M40.7547 27.1698C41.5883 27.1698 42.2641 27.8456 42.2641 28.6792V31.6981H48.3019C49.1355 31.6981 49.8113 32.3739 49.8113 33.2075C49.8113 34.0412 49.1355 34.717 48.3019 34.717H36.9811C35.7306 34.717 34.717 35.7307 34.717 36.9811C34.717 38.2315 35.7306 39.2453 36.9811 39.2453H44.5283C47.446 39.2453 49.8113 41.6106 49.8113 44.5283C49.8113 47.446 47.446 49.8113 44.5283 49.8113H42.2641V52.8302C42.2641 53.6638 41.5883 54.3396 40.7547 54.3396C39.921 54.3396 39.2453 53.6638 39.2453 52.8302V49.8113H33.2075C32.3739 49.8113 31.6981 49.1355 31.6981 48.3019C31.6981 47.4682 32.3739 46.7924 33.2075 46.7924H44.5283C45.7787 46.7924 46.7924 45.7787 46.7924 44.5283C46.7924 43.2779 45.7787 42.2641 44.5283 42.2641H36.9811C34.0634 42.2641 31.6981 39.8989 31.6981 36.9811C31.6981 34.0634 34.0634 31.6981 36.9811 31.6981H39.2453V28.6792C39.2453 27.8456 39.921 27.1698 40.7547 27.1698Z" fill="#24B563"/>
<path d="M35.948 65.0691V77.3978C35.948 79.0245 34.493 80.2231 32.9524 79.9662C14.2081 76.5416 0.00012207 60.1033 0.00012207 40.3261C0.00012207 31.9357 2.56783 24.2303 6.93293 17.7235C7.87443 16.3536 9.75741 16.1824 10.8701 17.2954L19.6003 26.0282C20.4562 26.8844 20.5418 28.083 20.0282 29.1104C18.2309 32.4494 17.2038 36.2165 17.2038 40.2405C17.2038 50.8568 24.3078 59.7609 34.0651 62.5006C35.1777 62.843 35.948 63.8704 35.948 65.0691Z" fill="#E4FCF7"/>
<path d="M65.0488 35.7884C63.9361 35.7884 62.909 35.0179 62.5666 33.9049C59.8277 24.2303 50.9264 17.2098 40.3132 17.2098C36.2048 17.2098 32.3533 18.2372 29.0152 20.1207C27.9882 20.72 26.7043 20.5488 25.934 19.6926L17.2038 10.9598C16.0911 9.84681 16.2623 7.96326 17.6317 7.02149C24.051 2.56946 31.9253 0.000976562 40.3987 0.000976562C60.0845 0.000976562 76.4323 14.042 79.9415 32.7063C80.2838 34.333 79.0856 35.7884 77.4593 35.7884H65.0488Z" fill="#FFEECC" fill-opacity="0.92549"/>
<path d="M79.9414 47.6889C76.9458 63.956 64.1072 76.7984 47.9307 79.8806C46.3901 80.1374 44.935 78.9388 44.935 77.3121V64.9834C44.935 63.8704 45.7053 62.843 46.818 62.5005C54.4355 60.2745 60.5125 54.1958 62.6522 46.5759C62.9946 45.4629 63.9361 44.6924 65.1343 44.6924H77.4593C79 44.6924 80.1982 46.1479 79.9414 47.6889Z" fill="#E2F5FD"/>
</g>
<defs>
<clipPath id="clip0_502_105">
<rect width="80" height="80" fill="white"/>
</clipPath>
</defs>
</svg>
