<svg width="285" height="154" viewBox="0 0 285 154" fill="none" xmlns="http://www.w3.org/2000/svg">
<path d="M35.968 36.848C38.4853 39.8347 39.744 43.184 39.744 46.896C39.6587 51.1627 38.1867 54.7467 35.328 57.648C32.512 60.5067 29.0773 61.936 25.024 61.936H8.192C5.20533 61.936 3.456 61.1253 2.944 59.504C2.688 58.7787 2.56 57.6693 2.56 56.176V20.656C2.56 19.632 2.58133 18.8853 2.624 18.416C2.70933 17.9467 2.92267 17.392 3.264 16.752C3.86133 15.6 5.52533 15.024 8.256 15.024H24.384C28.3093 15.024 31.5947 16.3893 34.24 19.12C37.0133 21.8933 38.4 25.2213 38.4 29.104C38.4 31.92 37.5893 34.5013 35.968 36.848ZM28.416 46.256C28.416 45.232 28.288 44.4213 28.032 43.824C27.8187 43.2267 27.4347 42.8 26.88 42.544C26.0267 42.2027 24.832 42.032 23.296 42.032C21.76 42.032 20.608 41.7333 19.84 41.136C19.072 40.5387 18.688 39.3227 18.688 37.488C18.688 35.6107 19.072 34.3733 19.84 33.776C20.6507 33.1787 21.9733 32.88 23.808 32.88C25.5147 32.88 26.5387 32.432 26.88 31.536C27.008 31.0667 27.072 30.2987 27.072 29.232C27.072 28.1653 26.7093 27.4187 25.984 26.992C25.3013 26.5653 24.256 26.352 22.848 26.352H13.888V50.608H24.384C27.072 50.608 28.416 49.1573 28.416 46.256ZM58.911 61.872C54.6017 61.872 51.0177 60.2507 48.159 57.008C45.343 53.7227 43.935 49.7333 43.935 45.04V33.84C43.935 32.816 43.9563 32.0693 43.999 31.6C44.0843 31.1307 44.2763 30.576 44.575 29.936C45.1723 28.784 46.8363 28.208 49.567 28.208C52.5537 28.208 54.303 29.0187 54.815 30.64C55.071 31.3227 55.199 32.4107 55.199 33.904V45.104C55.199 46.8533 55.6897 48.2187 56.671 49.2C57.695 50.1813 59.039 50.672 60.703 50.672C62.4097 50.672 63.775 50.16 64.799 49.136C65.8657 48.112 66.399 46.768 66.399 45.104V33.776C66.399 32.7947 66.4203 32.0693 66.463 31.6C66.5483 31.088 66.7617 30.512 67.103 29.872C67.6577 28.7627 69.3003 28.208 72.031 28.208C74.719 28.208 76.3617 28.784 76.959 29.936C77.2577 30.576 77.4283 31.152 77.471 31.664C77.5563 32.1333 77.599 32.8587 77.599 33.84V56.496C77.599 57.4347 77.5563 58.16 77.471 58.672C77.4283 59.1413 77.2363 59.6747 76.895 60.272C76.255 61.3813 74.6123 61.936 71.967 61.936C69.3643 61.936 67.7643 61.424 67.167 60.4C66.7403 59.6747 66.527 58.8 66.527 57.776C66.3563 58.0747 65.9723 58.5013 65.375 59.056C64.7777 59.6107 64.2017 60.08 63.647 60.464C62.1963 61.4027 60.6177 61.872 58.911 61.872ZM105.34 14.256C105.681 13.616 106.257 13.168 107.068 12.912C107.878 12.656 108.945 12.528 110.268 12.528C111.633 12.528 112.721 12.656 113.532 12.912C114.342 13.168 114.897 13.616 115.196 14.256C115.537 14.896 115.729 15.472 115.772 15.984C115.857 16.4533 115.9 17.1787 115.9 18.16V56.368C115.9 57.3493 115.857 58.096 115.772 58.608C115.729 59.0773 115.537 59.6107 115.196 60.208C114.556 61.36 112.742 61.936 109.756 61.936C106.812 61.936 105.169 60.8907 104.828 58.8C103.036 60.848 100.54 61.872 97.3395 61.872C93.4995 61.872 90.0008 60.208 86.8435 56.88C83.6862 53.5093 82.1075 49.6053 82.1075 45.168C82.1075 40.688 83.6862 36.7627 86.8435 33.392C90.0435 30.0213 93.5422 28.336 97.3395 28.336C100.497 28.336 102.95 29.4027 104.7 31.536V18.096C104.7 17.1147 104.721 16.3893 104.764 15.92C104.849 15.408 105.041 14.8533 105.34 14.256ZM94.9715 49.008C96.0808 50.16 97.4248 50.736 99.0035 50.736C100.582 50.736 101.884 50.16 102.908 49.008C103.974 47.856 104.508 46.5973 104.508 45.232C104.508 43.824 103.996 42.5227 102.972 41.328C101.99 40.1333 100.646 39.536 98.9395 39.536C97.2328 39.536 95.8675 40.1333 94.8435 41.328C93.8195 42.48 93.3075 43.76 93.3075 45.168C93.3075 46.576 93.8622 47.856 94.9715 49.008ZM142.374 57.776C140.752 59.9093 138.171 60.976 134.63 60.976C131.088 60.976 127.76 59.3547 124.646 56.112C121.574 52.8267 120.038 49.008 120.038 44.656C120.038 40.304 121.595 36.4853 124.71 33.2C127.824 29.9147 131.238 28.272 134.95 28.272C136.4 28.272 137.723 28.5493 138.918 29.104C140.112 29.616 140.923 30.1067 141.35 30.576C141.819 31.0027 142.182 31.408 142.438 31.792C142.566 30.5973 142.992 29.7013 143.718 29.104C144.486 28.464 145.702 28.144 147.366 28.144C149.03 28.144 150.246 28.272 151.014 28.528C151.782 28.784 152.315 29.232 152.614 29.872C152.955 30.4693 153.147 31.0027 153.19 31.472C153.275 31.9413 153.318 32.6667 153.318 33.648V60.144C153.318 65.0507 151.611 68.9973 148.198 71.984C144.784 75.0133 140.944 76.528 136.678 76.528C133.435 76.528 130.342 75.7387 127.398 74.16C124.454 72.5813 122.982 71.152 122.982 69.872C122.982 68.208 123.622 66.736 124.902 65.456C125.712 64.56 126.331 63.9413 126.758 63.6C127.227 63.2587 127.76 63.088 128.358 63.088C128.955 63.088 129.574 63.344 130.214 63.856C132.262 65.4347 134.48 66.224 136.87 66.224C138.491 66.224 139.814 65.584 140.838 64.304C141.862 63.024 142.374 61.488 142.374 59.696V57.776ZM130.982 44.72C130.982 46.0853 131.515 47.3227 132.582 48.432C133.691 49.5413 135.014 50.096 136.55 50.096C138.128 50.096 139.43 49.5413 140.454 48.432C141.478 47.28 141.99 46.0427 141.99 44.72C141.99 43.3547 141.499 42.096 140.518 40.944C139.536 39.7493 138.214 39.152 136.55 39.152C134.886 39.152 133.542 39.728 132.518 40.88C131.494 42.032 130.982 43.312 130.982 44.72ZM190.947 41.136C190.947 43.7387 190.286 45.68 188.963 46.96C187.683 48.1973 186.254 48.816 184.675 48.816H169.507C169.507 50.0107 170.211 51.0133 171.619 51.824C173.027 52.6347 174.435 53.04 175.843 53.04C178.318 53.04 180.259 52.784 181.667 52.272L182.371 52.016C183.395 51.5467 184.248 51.312 184.931 51.312C186.296 51.312 187.47 52.272 188.451 54.192C189.006 55.344 189.283 56.3253 189.283 57.136C189.283 60.9333 184.739 62.832 175.651 62.832C172.494 62.832 169.678 62.2987 167.203 61.232C164.771 60.1227 162.872 58.672 161.507 56.88C158.819 53.424 157.475 49.5627 157.475 45.296C157.475 39.92 159.203 35.632 162.659 32.432C166.158 29.1893 170.51 27.568 175.715 27.568C181.646 27.568 185.998 29.6587 188.771 33.84C190.222 36.0587 190.947 38.4907 190.947 41.136ZM177.443 42.992C179.064 42.992 179.875 42.3093 179.875 40.944C179.875 39.9627 179.491 39.1733 178.723 38.576C177.998 37.9787 176.931 37.68 175.523 37.68C174.158 37.68 172.792 38.256 171.427 39.408C170.062 40.5173 169.379 41.712 169.379 42.992H177.443ZM214.082 39.6L209.922 39.344V48.176C209.922 49.328 210.092 50.16 210.434 50.672C210.818 51.184 211.5 51.44 212.482 51.44C213.506 51.44 214.274 51.4827 214.786 51.568C215.34 51.6107 215.916 51.8027 216.514 52.144C217.495 52.6987 217.986 54.128 217.986 56.432C217.986 59.12 217.388 60.7627 216.194 61.36C215.554 61.6587 214.978 61.8507 214.466 61.936C213.996 61.9787 213.292 62 212.354 62C207.916 62 204.546 60.9973 202.242 58.992C199.938 56.9867 198.786 53.5947 198.786 48.816V39.344C197.975 39.472 197.1 39.536 196.161 39.536C195.223 39.536 194.434 39.1733 193.794 38.448C193.196 37.7227 192.898 36.4853 192.898 34.736C192.898 32.9867 193.004 31.728 193.218 30.96C193.431 30.1493 193.73 29.5733 194.114 29.232C194.796 28.6773 195.65 28.4 196.674 28.4L198.786 28.656V22.064C198.786 21.0827 198.807 20.3573 198.85 19.888C198.935 19.4187 199.148 18.9067 199.49 18.352C200.044 17.2853 201.687 16.752 204.418 16.752C207.319 16.752 209.047 17.5413 209.602 19.12C209.815 19.8027 209.922 20.8907 209.922 22.384V28.656C211.799 28.4853 213.207 28.4 214.146 28.4C215.127 28.4 215.852 28.4427 216.322 28.528C216.834 28.5707 217.41 28.7627 218.05 29.104C219.159 29.6587 219.714 31.3013 219.714 34.032C219.714 36.72 219.138 38.3627 217.986 38.96C217.346 39.2587 216.77 39.4507 216.258 39.536C215.788 39.5787 215.063 39.6 214.082 39.6ZM54.1945 92.024H89.7785C91.1438 92.024 92.1465 92.1947 92.7865 92.536C93.4265 92.8347 93.8532 93.3253 94.0665 94.008C94.2798 94.6907 94.3865 95.5867 94.3865 96.696C94.3865 97.8053 94.2798 98.7013 94.0665 99.384C93.8532 100.024 93.4905 100.472 92.9785 100.728C92.2105 101.112 91.1225 101.304 89.7145 101.304H77.4905V133.496C77.4905 134.477 77.4478 135.203 77.3625 135.672C77.3198 136.141 77.1278 136.696 76.7865 137.336C76.4878 137.933 75.9332 138.36 75.1225 138.616C74.3118 138.872 73.2452 139 71.9225 139C70.5998 139 69.5332 138.872 68.7225 138.616C67.9545 138.36 67.3998 137.933 67.0585 137.336C66.7598 136.696 66.5678 136.141 66.4825 135.672C66.4398 135.16 66.4185 134.413 66.4185 133.432V101.304H54.1305C52.7652 101.304 51.7625 101.155 51.1225 100.856C50.4825 100.515 50.0558 100.003 49.8425 99.32C49.6292 98.6373 49.5225 97.7413 49.5225 96.632C49.5225 95.5227 49.6292 94.648 49.8425 94.008C50.0558 93.3253 50.4185 92.856 50.9305 92.6C51.6985 92.216 52.7865 92.024 54.1945 92.024ZM113.16 105.656C113.97 105.912 114.632 106.36 115.144 107C115.698 107.597 115.976 108.579 115.976 109.944C115.976 111.309 115.57 112.803 114.76 114.424C113.949 116.045 112.776 116.856 111.24 116.856C110.472 116.856 109.725 116.685 109 116.344C108.317 116.003 107.4 115.832 106.248 115.832C105.096 115.832 104.008 116.237 102.984 117.048C102.002 117.859 101.512 118.84 101.512 119.992V133.432C101.512 134.413 101.469 135.16 101.384 135.672C101.341 136.141 101.149 136.696 100.808 137.336C100.168 138.445 98.5035 139 95.8155 139C93.7675 139 92.2955 138.637 91.3995 137.912C90.7168 137.315 90.3328 136.397 90.2475 135.16C90.2475 134.733 90.2475 134.115 90.2475 133.304V110.84C90.2475 109.859 90.2688 109.133 90.3115 108.664C90.3968 108.152 90.5888 107.597 90.8875 107C91.4848 105.848 93.1488 105.272 95.8795 105.272C98.4395 105.272 100.04 105.763 100.68 106.744C101.149 107.427 101.384 108.131 101.384 108.856C101.597 108.557 101.896 108.195 102.28 107.768C102.706 107.341 103.581 106.765 104.904 106.04C106.226 105.315 107.378 104.952 108.36 104.952C109.384 104.952 110.237 105.016 110.92 105.144C111.602 105.229 112.349 105.4 113.16 105.656ZM139.448 108.856C139.704 106.467 141.389 105.272 144.504 105.272C146.168 105.272 147.405 105.4 148.216 105.656C149.027 105.912 149.581 106.36 149.88 107C150.221 107.64 150.413 108.216 150.456 108.728C150.541 109.197 150.584 109.923 150.584 110.904V133.304C150.584 134.285 150.541 135.032 150.456 135.544C150.413 136.013 150.243 136.568 149.944 137.208C149.347 138.317 147.875 138.872 145.528 138.872C143.224 138.872 141.667 138.595 140.856 138.04C140.088 137.443 139.64 136.589 139.512 135.48C137.933 137.741 135.288 138.872 131.576 138.872C127.907 138.872 124.493 137.187 121.336 133.816C118.179 130.445 116.6 126.541 116.6 122.104C116.6 117.624 118.179 113.72 121.336 110.392C124.536 107.021 128.035 105.336 131.832 105.336C133.283 105.336 134.605 105.592 135.8 106.104C136.995 106.616 137.827 107.107 138.296 107.576C138.765 108.003 139.149 108.429 139.448 108.856ZM127.8 122.168C127.8 123.576 128.355 124.856 129.464 126.008C130.573 127.117 131.917 127.672 133.496 127.672C135.075 127.672 136.376 127.096 137.4 125.944C138.467 124.792 139 123.533 139 122.168C139 120.76 138.488 119.459 137.464 118.264C136.483 117.069 135.139 116.472 133.432 116.472C131.768 116.472 130.403 117.069 129.336 118.264C128.312 119.459 127.8 120.76 127.8 122.168ZM166.245 122.168C166.245 123.96 166.842 125.368 168.037 126.392C169.232 127.373 170.49 127.864 171.813 127.864C173.178 127.864 174.437 127.48 175.589 126.712C176.784 125.901 177.744 125.496 178.469 125.496C179.749 125.496 181.306 126.627 183.141 128.888C184.122 130.125 184.613 131.235 184.613 132.216C184.613 133.837 183.44 135.352 181.093 136.76C178.661 138.467 175.674 139.32 172.133 139.32C168.165 139.32 164.346 137.891 160.677 135.032C158.928 133.667 157.498 131.853 156.389 129.592C155.28 127.288 154.725 124.771 154.725 122.04C154.725 119.267 155.28 116.771 156.389 114.552C157.498 112.291 158.928 110.477 160.677 109.112C164.218 106.296 167.994 104.888 172.005 104.888C173.626 104.888 175.205 105.123 176.741 105.592C178.277 106.019 179.408 106.445 180.133 106.872L181.157 107.512C181.925 108.024 182.522 108.429 182.949 108.728C184.058 109.581 184.613 110.563 184.613 111.672C184.613 112.739 184.165 113.955 183.269 115.32C181.733 117.667 180.261 118.84 178.853 118.84C178.042 118.84 176.89 118.371 175.397 117.432C174.629 116.707 173.52 116.344 172.069 116.344C170.661 116.344 169.338 116.856 168.101 117.88C166.864 118.904 166.245 120.333 166.245 122.168ZM208.588 122.104L217.1 129.144C218.166 130.04 218.828 130.723 219.083 131.192C219.382 131.661 219.532 132.109 219.532 132.536C219.532 133.56 218.87 134.947 217.548 136.696C216.097 138.488 214.817 139.384 213.708 139.384C212.769 139.384 211.468 138.765 209.804 137.528L209.164 137.08C208.182 136.269 206.668 134.861 204.62 132.856C202.572 130.808 201.014 129.357 199.948 128.504V133.432C199.948 134.413 199.905 135.16 199.82 135.672C199.777 136.141 199.585 136.696 199.244 137.336C198.689 138.445 197.046 139 194.316 139C191.628 139 189.985 138.424 189.388 137.272C189.089 136.632 188.897 136.077 188.812 135.608C188.769 135.096 188.748 134.349 188.748 133.368V95.032C188.748 94.0507 188.769 93.3253 188.812 92.856C188.897 92.344 189.089 91.768 189.388 91.128C189.985 89.976 191.649 89.4 194.38 89.4C196.428 89.4 197.878 89.7627 198.732 90.488C199.457 91.0853 199.841 92.024 199.884 93.304C199.926 93.688 199.948 94.2853 199.948 95.096V115.384C200.716 114.744 201.868 113.656 203.404 112.12C204.982 110.584 206.156 109.496 206.924 108.856L207.692 108.344C209.185 107.192 210.465 106.616 211.532 106.616C212.598 106.616 213.814 107.491 215.18 109.24C216.588 110.947 217.292 112.291 217.292 113.272C217.292 114.253 216.502 115.405 214.924 116.728L208.588 122.104ZM253.635 118.136C253.635 120.739 252.973 122.68 251.651 123.96C250.371 125.197 248.941 125.816 247.363 125.816H232.195C232.195 127.011 232.899 128.013 234.307 128.824C235.715 129.635 237.123 130.04 238.531 130.04C241.005 130.04 242.947 129.784 244.355 129.272L245.059 129.016C246.083 128.547 246.936 128.312 247.619 128.312C248.984 128.312 250.157 129.272 251.139 131.192C251.693 132.344 251.971 133.325 251.971 134.136C251.971 137.933 247.427 139.832 238.339 139.832C235.181 139.832 232.365 139.299 229.891 138.232C227.459 137.123 225.56 135.672 224.195 133.88C221.507 130.424 220.163 126.563 220.163 122.296C220.163 116.92 221.891 112.632 225.347 109.432C228.845 106.189 233.197 104.568 238.403 104.568C244.333 104.568 248.685 106.659 251.458 110.84C252.909 113.059 253.635 115.491 253.635 118.136ZM240.131 119.992C241.752 119.992 242.563 119.309 242.563 117.944C242.563 116.963 242.179 116.173 241.411 115.576C240.685 114.979 239.619 114.68 238.211 114.68C236.845 114.68 235.48 115.256 234.115 116.408C232.749 117.517 232.067 118.712 232.067 119.992H240.131ZM280.722 105.656C281.533 105.912 282.194 106.36 282.706 107C283.261 107.597 283.538 108.579 283.538 109.944C283.538 111.309 283.133 112.803 282.322 114.424C281.511 116.045 280.338 116.856 278.802 116.856C278.034 116.856 277.287 116.685 276.562 116.344C275.879 116.003 274.962 115.832 273.81 115.832C272.658 115.832 271.57 116.237 270.546 117.048C269.565 117.859 269.074 118.84 269.074 119.992V133.432C269.074 134.413 269.031 135.16 268.946 135.672C268.903 136.141 268.711 136.696 268.37 137.336C267.73 138.445 266.066 139 263.378 139C261.33 139 259.858 138.637 258.962 137.912C258.279 137.315 257.895 136.397 257.81 135.16C257.81 134.733 257.81 134.115 257.81 133.304V110.84C257.81 109.859 257.831 109.133 257.874 108.664C257.959 108.152 258.151 107.597 258.45 107C259.047 105.848 260.711 105.272 263.442 105.272C266.002 105.272 267.602 105.763 268.242 106.744C268.711 107.427 268.946 108.131 268.946 108.856C269.159 108.557 269.458 108.195 269.842 107.768C270.269 107.341 271.143 106.765 272.466 106.04C273.789 105.315 274.941 104.952 275.922 104.952C276.946 104.952 277.799 105.016 278.482 105.144C279.165 105.229 279.911 105.4 280.722 105.656Z" fill="white"/>
<rect x="2" y="79" width="40" height="9.9839" rx="3" fill="white"/>
<path fill-rule="evenodd" clip-rule="evenodd" d="M17 85.0869C7.61116 85.0869 0 92.6981 0 102.087V122C0 131.389 7.61116 139 17 139H27C36.3888 139 44 131.389 44 122V102.087C44 92.6981 36.3888 85.0869 27 85.0869H17ZM22 97C30.2847 97 37 103.814 37 112.217C37 120.621 30.2846 127.435 22 127.435C13.7154 127.435 7 120.621 7 112.217C7 103.814 13.7154 97 22 97ZM22 99.8533C15.2687 99.8533 9.8125 105.389 9.8125 112.217C9.8125 119.046 15.2688 124.582 22 124.582C28.7312 124.582 34.1875 119.046 34.1875 112.217C34.1875 105.389 28.7313 99.8533 22 99.8533ZM22 122.679C16.3046 122.679 11.6875 117.995 11.6875 112.217C11.6875 106.439 16.3047 101.755 22 101.755C27.6952 101.755 32.3125 106.439 32.3125 112.217C32.3125 117.995 27.6963 122.679 22 122.679ZM22.6818 111.243L22.6818 111.243C21.8639 111.007 20.6257 110.649 20.6257 109.941C20.6257 109.266 21.3963 109.071 21.8585 109.071C22.2795 109.071 22.7838 109.206 23.0501 109.475C23.2189 109.64 23.2883 109.76 23.3436 109.925C23.3506 109.945 23.3574 109.965 23.3642 109.984C23.4246 110.16 23.4828 110.33 23.7224 110.33H25.0958C25.4182 110.33 25.5026 110.27 25.5026 109.91C25.5026 108.367 24.311 107.498 22.9517 107.199V106C22.9517 105.731 22.8673 105.565 22.5448 105.565H21.4508C21.1284 105.565 21.0439 105.73 21.0439 106V107.153C19.5861 107.437 18.3674 108.366 18.3674 110.044C18.3674 111.946 19.6715 112.546 21.0861 113.024C21.3989 113.13 21.7156 113.21 22.0126 113.284C22.8469 113.494 23.5255 113.664 23.5255 114.282C23.5255 115.121 22.9096 115.301 22.1521 115.301C21.6327 115.301 21.059 115.165 20.7777 114.806C20.5958 114.582 20.5255 114.387 20.5125 114.192C20.4843 113.817 20.3306 113.773 20.0072 113.773H18.6478C18.3253 113.773 18.2409 113.849 18.2409 114.192C18.2409 115.899 19.5871 116.934 21.044 117.263V118.432C21.044 118.701 21.1285 118.867 21.4509 118.867H22.545C22.8674 118.867 22.9518 118.701 22.9518 118.432V117.295C24.6056 117.039 25.7409 116.021 25.7409 114.223C25.7425 112.234 24.3242 111.773 23.3174 111.446L23.2469 111.423C23.1209 111.37 22.919 111.311 22.6818 111.243Z" fill="white"/>
</svg>
