<svg width="24" height="24" viewBox="0 0 24 24" fill="none" xmlns="http://www.w3.org/2000/svg">
<path d="M9 3C9 2.44772 8.55228 2 8 2C7.44772 2 7 2.44772 7 3V4H6C4.34315 4 3 5.34315 3 7V8H21V7C21 5.34315 19.6569 4 18 4H17V3C17 2.44772 16.5523 2 16 2C15.4477 2 15 2.44772 15 3V4H9V3Z" fill="currentColor"/>
<path fill-rule="evenodd" clip-rule="evenodd" d="M3 19V10H21V19C21 20.6569 19.6569 22 18 22H6C4.34315 22 3 20.6569 3 19ZM8 12C7.44772 12 7 12.4477 7 13C7 13.5523 7.44772 14 8 14H8.01C8.56228 14 9.01 13.5523 9.01 13C9.01 12.4477 8.56228 12 8.01 12H8ZM12 12C11.4477 12 11 12.4477 11 13C11 13.5523 11.4477 14 12 14H12.01C12.5623 14 13.01 13.5523 13.01 13C13.01 12.4477 12.5623 12 12.01 12H12ZM16 12C15.4477 12 15 12.4477 15 13C15 13.5523 15.4477 14 16 14H16.01C16.5623 14 17.01 13.5523 17.01 13C17.01 12.4477 16.5623 12 16.01 12H16ZM8 16C7.44772 16 7 16.4477 7 17C7 17.5523 7.44772 18 8 18H8.01C8.56228 18 9.01 17.5523 9.01 17C9.01 16.4477 8.56228 16 8.01 16H8ZM12 16C11.4477 16 11 16.4477 11 17C11 17.5523 11.4477 18 12 18H12.01C12.5623 18 13.01 17.5523 13.01 17C13.01 16.4477 12.5623 16 12.01 16H12ZM16 16C15.4477 16 15 16.4477 15 17C15 17.5523 15.4477 18 16 18H16.01C16.5623 18 17.01 17.5523 17.01 17C17.01 16.4477 16.5623 16 16.01 16H16Z" fill="currentColor"/>
</svg>
