<svg width="24" height="24" viewBox="0 0 24 24" fill="none" xmlns="http://www.w3.org/2000/svg">
<path d="M2 7C2 5.34315 3.34315 4 5 4H19C20.6569 4 22 5.34315 22 7V8H2V7Z" fill="currentColor"/>
<path d="M2 10H22V13.416C21.3875 13.1484 20.7111 13 20 13H18.7855C17.8912 11.7569 16.4441 11 14.882 11H14C12.8742 11 11.8353 11.3721 10.9995 12H7C6.44772 12 6 12.4477 6 13C6 13.5523 6.44772 14 7 14H9.41604C9.14845 14.6125 9 15.2889 9 16V20H5C3.34315 20 2 18.6569 2 17V10Z" fill="currentColor"/>
<path fill-rule="evenodd" clip-rule="evenodd" d="M11 16C11 14.3431 12.3431 13 14 13H14.882C15.9459 13 16.9186 13.6011 17.3944 14.5528C17.5315 14.8269 17.8116 15 18.118 15H20C21.6569 15 23 16.3431 23 18V20C23 21.6569 21.6569 23 20 23H14C12.3431 23 11 21.6569 11 20V16Z" fill="currentColor"/>
</svg>
