<svg width="24" height="24" viewBox="0 0 24 24" fill="currentColor" xmlns="http://www.w3.org/2000/svg">
<g clip-path="url(#clip0_703_5827)">
<path fill-rule="evenodd" clip-rule="evenodd" d="M12 4C8.86041 4 6.14134 5.80844 4.83106 8.44503C4.58528 8.93961 3.98509 9.1413 3.49052 8.89551C2.99594 8.64973 2.79425 8.04955 3.04003 7.55497C4.67517 4.26468 8.07221 2 12 2C16.4777 2 20.268 4.94289 21.5422 9H23C23.4045 9 23.7691 9.24364 23.9239 9.61732C24.0787 9.99099 23.9931 10.4211 23.7071 10.7071L21.7071 12.7071C21.3166 13.0976 20.6834 13.0976 20.2929 12.7071L18.2929 10.7071C18.0069 10.4211 17.9214 9.99099 18.0761 9.61732C18.2309 9.24364 18.5956 9 19 9H19.4185C18.2317 6.06817 15.3574 4 12 4ZM11.1657 6.58847C11.7889 6.13978 12.5067 6 13 6C13.4934 6 14.2112 6.13978 14.8343 6.58847C15.5085 7.07386 16 7.87408 16 9C16 9.55228 15.5523 10 15 10C14.4477 10 14 9.55228 14 9C14 8.52592 13.8249 8.32614 13.6657 8.21153C13.4556 8.06022 13.1733 8 13 8C12.8267 8 12.5445 8.06022 12.3343 8.21153C12.1752 8.32614 12 8.52592 12 9V11H13C13.5523 11 14 11.4477 14 12C14 12.5523 13.5523 13 13 13H12V14C12 14.2804 11.9549 14.6332 11.8336 15H15C15.5523 15 16 15.4477 16 16C16 16.5523 15.5523 17 15 17H9.00003C8.44774 17 8.00003 16.5523 8.00003 16C8.00003 15.4477 8.44774 15 9.00003 15C9.47411 15 9.67389 14.8249 9.7885 14.6657C9.93981 14.4555 10 14.1733 10 14V13H9.00003C8.44774 13 8.00003 12.5523 8.00003 12C8.00003 11.4477 8.44774 11 9.00003 11H10V9C10 7.87408 10.4916 7.07386 11.1657 6.58847ZM2.29292 11.2929C2.68345 10.9024 3.31661 10.9024 3.70714 11.2929L5.70714 13.2929C5.99313 13.5789 6.07869 14.009 5.92391 14.3827C5.76913 14.7564 5.40449 15 5.00003 15H4.58155C5.76832 17.9318 8.64265 20 12 20C15.1397 20 17.8587 18.1916 19.169 15.555C19.4148 15.0604 20.015 14.8587 20.5095 15.1045C21.0041 15.3503 21.2058 15.9505 20.96 16.445C19.3249 19.7353 15.9279 22 12 22C7.52239 22 3.73209 19.0571 2.45783 15H1.00003C0.595567 15 0.230931 14.7564 0.0761497 14.3827C-0.0786313 14.009 0.00692445 13.5789 0.292922 13.2929L2.29292 11.2929Z" fill="currentColor"/>
</g>
<defs>
<clipPath id="clip0_703_5827">
<rect width="24" height="24" fill="white"/>
</clipPath>
</defs>
</svg>
