<svg width="24" height="24" viewBox="0 0 24 24" fill="none" xmlns="http://www.w3.org/2000/svg">
<path d="M13.2992 20.442L18.5501 14.817C19.1964 14.124 19.1404 13.0564 18.4194 12.4331C17.702 11.8099 16.5948 11.8661 15.9485 12.5591L13.7495 14.9137L13.7495 4.6875C13.7495 3.75487 12.9667 3 11.9996 3C11.0324 3 10.2496 3.75487 10.2496 4.6875L10.2496 14.916L8.05057 12.558C7.4031 11.865 6.29715 11.8087 5.57968 12.432C5.19587 12.7661 4.99988 13.2262 4.99988 13.6875C4.99988 14.0902 5.14804 14.4941 5.44902 14.8159L10.6976 20.4409C11.0289 20.7964 11.5026 21 11.9984 21C12.4942 21 12.9678 20.7964 13.2992 20.442Z" fill="#FF6B69"/>
</svg>
