<svg xmlns="http://www.w3.org/2000/svg" width="24" height="24" viewBox="0 0 24 24" fill="none"><path fill-rule="evenodd" clip-rule="evenodd" d="M9.29289 3.79289C9.68342 3.40237 10.3166 3.40237 10.7071 3.79289L12 5.08579L13.2929 3.79289C13.6834 3.40237 14.3166 3.40237 14.7071 3.79289C15.0976 4.18342 15.0976 4.81658 14.7071 5.20711L13.4142 6.5L14.7071 7.79289C15.0976 8.18342 15.0976 8.81658 14.7071 9.20711C14.3166 9.59763 13.6834 9.59763 13.2929 9.20711L12 7.91421L10.7071 9.20711C10.3166 9.59763 9.68342 9.59763 9.29289 9.20711C8.90237 8.81658 8.90237 8.18342 9.29289 7.79289L10.5858 6.5L9.29289 5.20711C8.90237 4.81658 8.90237 4.18342 9.29289 3.79289ZM5.31623 6.05132C5.84017 6.22596 6.12333 6.79228 5.94868 7.31623L4.38743 12H6.92963C7.93269 12 8.86939 12.5013 9.42578 13.3359L10.2383 14.5547C10.4238 14.8329 10.736 15 11.0704 15H12.9296C13.264 15 13.5762 14.8329 13.7617 14.5547L14.5742 13.3359C15.1306 12.5013 16.0673 12 17.0704 12H19.6126L18.0513 7.31623C17.8767 6.79228 18.1598 6.22596 18.6838 6.05132C19.2077 5.87667 19.774 6.15983 19.9487 6.68377L21.9487 12.6838C21.9827 12.7857 22 12.8925 22 13V18C22 19.6569 20.6569 21 19 21H5C3.34315 21 2 19.6569 2 18V13C2 12.8925 2.01733 12.7857 2.05132 12.6838L4.05132 6.68377C4.22596 6.15983 4.79228 5.87667 5.31623 6.05132Z" fill="currentColor"/></svg>