<svg width="24" height="24" viewBox="0 0 24 24" xmlns="http://www.w3.org/2000/svg">
<path fill="currentColor" d="M15 22H9C6.79086 22 5 20.2091 5 18V10.8835C5 9.48175 5.49078 8.12425 6.38717 7.04659L8.20833 4.85714H7.3619C6.57293 4.85714 5.93333 4.21755 5.93333 3.42857C5.93333 2.63959 6.57293 2 7.3619 2H16.6381C17.4271 2 18.0667 2.63959 18.0667 3.42857C18.0667 4.21755 17.4271 4.85714 16.6381 4.85714H15.7917L17.6128 7.04659C18.5092 8.12425 19 9.48175 19 10.8835V18C19 20.2091 17.2091 22 15 22Z"/>
</svg>
