<svg width="24" height="24" viewBox="0 0 24 24" fill="none" xmlns="http://www.w3.org/2000/svg">
<path d="M8 5H16V6C16 7.92592 16.8249 9.22614 17.9157 10.0115C18.9555 10.7602 20.1733 11 21 11H22V12.7464C21.6675 12.4163 21.3322 12.0892 20.9933 11.7658C20.4924 11.2878 19.8754 11.0396 19.1774 11.0045C18.6511 10.978 18.1478 11.0673 17.6762 11.3036C16.9507 11.6671 16.4424 12.2278 16.1698 12.9952C16.1436 13.0693 16.1093 13.1306 16.0295 13.1572C15.5456 13.3184 15.1335 13.5899 14.7945 13.9698C14.7238 14.0489 14.6573 14.0675 14.5493 14.0455C14.4447 14.0242 14.3397 14.0098 14.2346 14.0017C14.7105 13.4707 15 12.7692 15 12C15 10.3431 13.6569 9 12 9C10.3431 9 9 10.3431 9 12C9 13.5769 10.2167 14.8697 11.7626 14.9907C11.4655 15.284 11.17 15.5788 10.8745 15.8736C10.5932 16.1542 10.312 16.4347 10.0295 16.7139C9.74244 16.9976 9.48231 17.2972 9.30605 17.6668C9.10054 18.0973 8.99855 18.5407 9.00001 19H8V18C8 16.0741 7.17513 14.7739 6.0843 13.9885C5.04446 13.2398 3.82669 13 3 13H2V11H3C3.82669 11 5.04446 10.7602 6.0843 10.0115C7.17513 9.22614 8 7.92592 8 6V5Z" fill="currentColor"/>
<path d="M12 11C11.4477 11 11 11.4477 11 12C11 12.5523 11.4477 13 12 13C12.5523 13 13 12.5523 13 12C13 11.4477 12.5523 11 12 11Z" fill="currentColor"/>
<path d="M22 9V8C22 6.34315 20.6569 5 19 5H18V6C18 7.27408 18.5085 7.97386 19.0843 8.38847C19.7111 8.83978 20.4934 9 21 9H22Z" fill="currentColor"/>
<path d="M6 19V18C6 16.7259 5.49153 16.0261 4.91569 15.6115C4.28887 15.1602 3.50664 15 3 15H2V16C2 17.6569 3.34315 19 5 19H6Z" fill="currentColor"/>
<path d="M3 9H2V8C2 6.34315 3.34315 5 5 5H6V6C6 7.27408 5.49153 7.97386 4.91569 8.38847C4.28887 8.83978 3.50664 9 3 9Z" fill="currentColor"/>
<path fill-rule="evenodd" clip-rule="evenodd" d="M18.2929 13.2929C18.6834 12.9024 19.3166 12.9024 19.7071 13.2929L21.7071 15.2929C22.0976 15.6834 22.0976 16.3166 21.7071 16.7071L19.7071 18.7071C19.3166 19.0976 18.6834 19.0976 18.2929 18.7071C17.9024 18.3166 17.9024 17.6834 18.2929 17.2929L18.5858 17H17C16.4477 17 16 16.5523 16 16C16 15.4477 16.4477 15 17 15H18.5858L18.2929 14.7071C17.9024 14.3166 17.9024 13.6834 18.2929 13.2929ZM14.7071 16.2929C15.0976 16.6834 15.0976 17.3166 14.7071 17.7071L14.4142 18H16C16.5523 18 17 18.4477 17 19C17 19.5523 16.5523 20 16 20H14.4142L14.7071 20.2929C15.0976 20.6834 15.0976 21.3166 14.7071 21.7071C14.3166 22.0976 13.6834 22.0976 13.2929 21.7071L11.2929 19.7071C10.9024 19.3166 10.9024 18.6834 11.2929 18.2929L13.2929 16.2929C13.6834 15.9024 14.3166 15.9024 14.7071 16.2929Z" fill="currentColor"/>
</svg>
