<svg width="24" height="24" viewBox="0 0 24 24" fill="none" xmlns="http://www.w3.org/2000/svg">
<path d="M17.5339 10.7088L14.1213 14.1213C12.9497 15.2929 11.0503 15.2929 9.87868 14.1213C8.70711 12.9497 8.70711 11.0503 9.87868 9.87868L13.2912 6.46612C12.5109 5.92442 12 5.02188 12 4C12 3.64936 12.0602 3.31278 12.1707 3H6C4.34315 3 3 4.34315 3 6V18C3 19.6569 4.34315 21 6 21H18C19.6569 21 21 19.6569 21 18V11.8293C20.6872 11.9398 20.3506 12 20 12C18.9781 12 18.0756 11.4891 17.5339 10.7088Z" fill="currentColor"/>
<path d="M15 3C14.4477 3 14 3.44772 14 4C14 4.55228 14.4477 5 15 5H17.5858L11.2929 11.2929C10.9024 11.6834 10.9024 12.3166 11.2929 12.7071C11.6834 13.0976 12.3166 13.0976 12.7071 12.7071L19 6.41421V9C19 9.55228 19.4477 10 20 10C20.5523 10 21 9.55228 21 9V4C21 3.44772 20.5523 3 20 3H15Z" fill="currentColor"/>
</svg>
