<svg width="24" height="24" viewBox="0 0 24 24" fill="none" xmlns="http://www.w3.org/2000/svg">
<path fill-rule="evenodd" clip-rule="evenodd" d="M9.02319 2.78307C9.12487 2.32553 9.53068 2 9.99938 2H13.9994C14.4681 2 14.8739 2.32553 14.9756 2.78307L15.4159 4.76439C15.8154 4.95332 16.1965 5.17425 16.5561 5.42381L18.4933 4.81407C18.9404 4.67336 19.4252 4.86203 19.6596 5.26794L21.6596 8.73204C21.8939 9.13795 21.8149 9.65216 21.4695 9.96898L19.9727 11.342C19.9904 11.5592 19.9994 11.7786 19.9994 12C19.9994 12.2214 19.9904 12.4408 19.9727 12.658L21.4695 14.031C21.8149 14.3478 21.8939 14.862 21.6596 15.2679L19.6596 18.732C19.4252 19.1379 18.9404 19.3266 18.4933 19.1859L16.5561 18.5762C16.1966 18.8257 15.8154 19.0467 15.4159 19.2356L14.9756 21.2169C14.8739 21.6745 14.4681 22 13.9994 22H9.99938C9.53068 22 9.12487 21.6745 9.02319 21.2169L8.5829 19.2356C8.18339 19.0467 7.80219 18.8257 7.44261 18.5762L5.50534 19.1859C5.05826 19.3266 4.57344 19.1379 4.33909 18.732L2.33909 15.2679C2.10474 14.862 2.18375 14.3478 2.52915 14.031L4.0261 12.6579C4.0084 12.4408 3.99938 12.2213 3.99938 12C3.99938 11.7786 4.0084 11.5592 4.0261 11.3421L2.52915 9.96898C2.18375 9.65216 2.10474 9.13794 2.33909 8.73204L4.33909 5.26794C4.57344 4.86203 5.05826 4.67335 5.50534 4.81407L7.44263 5.42383C7.80221 5.17426 8.1834 4.95332 8.5829 4.76439L9.02319 2.78307ZM7.99938 12C7.99938 9.79086 9.79024 8 11.9994 8C14.2085 8 15.9994 9.79086 15.9994 12C15.9994 14.2091 14.2085 16 11.9994 16C9.79024 16 7.99938 14.2091 7.99938 12Z" fill="currentColor"/>
<path d="M13.9994 12C13.9994 13.1046 13.104 14 11.9994 14C10.8948 14 9.99938 13.1046 9.99938 12C9.99938 10.8954 10.8948 10 11.9994 10C13.104 10 13.9994 10.8954 13.9994 12Z" fill="currentColor"/>
</svg>
