<svg width="24" height="24" viewBox="0 0 24 24" fill="none" xmlns="http://www.w3.org/2000/svg">
<rect x="5" y="1" width="14" height="4" rx="2" fill="white"/>
<path fill-rule="evenodd" clip-rule="evenodd" d="M11 3C7.13401 3 4 6.13401 4 10V16.0001C4 19.8661 7.13401 23.0001 11 23.0001H13C16.866 23.0001 20 19.8661 20 16.0001V10C20 6.13401 16.866 3 13 3H11ZM12 7.16656C15.3139 7.16656 18 9.85308 18 13.1666C18 16.4801 15.3139 19.1666 12 19.1666C8.68614 19.1666 6 16.4801 6 13.1666C6 9.85304 8.68614 7.16656 12 7.16656ZM12 8.29156C9.30748 8.29156 7.125 10.4741 7.125 13.1666C7.125 15.8591 9.30752 18.0416 12 18.0416C14.6925 18.0416 16.875 15.8591 16.875 13.1666C16.875 10.4741 14.6925 8.29156 12 8.29156ZM12 17.2916C9.72185 17.2916 7.87499 15.4447 7.87499 13.1666C7.87499 10.8884 9.72189 9.04156 12 9.04156C14.2781 9.04156 16.125 10.8884 16.125 13.1666C16.125 15.4447 14.2785 17.2916 12 17.2916ZM12.4988 12.8535C12.4484 12.8323 12.3676 12.8093 12.2727 12.7823C11.9455 12.6892 11.4503 12.5482 11.4503 12.2688C11.4503 12.003 11.7585 11.9261 11.9434 11.9261C12.1118 11.9261 12.3135 11.9793 12.42 12.0855C12.4875 12.1503 12.5153 12.1976 12.5374 12.2628L12.5457 12.2861C12.5699 12.3555 12.5931 12.4222 12.6889 12.4222H13.2383C13.3673 12.4222 13.4011 12.3986 13.4011 12.2568C13.4011 11.6486 12.9244 11.3058 12.3807 11.1877V10.7152C12.3807 10.6091 12.3469 10.5438 12.2179 10.5438H11.7803C11.6513 10.5438 11.6176 10.6087 11.6176 10.7152V11.1697C11.0344 11.2818 10.5469 11.6482 10.5469 12.3097C10.5469 13.0597 11.0686 13.296 11.6344 13.4846C11.7596 13.5266 11.8862 13.5579 12.005 13.5872L12.005 13.5872C12.3387 13.6697 12.6102 13.7368 12.6102 13.9808C12.6102 14.3115 12.3638 14.3824 12.0608 14.3824C11.8531 14.3824 11.6236 14.3288 11.5111 14.1874C11.4383 14.0989 11.4102 14.022 11.405 13.9452C11.3937 13.7974 11.3322 13.7798 11.2029 13.7798H10.6591C10.5301 13.7798 10.4964 13.8098 10.4964 13.9452C10.4964 14.6183 11.0349 15.0263 11.6176 15.156V15.6169C11.6176 15.723 11.6514 15.7883 11.7804 15.7883H12.218C12.347 15.7883 12.3807 15.7231 12.3807 15.6169V15.1684C13.0422 15.0675 13.4964 14.6663 13.4964 13.9575C13.497 13.1731 12.9297 12.9914 12.5269 12.8625L12.4988 12.8535Z" fill="white"/>
</svg>
