<svg width="24" height="24" viewBox="0 0 24 24" fill="none" xmlns="http://www.w3.org/2000/svg">
<g clip-path="url(#clip0_524_85)">
<path fill-rule="evenodd" clip-rule="evenodd" d="M12.2264 8.15088C12.4765 8.15088 12.6792 8.35362 12.6792 8.60371V9.50937H14.4906C14.7407 9.50937 14.9434 9.71211 14.9434 9.9622C14.9434 10.2123 14.7407 10.415 14.4906 10.415H11.0943C10.7192 10.415 10.4151 10.7191 10.4151 11.0943C10.4151 11.4694 10.7192 11.7735 11.0943 11.7735H13.3585C14.2338 11.7735 14.9434 12.4831 14.9434 13.3584C14.9434 14.2337 14.2338 14.9433 13.3585 14.9433H12.6792V15.849C12.6792 16.0991 12.4765 16.3018 12.2264 16.3018C11.9763 16.3018 11.7736 16.0991 11.7736 15.849V14.9433H9.96226C9.71217 14.9433 9.50943 14.7406 9.50943 14.4905C9.50943 14.2404 9.71217 14.0377 9.96226 14.0377H13.3585C13.7336 14.0377 14.0377 13.7336 14.0377 13.3584C14.0377 12.9833 13.7336 12.6792 13.3585 12.6792H11.0943C10.219 12.6792 9.50943 11.9696 9.50943 11.0943C9.50943 10.219 10.219 9.50937 11.0943 9.50937H11.7736V8.60371C11.7736 8.35362 11.9763 8.15088 12.2264 8.15088Z" fill="#24B563"/>
<path d="M10.7844 19.5206V23.2192C10.7844 23.7073 10.3479 24.0668 9.88572 23.9898C4.26244 22.9624 4.57764e-05 18.0309 4.57764e-05 12.0977C4.57764e-05 9.58063 0.770358 7.269 2.07989 5.31696C2.36234 4.906 2.92723 4.85463 3.26103 5.18853L5.8801 7.80838C6.13687 8.06523 6.16254 8.42481 6.00848 8.73303C5.46926 9.73474 5.16114 10.8649 5.16114 12.0721C5.16114 15.257 7.29234 17.9282 10.2195 18.7501C10.5533 18.8528 10.7844 19.1611 10.7844 19.5206Z" fill="#E4FCF7"/>
<path d="M19.5146 10.7365C19.1808 10.7365 18.8727 10.5053 18.77 10.1714C17.9483 7.26904 15.2779 5.16288 12.094 5.16288C10.8615 5.16288 9.70598 5.4711 8.70458 6.03617C8.39645 6.21596 8.0113 6.16459 7.7802 5.90774L5.16114 3.2879C4.82734 2.95399 4.87869 2.38893 5.28952 2.1064C7.21531 0.770788 9.5776 0.000244141 12.1196 0.000244141C18.0254 0.000244141 22.9297 4.21255 23.9824 9.81183C24.0851 10.2998 23.7257 10.7365 23.2378 10.7365H19.5146Z" fill="#FFEECC" fill-opacity="0.92549"/>
<path d="M23.9824 14.3067C23.0837 19.1868 19.2322 23.0395 14.3792 23.9642C13.917 24.0412 13.4805 23.6816 13.4805 23.1936V19.495C13.4805 19.1611 13.7116 18.8529 14.0454 18.7501C16.3307 18.0823 18.1537 16.2587 18.7957 13.9728C18.8984 13.6389 19.1808 13.4077 19.5403 13.4077H23.2378C23.7 13.4077 24.0595 13.8444 23.9824 14.3067Z" fill="#E2F5FD"/>
</g>
<defs>
<clipPath id="clip0_524_85">
<rect width="24" height="24" fill="white"/>
</clipPath>
</defs>
</svg>
