<svg width="44" height="60" viewBox="0 0 44 60" fill="none" xmlns="http://www.w3.org/2000/svg">
<rect x="2" width="40" height="9.9839" rx="3" fill="white"/>
<path fill-rule="evenodd" clip-rule="evenodd" d="M17 6.08691C7.61116 6.08691 0 13.6981 0 23.0869V43C0 52.3888 7.61116 60 17 60H27C36.3888 60 44 52.3888 44 43V23.0869C44 13.6981 36.3888 6.08691 27 6.08691H17ZM22 18C30.2847 18 37 24.8136 37 33.2174C37 41.6212 30.2846 48.4348 22 48.4348C13.7154 48.4348 7 41.6213 7 33.2174C7 24.8135 13.7154 18 22 18ZM22 20.8533C15.2687 20.8533 9.8125 26.3886 9.8125 33.2174C9.8125 40.0461 15.2688 45.5815 22 45.5815C28.7312 45.5815 34.1875 40.0461 34.1875 33.2174C34.1875 26.3886 28.7313 20.8533 22 20.8533ZM22 43.6794C16.3046 43.6794 11.6875 38.9953 11.6875 33.2174C11.6875 27.4395 16.3047 22.7554 22 22.7554C27.6952 22.7554 32.3125 27.4395 32.3125 33.2174C32.3125 38.9953 27.6963 43.6794 22 43.6794ZM22.6818 32.2428L22.6818 32.2428C21.8639 32.0066 20.6257 31.649 20.6257 30.9405C20.6257 30.2663 21.3963 30.0712 21.8585 30.0712C22.2795 30.0712 22.7838 30.2063 23.0501 30.4754C23.2189 30.6399 23.2883 30.7598 23.3436 30.9253C23.3506 30.9449 23.3574 30.9647 23.3642 30.9843C23.4246 31.1602 23.4828 31.3295 23.7224 31.3295H25.0958C25.4182 31.3295 25.5026 31.2697 25.5026 30.9101C25.5026 29.3674 24.311 28.4982 22.9517 28.1986V27.0001C22.9517 26.731 22.8673 26.5654 22.5448 26.5654H21.4508C21.1284 26.5654 21.0439 26.7299 21.0439 27.0001V28.1529C19.5861 28.4372 18.3674 29.3665 18.3674 31.0442C18.3674 32.9464 19.6715 33.5456 21.0861 34.024C21.3989 34.1304 21.7156 34.2098 22.0126 34.2843C22.8469 34.4935 23.5255 34.6637 23.5255 35.2824C23.5255 36.1213 22.9096 36.301 22.1521 36.301C21.6327 36.301 21.059 36.165 20.7777 35.8064C20.5958 35.582 20.5255 35.387 20.5125 35.192C20.4843 34.8173 20.3306 34.7726 20.0072 34.7726H18.6478C18.3253 34.7726 18.2409 34.8486 18.2409 35.192C18.2409 36.8992 19.5871 37.934 21.044 38.2631V39.4321C21.044 39.7012 21.1285 39.8667 21.4509 39.8667H22.545C22.8674 39.8667 22.9518 39.7013 22.9518 39.4321V38.2945C24.6056 38.0386 25.7409 37.021 25.7409 35.2234C25.7425 33.2339 24.3242 32.7732 23.3174 32.4462L23.2469 32.4233C23.1209 32.3696 22.919 32.3113 22.6818 32.2428Z" fill="white"/>
</svg>
