<svg width="24" height="24" viewBox="0 0 24 24" fill="none" xmlns="http://www.w3.org/2000/svg">
<path fill-rule="evenodd" clip-rule="evenodd" d="M18.2592 2.92609C15.6585 1.68373 12.4477 2.13785 10.2914 4.29411C8.34303 6.24249 7.78441 9.05196 8.61139 11.4942L3.8096 15.1162C1.88464 16.5682 1.6882 19.3869 3.39314 21.0919C5.09809 22.7968 7.91685 22.6004 9.36882 20.6754L12.9908 15.8736C15.4331 16.7006 18.2425 16.142 20.1909 14.1936C22.3472 12.0373 22.8013 8.82647 21.5589 6.2258C21.419 5.93288 21.1456 5.72612 20.8257 5.67124C20.5057 5.61636 20.179 5.7202 19.9495 5.94974L17.1211 8.77817C16.7305 9.16869 16.0974 9.16869 15.7069 8.77817C15.3163 8.38764 15.3163 7.75448 15.7069 7.36395L18.5353 4.53552C18.7648 4.30598 18.8687 3.97931 18.8138 3.65936C18.7589 3.33942 18.5521 3.06601 18.2592 2.92609ZM6.49975 17C5.94746 17 5.49975 17.4477 5.49975 18C5.49975 18.5523 5.94746 19 6.49975 19H6.50975C7.06203 19 7.50975 18.5523 7.50975 18C7.50975 17.4477 7.06203 17 6.50975 17H6.49975Z" fill="currentColor"/>
</svg>
