<svg width="24" height="24" viewBox="0 0 24 24" fill="none" xmlns="http://www.w3.org/2000/svg">
<path d="M2 7C2 5.34315 3.34315 4 5 4H19C20.6569 4 22 5.34315 22 7V8H2V7Z" fill="currentColor"/>
<path d="M15.7335 10H2V17C2 18.6569 3.34315 20 5 20H11.4214C11.1538 19.5511 11 19.0264 11 18.4658C11 17.9194 11.1461 17.4071 11.4013 16.9658C11.1461 16.5246 11 16.0123 11 15.4658C11 14.9335 11.1387 14.4335 11.3819 14H7C6.44772 14 6 13.5523 6 13C6 12.4477 6.44772 12 7 12H12C12.4323 12 12.8006 12.2743 12.9401 12.6584C12.9999 12.6359 13.0605 12.6151 13.122 12.5964C13.7898 11.464 14.7045 10.5976 15.7335 10Z" fill="currentColor"/>
<path fill-rule="evenodd" clip-rule="evenodd" d="M14.4344 14.4658H14C13.4477 14.4658 13 14.9135 13 15.4658C13 16.0181 13.4477 16.4658 14 16.4658H14.0151C14.0051 16.6293 14 16.796 14 16.9658C14 17.1356 14.0051 17.3023 14.0151 17.4658H14C13.4477 17.4658 13 17.9135 13 18.4658C13 19.0181 13.4477 19.4658 14 19.4658H14.4345C15.1094 21.2266 16.4867 22.3066 17.9792 22.7273C19.6252 23.1912 21.5093 22.8707 22.7071 21.6729C23.0976 21.2823 23.0976 20.6492 22.7071 20.2587C22.3166 19.8681 21.6834 19.8681 21.2929 20.2587C20.7098 20.8418 19.6234 21.1128 18.5218 20.8023C17.8159 20.6033 17.1434 20.1725 16.6707 19.4658H19C19.5523 19.4658 20 19.0181 20 18.4658C20 17.9135 19.5523 17.4658 19 17.4658H16.0202C16.007 17.3063 16 17.1396 16 16.9658C16 16.7919 16.007 16.6254 16.0202 16.4658H19C19.5523 16.4658 20 16.0181 20 15.4658C20 14.9135 19.5523 14.4658 19 14.4658H16.6706C17.1432 13.7591 17.8158 13.3282 18.5217 13.1292C19.6234 12.8187 20.7097 13.0897 21.2929 13.6729C21.6834 14.0634 22.3166 14.0634 22.7071 13.6729C23.0976 13.2823 23.0976 12.6492 22.7071 12.2587C21.5093 11.0608 19.6251 10.7403 17.9791 11.2043C16.4866 11.625 15.1094 12.705 14.4344 14.4658Z" fill="currentColor"/>
</svg>
