<svg width="24" height="24" viewBox="0 0 24 24" fill="none" xmlns="http://www.w3.org/2000/svg">
<path d="M2 7C2 5.34315 3.34315 4 5 4H19C20.6569 4 22 5.34315 22 7V8H2V7Z" fill="currentColor"/>
<path d="M18 10H22V11.1707C21.6872 11.0602 21.3506 11 21 11H20.2361C19.6868 10.3863 18.8885 10 18 10Z" fill="currentColor"/>
<path d="M12.9605 12.7208C13.6284 11.8714 14.5954 11.2684 15.7028 11.0704C16.2531 10.4159 17.078 10 18 10H2V17C2 18.6569 3.34315 20 5 20H12C12 19.2335 12.2874 18.5342 12.7604 18.0039C12.2802 17.2881 12 16.4268 12 15.5C12 14.9603 12.095 14.4428 12.2692 13.9633C12.1835 13.9872 12.0933 14 12 14H7C6.44772 14 6 13.5523 6 13C6 12.4477 6.44772 12 7 12H12C12.4554 12 12.8397 12.3044 12.9605 12.7208Z" fill="currentColor"/>
<path fill-rule="evenodd" clip-rule="evenodd" d="M18 12C18.5523 12 19 12.4477 19 13H21C21.5523 13 22 13.4477 22 14C22 14.5523 21.5523 15 21 15H16.5C16.2239 15 16 15.2239 16 15.5C16 15.7761 16.2239 16 16.5 16H19.5C20.8807 16 22 17.1193 22 18.5C22 19.8807 20.8807 21 19.5 21H19C19 21.5523 18.5523 22 18 22C17.4477 22 17 21.5523 17 21H15C14.4477 21 14 20.5523 14 20C14 19.4477 14.4477 19 15 19H19.5C19.7761 19 20 18.7761 20 18.5C20 18.2239 19.7761 18 19.5 18H16.5C15.1193 18 14 16.8807 14 15.5C14 14.1193 15.1193 13 16.5 13H17C17 12.4477 17.4477 12 18 12Z" fill="currentColor"/>
</svg>
