<svg width="24" height="24" viewBox="0 0 24 24" fill="none" xmlns="http://www.w3.org/2000/svg">
<path d="M12.5 10C12.5 9.17157 13.1716 8.5 14 8.5C14.8284 8.5 15.5 9.17157 15.5 10C15.5 10.8284 14.8284 11.5 14 11.5C13.1716 11.5 12.5 10.8284 12.5 10Z" fill="currentColor"/>
<path fill-rule="evenodd" clip-rule="evenodd" d="M17.5 4H10.5V5C10.5 6.76296 9.75423 7.91307 8.79215 8.60577C7.85557 9.28011 6.74668 9.5 6 9.5H5V10.5H6C6.74668 10.5 7.85557 10.7199 8.79215 11.3942C9.75423 12.0869 10.5 13.237 10.5 15V16H17.5V15C17.5 13.237 18.2458 12.0869 19.2078 11.3942C20.1444 10.7199 21.2533 10.5 22 10.5H23V9.5H22C21.2533 9.5 20.1444 9.28011 19.2078 8.60577C18.2458 7.91307 17.5 6.76296 17.5 5V4ZM14 7.5C12.6193 7.5 11.5 8.61929 11.5 10C11.5 11.3807 12.6193 12.5 14 12.5C15.3807 12.5 16.5 11.3807 16.5 10C16.5 8.61929 15.3807 7.5 14 7.5Z" fill="currentColor"/>
<path d="M23 8.5V7C23 5.34315 21.6569 4 20 4H18.5V5C18.5 6.43704 19.0876 7.28693 19.7922 7.79423C20.5222 8.31989 21.4133 8.5 22 8.5H23Z" fill="currentColor"/>
<path d="M23 11.5H22C21.4133 11.5 20.5222 11.6801 19.7922 12.2058C19.0876 12.7131 18.5 13.563 18.5 15V16H20C21.6569 16 23 14.6569 23 13V11.5Z" fill="currentColor"/>
<path d="M9.5 16V15C9.5 13.563 8.91243 12.7131 8.20785 12.2058C7.47777 11.6801 6.58666 11.5 6 11.5H5V13C5 14.6569 6.34315 16 8 16H9.5Z" fill="currentColor"/>
<path d="M5 8.5H6C6.58666 8.5 7.47777 8.31989 8.20785 7.79423C8.91243 7.28693 9.5 6.43704 9.5 5V4H8C6.34315 4 5 5.34315 5 7V8.5Z" fill="currentColor"/>
<path d="M3 8.17071C1.83481 8.58254 1 9.69378 1 11V12.5H2C2.28065 12.5 2.63097 12.4588 3 12.3582C3 10.9624 3 9.56655 3 8.17071Z" fill="currentColor"/>
<path d="M3.01454 13.3841C2.64209 13.4661 2.29313 13.5 2 13.5H1V14.5H2C2.36467 14.5 2.81572 14.5524 3.29091 14.6847C3.14376 14.2734 3.04896 13.8372 3.01454 13.3841Z" fill="currentColor"/>
<path d="M4.10373 16.1338C4.34968 16.4392 4.6308 16.7151 4.94094 16.9553C5.27696 17.4521 5.5 18.1146 5.5 19V20H4C2.34315 20 1 18.6569 1 17V15.5H2C2.55904 15.5 3.39455 15.6636 4.10373 16.1338Z" fill="currentColor"/>
<path d="M6.3521 17.7221C6.86808 17.9021 7.42261 18 8 18C9.86264 18 11.7253 18 13.5879 18C13.5308 18.3089 13.5 18.6418 13.5 19V20H6.5V19C6.5 18.5318 6.44739 18.1068 6.3521 17.7221Z" fill="currentColor"/>
<path d="M14.6094 18C14.5392 18.297 14.5 18.6289 14.5 19V20H16C17.3062 20 18.4175 19.1652 18.8293 18C17.4227 18 16.0161 18 14.6094 18Z" fill="currentColor"/>
</svg>
