<svg width="24" height="24" viewBox="0 0 24 24" fill="none" xmlns="http://www.w3.org/2000/svg">
<path fill-rule="evenodd" clip-rule="evenodd" d="M2 7C2 5.34315 3.34315 4 5 4H19C20.6569 4 22 5.34315 22 7C22.5523 7 23 7.44772 23 8C23 8.55228 22.5523 9 22 9V15C22.5523 15 23 15.4477 23 16C23 16.5523 22.5523 17 22 17C22 18.3062 21.1652 19.4175 20 19.8293V21C20 21.5523 19.5523 22 19 22C18.4477 22 18 21.5523 18 21V20H6V21C6 21.5523 5.55228 22 5 22C4.44772 22 4 21.5523 4 21V19.8293C2.83481 19.4175 2 18.3062 2 17V7ZM12 10C10.8954 10 10 10.8954 10 12C10 13.1046 10.8954 14 12 14C13.1046 14 14 13.1046 14 12C14 10.8954 13.1046 10 12 10ZM8 12C8 9.79086 9.79086 8 12 8C14.2091 8 16 9.79086 16 12C16 14.2091 14.2091 16 12 16C9.79086 16 8 14.2091 8 12Z" fill="currentColor"/>
</svg>
