<svg width="24" height="24" viewBox="0 0 24 24" xmlns="http://www.w3.org/2000/svg">
<path fill="currentColor" d="M10.7008 3.558L5.44991 9.183C4.8036 9.876 4.8596 10.9436 5.58057 11.5669C6.29803 12.1901 7.40515 12.1339 8.05145 11.4409L10.2505 9.08625L10.2505 19.3125C10.2505 20.2451 11.0333 21 12.0004 21C12.9676 21 13.7504 20.2451 13.7504 19.3125L13.7504 9.084L15.9494 11.442C16.5969 12.135 17.7028 12.1912 18.4203 11.568C18.8041 11.2339 19.0001 10.7737 19.0001 10.3125C19.0001 9.90975 18.852 9.50587 18.551 9.18412L13.3024 3.55912C12.9711 3.20362 12.4974 3 12.0016 3C11.5058 3 11.0322 3.20362 10.7008 3.558Z"/>
</svg>
